{
.appVersion = "3112";
.formatVersion = 3;
customParameters = (
{
name = vendorID;
value = PYRS;
},
{
name = panose;
value = (
2,
11,
5,
3,
3,
0,
0,
2,
0,
4
);
},
{
name = unicodeRanges;
value = (
0,
1,
2,
3,
5,
6,
9,
31,
33,
35,
37,
38,
47
);
},
{
name = codePageRanges;
value = (
"1252",
"1250",
"1251",
"1254",
"1257",
"bit 29"
);
},
{
name = fsType;
value = (
);
},
{
name = glyphOrder;
value = (
.notdef,
uni0000,
uni000D,
space,
B,
D,
E,
F,
H,
I,
L,
M,
N,
P,
R,
U,
V,
W,
X,
Y,
Z,
b,
d,
h,
i,
l,
m,
n,
p,
q,
u,
v,
w,
x,
z,
period,
comma,
A,
breve,
circumflex,
uni0326,
abreve,
acircumflex,
Abreve,
Acircumflex,
Icircumflex,
exclam,
quotedbl,
quotesingle,
numbersign,
percent,
asterisk,
plus,
slash,
colon,
semicolon,
less,
equal,
greater,
at,
bracketleft,
bracketright,
backslash,
asciicircum,
underscore,
braceleft,
bar,
braceright,
Euro,
quotedblbase,
quotesinglbase,
quotedblright,
quoteright,
quotedblleft,
quoteleft,
minus,
hyphen,
endash,
emdash,
grave,
acute,
guillemotright,
guilsinglright,
guillemotleft,
guilsinglleft,
uni00AD,
ellipsis,
uni0445,
uni0431,
uni0432,
uni0433,
uni0434,
uni0436,
uni043A,
uni0438,
uni0439,
uni043B,
uni043C,
uni043D,
uni043F,
uni0442,
uni0444,
uni0446,
uni0447,
uni0448,
uni0449,
uni044A,
uni044B,
uni044C,
uni044E,
uni044F,
uni0410,
uni0415,
uni041C,
uni041D,
uni0420,
uni0422,
uni0425,
T,
uni0412,
uni041F,
uni0413,
uni041B,
uni0414,
uni0411,
uni0416,
uni0417,
uni0418,
uni0419,
uni041A,
uni0423,
uni0424,
uni0426,
uni0427,
uni0428,
uni0429,
uni042A,
uni042B,
uni042C,
uni042D,
uni042E,
uni042F,
uni0440,
O,
a,
c,
e,
f,
g,
j,
o,
r,
t,
y2_alt,
uni0443,
uni0451,
uni0437,
uni044D,
C,
S,
uni0421,
G,
uni041E,
Q,
J,
K_alt,
K,
k_alt,
k,
i_alt,
j_alt,
s_alt,
s,
c_alt,
copyright,
ampersand,
dollar,
parenleft,
parenright,
cent,
section,
uni04C1,
uni04C2,
w_alt,
W_alt,
zero,
one,
two,
three,
four,
seven,
eight,
nine,
uni0430,
uni0435,
uni043E,
uni0441,
uni0218,
uni0219,
uni021A,
uni021B,
icircumflex,
question,
uni2116,
uni0401,
asciitilde,
trademark,

glyphs = (
{
glyphname = .notdef;
layers = (
{
layerId = m01;
shapes = (
{
closed = 1;
nodes = (
(520,-295,l),
(520,960,l),
(20,960,l),
(20,-295,l)
);
},
{
closed = 1;
nodes = (
(510,950,l),
(510,-285,l),
(30,-285,l),
(30,950,l)
);
}
);
userData = {
assembly = "MPPEM[ ]	/* MeasurePixelPerEm */
PUSHB[ ]	/* 1 value pushed */
50 
LT[ ]	/* LessThan */
IF[ ]	/* If */
NPUSHB[ ]	/* 21 values pushed */
0 3 3 0 95 0 0 0 68 77 0 2 2 1 95 0 1 1 69 1 78 
ELSE[ ]	/* Else */
NPUSHB[ ]	/* 24 values pushed */
0 0 0 3 2 0 3 103 0 2 1 1 2 87 0 2 2 1 95 0 1 2 1 79 
EIF[ ]	/* EndIf */
PUSHB[ ]	/* 7 values pushed */
17 17 17 16 4 6 26 
CALL[ ]	/* CallFunction */";
};
width = 540;
}
);
note = ".notdef";
},
{
glyphname = B;
layers = (
{
layerId = m01;
shapes = (
{
closed = 1;
nodes = (
(329,0,ls),
(378,0,o),
(476,16,o),
(554,59,o),
(603,133,o),
(603,192,qs),
(603,266,o),
(522,360,o),
(450,372,q),
(506,390,o),
(565,473,o),
(565,533,qs),
(565,588,o),
(527,656,o),
(464,694,o),
(381,707,o),
(335,707,qs),
(91,707,l),
(91,0,l)
);
},
{
closed = 1;
nodes = (
(368,647,o),
(428,639,o),
(475,615,o),
(503,568,o),
(503,529,qs),
(503,489,o),
(469,436,o),
(415,404,o),
(348,391,o),
(314,391,qs),
(156,391,l),
(156,647,l),
(336,647,ls)
);
},
{
closed = 1;
nodes = (
(156,331,l),
(356,331,ls),
(390,331,o),
(456,319,o),
(506,289,o),
(537,237,o),
(537,196,qs),
(537,149,o),
(498,95,o),
(437,68,o),
(362,60,o),
(326,60,qs),
(156,60,l)
);
}
);
userData = {
assembly = "NPUSHB[ ]	/* 57 values pushed */
9 1 5 2 1 76 0 2 0 5 4 2 5 103 6 1 3 3 0 95 0 0 0 38 77 7 1 4 4 1 95 0 1 1 39 1 78 33 32 19 19 43 41 32 44 33 44 19 31 19 30 34 46 32 8 8 25 
CALL[ ]	/* CallFunction */";
};
width = 657;
}
);
note = B;
unicode = 66;
},
{
glyphname = D;
kernRight = D;
layers = (
{
layerId = m01;
shapes = (
{
closed = 1;
nodes = (
(339,0,ls),
(420,0,o),
(544,52,o),
(627,145,o),
(670,275,o),
(670,353,qs),
(670,432,o),
(628,563,o),
(545,656,o),
(421,707,o),
(339,707,qs),
(92,707,l),
(92,0,l)
);
},
{
closed = 1;
nodes = (
(405,648,o),
(505,603,o),
(571,524,o),
(603,416,o),
(603,353,qs),
(603,288,o),
(569,180,o),
(501,102,o),
(399,59,o),
(332,59,qs),
(157,59,l),
(157,648,l),
(338,648,ls)
);
}
);
userData = {
assembly = "NPUSHB[ ]	/* 34 values pushed */
4 1 3 3 0 95 0 0 0 38 77 0 2 2 1 95 0 1 1 39 1 78 13 13 13 25 13 24 34 40 32 5 8 25 
CALL[ ]	/* CallFunction */";
};
width = 724;
}
);
note = D;
unicode = 68;
},
{
glyphname = E;
layers = (
{
layerId = m01;
shapes = (
{
closed = 1;
nodes = (
(557,0,l),
(557,60,l),
(157,60,l),
(157,321,l),
(517,321,l),
(517,381,l),
(157,381,l),
(157,647,l),
(557,647,l),
(557,707,l),
(92,707,l),
(92,0,l)
);
}
);
userData = {
assembly = "NPUSHB[ ]	/* 38 values pushed */
0 2 0 3 4 2 3 103 0 1 1 0 95 0 0 0 38 77 0 4 4 5 95 0 5 5 39 5 78 17 17 17 17 17 16 6 8 28 
CALL[ ]	/* CallFunction */";
};
width = 610;
}
);
note = E;
unicode = 69;
},
{
glyphname = F;
layers = (
{
layerId = m01;
shapes = (
{
closed = 1;
nodes = (
(157,298,l),
(499,298,l),
(499,358,l),
(157,358,l),
(157,647,l),
(557,647,l),
(557,707,l),
(92,707,l),
(92,0,l),
(157,0,l)
);
}
);
userData = {
assembly = "NPUSHB[ ]	/* 38 values pushed */
0 2 0 3 4 2 3 103 0 1 1 0 95 0 0 0 38 77 5 1 4 4 39 4 78 0 0 0 9 0 9 17 17 17 17 6 8 26 
CALL[ ]	/* CallFunction */";
};
width = 599;
}
);
note = F;
unicode = 70;
},
{
glyphname = H;
layers = (
{
layerId = m01;
shapes = (
{
closed = 1;
nodes = (
(157,707,l),
(92,707,l),
(92,0,l),
(157,0,l),
(157,317,l),
(573,317,l),
(573,0,l),
(638,0,l),
(638,707,l),
(573,707,l),
(573,377,l),
(157,377,l)
);
}
);
userData = {
assembly = "NPUSHB[ ]	/* 36 values pushed */
6 1 5 0 2 1 5 2 103 4 1 0 0 38 77 3 1 1 1 39 1 78 0 0 0 11 0 11 17 17 17 17 17 7 8 27 
CALL[ ]	/* CallFunction */";
};
width = 730;
}
);
note = H;
unicode = 72;
},
{
glyphname = I;
layers = (
{
layerId = m01;
shapes = (
{
closed = 1;
nodes = (
(92,707,l),
(92,0,l),
(157,0,l),
(157,707,l)
);
}
);
userData = {
assembly = "NPUSHB[ ]	/* 16 values pushed */
0 1 1 38 77 0 0 0 39 0 78 17 16 2 8 24 
CALL[ ]	/* CallFunction */";
};
width = 249;
}
);
note = I;
unicode = 73;
},
{
glyphname = L;
layers = (
{
layerId = m01;
shapes = (
{
closed = 1;
nodes = (
(557,60,l),
(157,60,l),
(157,707,l),
(92,707,l),
(92,0,l),
(557,0,l)
);
}
);
userData = {
assembly = "NPUSHB[ ]	/* 28 values pushed */
0 0 0 38 77 0 1 1 2 95 3 1 2 2 39 2 78 0 0 0 5 0 5 17 17 4 8 24 
CALL[ ]	/* CallFunction */";
};
width = 602;
}
);
note = L;
unicode = 76;
},
{
glyphname = M;
layers = (
{
layerId = m01;
shapes = (
{
closed = 1;
nodes = (
(422,292,l),
(197,707,l),
(92,707,l),
(92,0,l),
(157,0,l),
(157,646,l),
(404,188,l),
(435,188,l),
(495,299,o),
(619,535,o),
(679,646,q),
(679,0,l),
(744,0,l),
(744,707,l),
(643,707,l)
);
}
);
userData = {
assembly = "NPUSHB[ ]	/* 43 values pushed */
13 8 3 3 1 3 1 76 0 1 3 0 3 1 0 128 5 4 2 3 3 38 77 2 1 0 0 39 0 78 0 0 0 14 0 14 17 18 20 17 6 8 26 
CALL[ ]	/* CallFunction */";
};
width = 836;
}
);
note = M;
unicode = 77;
},
{
glyphname = N;
layers = (
{
layerId = m01;
shapes = (
{
closed = 1;
nodes = (
(157,641,l),
(557,0,l),
(656,0,l),
(656,707,l),
(591,707,l),
(591,64,l),
(193,707,l),
(92,707,l),
(92,0,l),
(157,0,l)
);
}
);
userData = {
assembly = "NPUSHB[ ]	/* 33 values pushed */
8 3 2 2 0 1 76 1 1 0 0 38 77 4 3 2 2 2 39 2 78 0 0 0 9 0 9 17 18 17 5 8 25 
CALL[ ]	/* CallFunction */";
};
width = 748;
}
);
note = N;
unicode = 78;
},
{
glyphname = P;
layers = (
{
layerId = m01;
shapes = (
{
closed = 1;
nodes = (
(157,0,l),
(157,241,l),
(312,241,ls),
(368,241,o),
(465,269,o),
(536,328,o),
(577,416,o),
(577,476,qs),
(577,595,o),
(447,707,o),
(332,707,qs),
(92,707,l),
(92,0,l)
);
},
{
closed = 1;
nodes = (
(157,647,l),
(327,647,ls),
(412,647,o),
(510,570,o),
(510,480,qs),
(510,433,o),
(481,365,o),
(429,321,o),
(355,301,o),
(310,301,qs),
(157,301,l)
);
}
);
userData = {
assembly = "NPUSHB[ ]	/* 39 values pushed */
5 1 3 0 1 2 3 1 103 0 4 4 0 95 0 0 0 38 77 0 2 2 39 2 78 14 13 22 20 13 23 14 23 17 38 32 6 8 25 
CALL[ ]	/* CallFunction */";
};
width = 631;
}
);
note = P;
unicode = 80;
},
{
glyphname = R;
layers = (
{
layerId = m01;
shapes = (
{
closed = 1;
nodes = (
(521,0,l),
(593,0,l),
(439,287,l),
(518,307,o),
(602,409,o),
(602,490,qs),
(602,550,o),
(566,633,o),
(500,684,o),
(408,707,o),
(353,707,qs),
(92,707,l),
(92,0,l),
(157,0,l),
(157,276,l),
(372,276,l)
);
},
{
closed = 1;
nodes = (
(157,647,l),
(344,647,ls),
(385,647,o),
(455,633,o),
(506,599,o),
(535,539,o),
(535,493,qs),
(535,444,o),
(501,383,o),
(445,348,o),
(370,336,o),
(330,336,qs),
(157,336,l)
);
}
);
userData = {
assembly = "NPUSHB[ ]	/* 53 values pushed */
12 1 3 4 1 76 7 1 4 6 1 3 0 4 3 103 0 5 5 1 95 0 1 1 38 77 2 1 0 0 39 0 78 17 16 0 0 27 25 16 28 17 28 0 15 0 15 24 33 17 8 8 25 
CALL[ ]	/* CallFunction */";
};
width = 660;
}
);
note = R;
unicode = 82;
},
{
glyphname = U;
layers = (
{
layerId = m01;
shapes = (
{
closed = 1;
nodes = (
(570,305,ls),
(570,252,o),
(549,160,o),
(500,91,o),
(420,51,o),
(362,51,qs),
(304,51,o),
(224,90,o),
(174,159,o),
(152,252,o),
(152,305,qs),
(152,707,l),
(87,707,l),
(87,301,ls),
(87,233,o),
(118,120,o),
(185,38,o),
(289,-8,o),
(361,-8,qs),
(433,-8,o),
(537,38,o),
(604,120,o),
(635,233,o),
(635,301,qs),
(635,707,l),
(570,707,l)
);
}
);
userData = {
assembly = "NPUSHB[ ]	/* 30 values pushed */
4 3 2 1 1 38 77 0 2 2 0 97 0 0 0 47 0 78 0 0 0 25 0 25 37 21 37 5 8 25 
CALL[ ]	/* CallFunction */";
};
width = 722;
}
);
note = U;
unicode = 85;
},
{
glyphname = V;
layers = (
{
layerId = m01;
shapes = (
{
closed = 1;
nodes = (
(19,707,l),
(286,0,l),
(378,0,l),
(644,707,l),
(571,707,l),
(333,60,l),
(93,707,l)
);
}
);
userData = {
assembly = "NPUSHB[ ]	/* 18 values pushed */
2 1 0 0 38 77 0 1 1 39 1 78 17 17 17 3 8 25 
CALL[ ]	/* CallFunction */";
};
width = 663;
}
);
note = V;
unicode = 86;
},
{
glyphname = W;
kernLeft = W;
kernRight = W;
layers = (
{
layerId = m01;
shapes = (
{
closed = 1;
nodes = (
(476,648,l),
(641,0,l),
(742,0,l),
(934,707,l),
(860,707,l),
(692,60,l),
(530,707,l),
(425,707,l),
(262,60,l),
(94,707,l),
(19,707,l),
(211,0,l),
(313,0,l)
);
}
);
userData = {
assembly = "NPUSHB[ ]	/* 36 values pushed */
11 6 3 3 3 0 1 76 2 1 2 0 0 38 77 5 4 2 3 3 39 3 78 0 0 0 12 0 12 17 18 18 17 6 8 26 
CALL[ ]	/* CallFunction */";
};
width = 953;
}
);
note = W;
unicode = 87;
},
{
glyphname = X;
layers = (
{
layerId = m01;
shapes = (
{
closed = 1;
nodes = (
(108,707,l),
(26,707,l),
(247,354,l),
(19,0,l),
(98,0,l),
(290,303,l),
(481,0,l),
(562,0,l),
(333,357,l),
(553,707,l),
(472,707,l),
(290,407,l)
);
}
);
userData = {
assembly = "NPUSHB[ ]	/* 29 values pushed */
11 8 5 2 4 1 0 1 76 3 1 0 0 38 77 2 1 1 1 39 1 78 18 18 18 16 4 8 26 
CALL[ ]	/* CallFunction */";
};
width = 581;
}
);
note = X;
unicode = 88;
},
{
glyphname = Y;
kernLeft = Y;
kernRight = Y;
layers = (
{
layerId = m01;
shapes = (
{
closed = 1;
nodes = (
(96,707,l),
(19,707,l),
(270,267,l),
(270,0,l),
(335,0,l),
(335,267,l),
(584,707,l),
(509,707,l),
(304,334,l)
);
}
);
userData = {
assembly = "NPUSHB[ ]	/* 26 values pushed */
8 5 2 3 1 0 1 76 2 1 0 0 38 77 0 1 1 39 1 78 18 18 16 3 8 25 
CALL[ ]	/* CallFunction */";
};
width = 603;
}
);
note = Y;
unicode = 89;
},
{
glyphname = Z;
layers = (
{
layerId = m01;
shapes = (
{
closed = 1;
nodes = (
(49,57,l),
(49,0,l),
(545,0,l),
(545,60,l),
(127,60,l),
(550,651,l),
(550,707,l),
(63,707,l),
(63,647,l),
(466,647,l)
);
}
);
userData = {
assembly = "NPUSHB[ ]	/* 44 values pushed */
3 1 3 0 8 1 2 1 2 76 4 1 3 3 0 95 0 0 0 38 77 0 1 1 2 95 0 2 2 39 2 78 0 0 0 9 0 9 17 18 17 5 8 25 
CALL[ ]	/* CallFunction */";
};
width = 599;
}
);
note = Z;
unicode = 90;
},
{
glyphname = b;
layers = (
{
layerId = m01;
shapes = (
{
closed = 1;
nodes = (
(153,54,o),
(197,22,o),
(246,3,o),
(298,-5,o),
(323,-5,qs),
(368,-5,o),
(443,20,o),
(470,41,qs),
(515,75,o),
(558,185,o),
(560,253,qs),
(561,309,o),
(537,412,o),
(481,490,o),
(393,536,o),
(331,536,qs),
(271,536,o),
(170,490,o),
(138,441,q),
(138,707,l),
(72,707,l),
(72,0,l),
(136,0,l),
(137,78,l)
);
},
{
closed = 1;
nodes = (
(210,85,qs),
(169,116,o),
(136,213,o),
(136,262,qs),
(136,303,o),
(156,378,o),
(179,407,qs),
(202,438,o),
(274,477,o),
(317,477,qs),
(366,477,o),
(433,442,o),
(475,384,o),
(494,305,o),
(494,262,qs),
(494,220,o),
(474,143,o),
(432,84,o),
(366,50,o),
(319,50,qs),
(257,50,o)
);
}
);
userData = {
assembly = "PUSHB[ ]	/* 7 values pushed */
23 4 2 4 5 1 76 
MPPEM[ ]	/* MeasurePixelPerEm */
PUSHB[ ]	/* 1 value pushed */
46 
LT[ ]	/* LessThan */
IF[ ]	/* If */
NPUSHB[ ]	/* 28 values pushed */
0 1 1 38 77 0 5 5 2 97 0 2 2 49 77 6 1 4 4 0 97 3 1 0 0 39 0 78 
ELSE[ ]	/* Else */
NPUSHB[ ]	/* 32 values pushed */
0 1 1 38 77 0 5 5 2 97 0 2 2 49 77 0 0 0 39 77 6 1 4 4 3 97 0 3 3 50 3 78 
EIF[ ]	/* EndIf */
NPUSHB[ ]	/* 15 values pushed */
25 24 35 33 24 44 25 44 41 35 17 16 7 8 26 
CALL[ ]	/* CallFunction */";
};
width = 613;
}
);
note = b;
unicode = 98;
},
{
glyphname = d;
kernLeft = d;
layers = (
{
layerId = m01;
shapes = (
{
closed = 1;
nodes = (
(460,472,o),
(420,504,o),
(373,524,o),
(321,533,o),
(295,533,qs),
(238,533,o),
(149,494,o),
(87,425,o),
(54,332,o),
(53,277,qs),
(51,221,o),
(76,118,o),
(131,40,o),
(220,-6,o),
(282,-6,qs),
(342,-6,o),
(442,38,o),
(475,83,q),
(475,0,l),
(541,0,l),
(541,707,l),
(475,707,l),
(475,449,l)
);
},
{
closed = 1;
nodes = (
(381,458,o),
(404,441,qs),
(445,410,o),
(477,314,o),
(477,265,qs),
(477,224,o),
(457,149,o),
(434,119,qs),
(411,89,o),
(340,50,o),
(296,50,qs),
(247,50,o),
(180,85,o),
(138,143,o),
(119,221,o),
(119,265,qs),
(119,307,o),
(139,383,o),
(181,442,o),
(247,477,o),
(294,477,qs),
(325,477,o)
);
}
);
userData = {
assembly = "PUSHB[ ]	/* 7 values pushed */
22 4 2 5 4 1 76 
MPPEM[ ]	/* MeasurePixelPerEm */
PUSHB[ ]	/* 1 value pushed */
39 
LT[ ]	/* LessThan */
IF[ ]	/* If */
NPUSHB[ ]	/* 28 values pushed */
0 0 0 38 77 6 1 4 4 3 97 0 3 3 49 77 0 5 5 1 97 2 1 1 1 39 1 78 
ELSE[ ]	/* Else */
NPUSHB[ ]	/* 32 values pushed */
0 0 0 38 77 6 1 4 4 3 97 0 3 3 49 77 0 1 1 39 77 0 5 5 2 97 0 2 2 50 2 78 
EIF[ ]	/* EndIf */
NPUSHB[ ]	/* 15 values pushed */
24 23 34 32 23 44 24 44 40 35 17 16 7 8 26 
CALL[ ]	/* CallFunction */";
};
width = 613;
}
);
note = d;
unicode = 100;
},
{
glyphname = h;
layers = (
{
layerId = m01;
shapes = (
{
closed = 1;
nodes = (
(138,265,ls),
(138,308,o),
(160,386,o),
(185,416,qs),
(208,444,o),
(277,477,o),
(318,477,qs),
(356,477,o),
(406,453,o),
(423,433,qs),
(448,402,o),
(463,315,o),
(463,268,qs),
(463,0,l),
(529,0,l),
(529,292,ls),
(529,355,o),
(499,457,o),
(461,489,qs),
(438,509,o),
(372,533,o),
(330,533,qs),
(300,533,o),
(241,522,o),
(216,510,qs),
(191,497,o),
(152,463,o),
(138,439,q),
(138,707,l),
(72,707,l),
(72,0,l),
(138,0,l)
);
}
);
userData = {
assembly = "NPUSHB[ ]	/* 42 values pushed */
3 1 2 3 1 76 0 0 0 38 77 0 3 3 1 97 0 1 1 49 77 5 4 2 2 2 39 2 78 0 0 0 31 0 31 38 22 38 17 6 8 26 
CALL[ ]	/* CallFunction */";
};
width = 598;
}
);
note = h;
unicode = 104;
},
{
glyphname = i;
layers = (
{
layerId = m01;
shapes = (
{
closed = 1;
nodes = (
(64,692,o),
(64,669,qs),
(64,646,o),
(91,620,o),
(113,620,qs),
(135,620,o),
(163,646,o),
(163,669,qs),
(163,691,o),
(135,717,o),
(113,717,qs),
(91,717,o)
);
},
{
closed = 1;
nodes = (
(146,0,l),
(146,527,l),
(80,527,l),
(80,0,l)
);
}
);
userData = {
assembly = "NPUSHB[ ]	/* 37 values pushed */
0 1 1 0 97 4 1 0 0 48 77 0 2 2 41 77 0 3 3 39 3 78 1 0 15 14 13 12 7 5 0 11 1 11 5 8 22 
CALL[ ]	/* CallFunction */";
};
width = 227;
}
);
note = i;
unicode = 105;
},
{
glyphname = l;
layers = (
{
layerId = m01;
shapes = (
{
closed = 1;
nodes = (
(138,707,l),
(72,707,l),
(72,0,l),
(138,0,l)
);
}
);
userData = {
assembly = "NPUSHB[ ]	/* 22 values pushed */
0 0 0 38 77 2 1 1 1 39 1 78 0 0 0 3 0 3 17 3 8 23 
CALL[ ]	/* CallFunction */";
};
width = 210;
}
);
note = l;
unicode = 108;
},
{
glyphname = m;
layers = (
{
layerId = m01;
shapes = (
{
closed = 1;
nodes = (
(72,527,l),
(72,0,l),
(138,0,l),
(138,270,ls),
(138,306,o),
(146,372,o),
(161,401,qs),
(178,434,o),
(238,475,o),
(276,476,qs),
(314,476,o),
(358,446,o),
(380,396,o),
(386,335,o),
(386,305,qs),
(386,0,l),
(452,0,l),
(452,285,ls),
(452,326,o),
(473,409,o),
(500,438,qs),
(517,455,o),
(563,476,o),
(593,476,qs),
(630,476,o),
(674,444,o),
(695,395,o),
(701,335,o),
(701,306,qs),
(701,0,l),
(767,0,l),
(767,348,ls),
(767,432,o),
(688,531,o),
(603,533,qs),
(575,534,o),
(524,523,o),
(479,499,o),
(444,461,o),
(435,435,q),
(422,483,o),
(346,533,o),
(295,533,qs),
(247,534,o),
(164,497,o),
(137,457,q),
(135,527,l)
);
}
);
userData = {
assembly = "PUSHB[ ]	/* 7 values pushed */
6 0 2 2 3 1 76 
MPPEM[ ]	/* MeasurePixelPerEm */
PUSHB[ ]	/* 1 value pushed */
39 
LT[ ]	/* LessThan */
IF[ ]	/* If */
NPUSHB[ ]	/* 21 values pushed */
5 1 3 3 0 97 7 1 2 0 0 49 77 6 4 2 2 2 39 2 78 
ELSE[ ]	/* Else */
NPUSHB[ ]	/* 25 values pushed */
0 7 7 41 77 5 1 3 3 0 97 1 1 0 0 49 77 6 4 2 2 2 39 2 78 
EIF[ ]	/* EndIf */
NPUSHB[ ]	/* 11 values pushed */
17 22 37 22 37 19 38 34 8 8 30 
CALL[ ]	/* CallFunction */";
};
width = 834;
}
);
note = m;
unicode = 109;
},
{
glyphname = n;
layers = (
{
layerId = m01;
shapes = (
{
closed = 1;
nodes = (
(138,265,ls),
(138,308,o),
(160,386,o),
(186,416,qs),
(209,443,o),
(277,477,o),
(318,477,qs),
(356,477,o),
(406,453,o),
(423,433,qs),
(448,402,o),
(463,315,o),
(463,268,qs),
(463,0,l),
(529,0,l),
(529,292,ls),
(529,355,o),
(499,457,o),
(461,489,qs),
(438,509,o),
(373,533,o),
(330,533,qs),
(298,533,o),
(243,522,o),
(217,509,qs),
(194,498,o),
(152,461,o),
(138,437,q),
(136,527,l),
(72,527,l),
(72,0,l),
(138,0,l)
);
}
);
userData = {
assembly = "PUSHB[ ]	/* 6 values pushed */
3 1 2 3 1 76 
MPPEM[ ]	/* MeasurePixelPerEm */
PUSHB[ ]	/* 1 value pushed */
39 
LT[ ]	/* LessThan */
IF[ ]	/* If */
NPUSHB[ ]	/* 19 values pushed */
0 3 3 0 97 1 1 0 0 41 77 5 4 2 2 2 39 2 78 
ELSE[ ]	/* Else */
NPUSHB[ ]	/* 23 values pushed */
0 0 0 41 77 0 3 3 1 97 0 1 1 49 77 5 4 2 2 2 39 2 78 
EIF[ ]	/* EndIf */
NPUSHB[ ]	/* 13 values pushed */
0 0 0 31 0 31 38 22 38 17 6 8 26 
CALL[ ]	/* CallFunction */";
};
width = 598;
}
);
note = n;
unicode = 110;
},
{
glyphname = p;
layers = (
{
layerId = m01;
shapes = (
{
closed = 1;
nodes = (
(154,51,o),
(197,19,o),
(245,1,o),
(297,-6,o),
(323,-6,qs),
(368,-6,o),
(443,17,o),
(470,38,qs),
(515,72,o),
(558,182,o),
(560,250,qs),
(561,306,o),
(537,409,o),
(481,487,o),
(393,533,o),
(331,533,qs),
(293,533,o),
(230,517,o),
(198,497,qs),
(162,474,o),
(138,437,q),
(138,527,l),
(72,527,l),
(72,-197,l),
(138,-197,l),
(138,76,l)
);
},
{
closed = 1;
nodes = (
(208,84,qs),
(167,115,o),
(136,213,o),
(136,262,qs),
(136,303,o),
(156,378,o),
(179,407,qs),
(202,438,o),
(273,477,o),
(317,477,qs),
(366,477,o),
(433,442,o),
(475,384,o),
(494,305,o),
(494,262,qs),
(494,220,o),
(474,143,o),
(432,84,o),
(366,50,o),
(319,50,qs),
(254,50,o)
);
}
);
userData = {
assembly = "PUSHB[ ]	/* 7 values pushed */
25 4 2 4 5 1 76 
MPPEM[ ]	/* MeasurePixelPerEm */
PUSHB[ ]	/* 1 value pushed */
16 
LT[ ]	/* LessThan */
IF[ ]	/* If */
NPUSHB[ ]	/* 28 values pushed */
0 5 5 1 97 2 1 1 1 41 77 6 1 4 4 3 97 0 3 3 50 77 0 0 0 43 0 78 
ELSE[ ]	/* Else */
MPPEM[ ]	/* MeasurePixelPerEm */
PUSHB[ ]	/* 1 value pushed */
39 
LT[ ]	/* LessThan */
IF[ ]	/* If */
NPUSHB[ ]	/* 28 values pushed */
0 0 3 0 134 0 5 5 1 97 2 1 1 1 41 77 6 1 4 4 3 97 0 3 3 50 3 78 
ELSE[ ]	/* Else */
NPUSHB[ ]	/* 32 values pushed */
0 0 3 0 134 0 1 1 41 77 0 5 5 2 97 0 2 2 49 77 6 1 4 4 3 97 0 3 3 50 3 78 
EIF[ ]	/* EndIf */
EIF[ ]	/* EndIf */
NPUSHB[ ]	/* 15 values pushed */
27 26 37 35 26 46 27 46 41 37 17 16 7 8 26 
CALL[ ]	/* CallFunction */";
};
width = 613;
}
);
note = p;
unicode = 112;
},
{
glyphname = q;
kernLeft = d;
layers = (
{
layerId = m01;
shapes = (
{
closed = 1;
nodes = (
(461,470,o),
(426,498,o),
(407,508,qs),
(381,522,o),
(324,533,o),
(292,533,qs),
(235,533,o),
(147,494,o),
(87,425,o),
(54,332,o),
(53,277,qs),
(51,221,o),
(76,118,o),
(131,40,o),
(220,-6,o),
(282,-6,qs),
(322,-6,o),
(395,12,o),
(425,33,qs),
(439,43,o),
(464,65,o),
(475,82,q),
(475,-197,l),
(541,-197,l),
(541,527,l),
(479,527,l),
(475,449,l)
);
},
{
closed = 1;
nodes = (
(405,442,qs),
(446,411,o),
(477,314,o),
(477,265,qs),
(477,224,o),
(457,149,o),
(434,119,qs),
(411,89,o),
(340,50,o),
(296,50,qs),
(247,50,o),
(180,85,o),
(138,143,o),
(119,221,o),
(119,265,qs),
(119,307,o),
(139,383,o),
(182,442,o),
(248,477,o),
(295,477,qs),
(358,477,o)
);
}
);
userData = {
assembly = "PUSHB[ ]	/* 7 values pushed */
26 4 2 5 4 1 76 
MPPEM[ ]	/* MeasurePixelPerEm */
PUSHB[ ]	/* 1 value pushed */
16 
LT[ ]	/* LessThan */
IF[ ]	/* If */
NPUSHB[ ]	/* 28 values pushed */
6 1 4 4 0 97 3 1 0 0 41 77 0 5 5 2 97 0 2 2 50 77 0 1 1 43 1 78 
ELSE[ ]	/* Else */
MPPEM[ ]	/* MeasurePixelPerEm */
PUSHB[ ]	/* 1 value pushed */
39 
LT[ ]	/* LessThan */
IF[ ]	/* If */
NPUSHB[ ]	/* 28 values pushed */
0 1 2 1 134 6 1 4 4 0 97 3 1 0 0 41 77 0 5 5 2 97 0 2 2 50 2 78 
ELSE[ ]	/* Else */
NPUSHB[ ]	/* 32 values pushed */
0 1 2 1 134 0 0 0 41 77 6 1 4 4 3 97 0 3 3 49 77 0 5 5 2 97 0 2 2 50 2 78 
EIF[ ]	/* EndIf */
EIF[ ]	/* EndIf */
NPUSHB[ ]	/* 15 values pushed */
28 27 38 36 27 47 28 47 40 38 17 16 7 8 26 
CALL[ ]	/* CallFunction */";
};
width = 613;
}
);
note = q;
unicode = 113;
},
{
glyphname = u;
layers = (
{
layerId = m01;
shapes = (
{
closed = 1;
nodes = (
(188,78,o),
(152,127,o),
(136,193,o),
(136,231,qs),
(136,527,l),
(70,527,l),
(70,229,ls),
(70,117,o),
(175,-6,o),
(288,-6,qs),
(404,-6,o),
(508,117,o),
(508,229,qs),
(508,527,l),
(442,527,l),
(442,231,ls),
(442,191,o),
(426,125,o),
(390,77,o),
(331,50,o),
(288,50,qs),
(246,50,o)
);
}
);
userData = {
assembly = "NPUSHB[ ]	/* 33 values pushed */
3 1 1 1 41 77 4 1 0 0 2 97 0 2 2 50 2 78 1 0 16 15 12 10 7 6 0 21 1 21 5 8 22 
CALL[ ]	/* CallFunction */";
};
width = 578;
}
);
note = u;
unicode = 117;
},
{
glyphname = v;
layers = (
{
layerId = m01;
shapes = (
{
closed = 1;
nodes = (
(308,0,l),
(512,527,l),
(436,527,l),
(262,55,l),
(87,527,l),
(12,527,l),
(215,0,l)
);
}
);
userData = {
assembly = "NPUSHB[ ]	/* 24 values pushed */
2 1 2 0 1 76 1 1 0 0 41 77 0 2 2 39 2 78 17 18 16 3 8 25 
CALL[ ]	/* CallFunction */";
};
width = 524;
}
);
note = v;
unicode = 118;
},
{
glyphname = w;
kernLeft = w;
layers = (
{
layerId = m01;
shapes = (
{
closed = 1;
nodes = (
(360,527,l),
(226,55,l),
(92,527,l),
(17,527,l),
(179,0,l),
(273,0,l),
(411,474,l),
(549,0,l),
(642,0,l),
(802,527,l),
(727,527,l),
(596,55,l),
(462,527,l)
);
}
);
userData = {
assembly = "NPUSHB[ ]	/* 29 values pushed */
10 5 2 1 0 1 76 4 3 2 0 0 41 77 2 1 1 1 39 1 78 18 17 18 17 17 5 8 27 
CALL[ ]	/* CallFunction */";
};
width = 819;
}
);
note = w;
unicode = 119;
},
{
glyphname = x;
layers = (
{
layerId = m01;
shapes = (
{
closed = 1;
nodes = (
(489,0,l),
(297,266,l),
(476,527,l),
(396,527,l),
(255,312,l),
(111,527,l),
(28,527,l),
(209,267,l),
(19,0,l),
(97,0,l),
(251,219,l),
(407,0,l)
);
}
);
userData = {
assembly = "NPUSHB[ ]	/* 28 values pushed */
9 6 3 3 0 1 1 76 2 1 1 1 41 77 3 1 0 0 39 0 78 18 18 18 17 4 8 26 
CALL[ ]	/* CallFunction */";
};
width = 508;
}
);
note = x;
unicode = 120;
},
{
glyphname = z;
layers = (
{
layerId = m01;
shapes = (
{
closed = 1;
nodes = (
(57,527,l),
(57,472,l),
(394,472,l),
(52,60,l),
(52,0,l),
(472,0,l),
(472,55,l),
(127,55,l),
(472,468,l),
(472,527,l)
);
}
);
userData = {
assembly = "NPUSHB[ ]	/* 35 values pushed */
5 0 2 0 2 1 76 0 2 2 3 95 0 3 3 41 77 0 0 0 1 95 0 1 1 39 1 78 17 18 17 17 4 8 26 
CALL[ ]	/* CallFunction */";
};
width = 524;
}
);
note = z;
unicode = 122;
},
{
glyphname = period;
kernLeft = period;
kernRight = period;
layers = (
{
layerId = m01;
shapes = (
{
closed = 1;
nodes = (
(72,66,o),
(72,44,qs),
(72,22,o),
(100,-8,o),
(123,-8,qs),
(146,-8,o),
(173,22,o),
(173,44,qs),
(173,66,o),
(146,94,o),
(123,94,qs),
(100,94,o)
);
}
);
userData = {
assembly = "NPUSHB[ ]	/* 23 values pushed */
2 1 0 0 1 97 0 1 1 47 1 78 1 0 7 5 0 11 1 11 3 8 22 
CALL[ ]	/* CallFunction */";
};
width = 245;
}
);
note = period;
unicode = 46;
},
{
glyphname = comma;
kernLeft = period;
kernRight = period;
layers = (
{
layerId = m01;
shapes = (
{
closed = 1;
nodes = (
(74,66,o),
(74,44,qs),
(74,19,o),
(102,-10,o),
(128,-8,q),
(123,-37,o),
(94,-79,o),
(72,-93,q),
(88,-119,l),
(131,-101,o),
(180,-18,o),
(179,27,qs),
(180,54,o),
(155,93,o),
(126,94,qs),
(103,94,o)
);
}
);
userData = {
assembly = "NPUSHB[ ]	/* 20 values pushed */
10 7 6 3 0 73 1 1 0 0 118 1 0 0 15 1 15 2 8 22 
CALL[ ]	/* CallFunction */";
};
width = 252;
}
);
note = comma;
unicode = 44;
},
{
glyphname = A;
kernLeft = A;
kernRight = A;
layers = (
{
layerId = m01;
shapes = (
{
closed = 1;
nodes = (
(560,0,l),
(633,0,l),
(370,707,l),
(279,707,l),
(15,0,l),
(88,0,l),
(146,157,l),
(502,157,l)
);
},
{
closed = 1;
nodes = (
(481,217,l),
(168,217,l),
(324,646,l)
);
}
);
userData = {
assembly = "NPUSHB[ ]	/* 41 values pushed */
10 1 4 1 1 76 0 4 5 1 3 0 4 3 104 0 1 1 38 77 2 1 0 0 39 0 78 0 0 9 8 0 7 0 7 17 17 17 6 8 25 
CALL[ ]	/* CallFunction */";
};
width = 648;
}
);
note = A;
unicode = 65;
},
{
glyphname = breve;
layers = (
{
layerId = m01;
shapes = (
{
closed = 1;
nodes = (
(233,674,o),
(206,690,o),
(189,718,o),
(186,740,q),
(126,740,l),
(129,705,o),
(156,658,o),
(198,630,o),
(253,618,o),
(285,618,qs),
(316,618,o),
(371,630,o),
(415,658,o),
(443,705,o),
(446,740,q),
(386,740,l),
(383,718,o),
(365,690,o),
(339,674,o),
(305,668,o),
(286,668,qs),
(267,668,o)
);
}
);
userData = {
assembly = "PUSHB[ ]	/* 2 values pushed */
6 100 
WCVTP[ ]	/* WriteCVTInPixels */
NPUSHB[ ]	/* 39 values pushed */
3 1 1 0 1 133 4 1 0 2 2 0 89 4 1 0 0 2 97 0 2 0 2 81 1 0 17 16 12 10 6 5 0 21 1 21 5 8 22 
CALL[ ]	/* CallFunction */
PUSHB[ ]	/* 2 values pushed */
6 0 
WCVTP[ ]	/* WriteCVTInPixels */";
};
width = 572;
}
);
note = breve;
unicode = 728;
},
{
glyphname = circumflex;
layers = (
{
layerId = m01;
shapes = (
{
closed = 1;
nodes = (
(408,628,l),
(285,769,l),
(244,769,l),
(121,628,l),
(186,628,l),
(264,721,l),
(344,628,l)
);
}
);
userData = {
assembly = "PUSHB[ ]	/* 2 values pushed */
6 100 
WCVTP[ ]	/* WriteCVTInPixels */
NPUSHB[ ]	/* 16 values pushed */
0 1 0 1 133 2 1 0 0 118 17 17 17 3 8 25 
CALL[ ]	/* CallFunction */
PUSHB[ ]	/* 2 values pushed */
6 0 
WCVTP[ ]	/* WriteCVTInPixels */";
};
width = 529;
}
);
note = circumflex;
unicode = 710;
},
{
glyphname = uni0326;
layers = (
{
layerId = m01;
shapes = (
{
closed = 1;
nodes = (
(-343,-120,o),
(-343,-142,qs),
(-343,-166,o),
(-314,-195,o),
(-289,-193,q),
(-294,-222,o),
(-323,-264,o),
(-345,-278,q),
(-329,-304,l),
(-286,-286,o),
(-236,-203,o),
(-237,-160,qs),
(-236,-130,o),
(-264,-91,o),
(-291,-91,qs),
(-314,-91,o)
);
}
);
userData = {
assembly = "PUSHB[ ]	/* 2 values pushed */
6 100 
WCVTP[ ]	/* WriteCVTInPixels */
NPUSHB[ ]	/* 20 values pushed */
10 7 6 3 0 73 1 1 0 0 118 1 0 0 15 1 15 2 8 22 
CALL[ ]	/* CallFunction */
PUSHB[ ]	/* 2 values pushed */
6 0 
WCVTP[ ]	/* WriteCVTInPixels */";
};
width = 0;
}
);
note = uni0326;
unicode = 806;
},
{
glyphname = abreve;
kernLeft = abreve;
layers = (
{
layerId = m01;
shapes = (
{
closed = 1;
nodes = (
(230,674,o),
(200,689,o),
(179,717,o),
(176,740,q),
(115,740,l),
(118,705,o),
(147,658,o),
(192,629,o),
(250,617,o),
(281,617,qs),
(312,617,o),
(370,629,o),
(417,658,o),
(448,705,o),
(451,740,q),
(390,740,l),
(387,717,o),
(366,689,o),
(336,674,o),
(300,668,o),
(283,668,qs),
(266,668,o)
);
},
{
closed = 1;
nodes = (
(493,0,l),
(493,286,ls),
(493,338,o),
(472,428,o),
(423,495,o),
(343,533,o),
(285,533,qs),
(253,533,o),
(187,520,o),
(131,492,o),
(89,447,o),
(80,414,q),
(152,414,l),
(161,432,o),
(190,457,o),
(225,471,o),
(264,477,o),
(283,477,qs),
(323,477,o),
(378,449,o),
(412,401,o),
(427,337,o),
(427,301,q),
(254,301,ls),
(215,301,o),
(143,286,o),
(88,250,o),
(54,190,o),
(54,145,qs),
(54,106,o),
(85,50,o),
(136,12,o),
(202,-6,o),
(237,-6,qs),
(295,-6,o),
(392,29,o),
(430,76,q),
(439,0,l)
);
},
{
closed = 1;
nodes = (
(427,212,ls),
(427,171,o),
(400,110,o),
(351,69,o),
(284,49,o),
(245,49,qs),
(221,49,o),
(176,61,o),
(141,87,o),
(120,125,o),
(120,152,qs),
(120,186,o),
(153,225,o),
(203,244,o),
(262,248,o),
(288,248,qs),
(427,248,l)
);
}
);
userData = {
assembly = "MPPEM[ ]	/* MeasurePixelPerEm */
PUSHB[ ]	/* 1 value pushed */
39 
LT[ ]	/* LessThan */
IF[ ]	/* If */
NPUSHB[ ]	/* 49 values pushed */
12 1 0 0 2 8 0 2 105 3 1 1 0 7 5 1 7 103 0 5 13 1 10 11 5 10 104 0 6 6 8 97 0 8 8 49 77 0 11 11 4 97 9 1 4 4 50 4 78 
ELSE[ ]	/* Else */
NPUSHB[ ]	/* 53 values pushed */
12 1 0 0 2 8 0 2 105 3 1 1 0 7 5 1 7 103 0 5 13 1 10 11 5 10 104 0 6 6 8 97 0 8 8 49 77 0 9 9 39 77 0 11 11 4 97 0 4 4 50 4 78 
EIF[ ]	/* EndIf */
NPUSHB[ ]	/* 35 values pushed */
62 60 1 0 71 69 60 76 62 76 59 58 53 51 47 46 42 40 36 34 26 24 17 16 12 10 6 5 0 21 1 21 14 8 22 
CALL[ ]	/* CallFunction */";
};
width = 563;
}
);
note = abreve;
unicode = 259;
},
{
glyphname = acircumflex;
kernLeft = abreve;
layers = (
{
layerId = m01;
shapes = (
{
closed = 1;
nodes = (
(432,623,l),
(309,769,l),
(268,769,l),
(145,623,l),
(210,623,l),
(288,720,l),
(370,623,l)
);
},
{
closed = 1;
nodes = (
(493,0,l),
(493,286,ls),
(493,338,o),
(472,428,o),
(423,495,o),
(343,533,o),
(285,533,qs),
(253,533,o),
(187,520,o),
(131,492,o),
(89,447,o),
(80,414,q),
(152,414,l),
(161,432,o),
(190,457,o),
(225,471,o),
(264,477,o),
(283,477,qs),
(323,477,o),
(378,449,o),
(412,401,o),
(427,337,o),
(427,301,q),
(254,301,ls),
(215,301,o),
(143,286,o),
(88,250,o),
(54,190,o),
(54,145,qs),
(54,106,o),
(85,50,o),
(136,12,o),
(202,-6,o),
(237,-6,qs),
(295,-6,o),
(392,29,o),
(430,76,q),
(439,0,l)
);
},
{
closed = 1;
nodes = (
(427,212,ls),
(427,171,o),
(400,110,o),
(351,69,o),
(284,49,o),
(245,49,qs),
(221,49,o),
(176,61,o),
(141,87,o),
(120,125,o),
(120,152,qs),
(120,186,o),
(153,225,o),
(203,244,o),
(262,248,o),
(288,248,qs),
(427,248,l)
);
}
);
userData = {
assembly = "MPPEM[ ]	/* MeasurePixelPerEm */
PUSHB[ ]	/* 1 value pushed */
39 
LT[ ]	/* LessThan */
IF[ ]	/* If */
NPUSHB[ ]	/* 50 values pushed */
0 1 0 1 133 2 1 0 7 0 133 0 6 5 4 5 6 4 128 0 4 11 1 9 10 4 9 103 0 5 5 7 97 0 7 7 49 77 0 10 10 3 97 8 1 3 3 50 3 78 
ELSE[ ]	/* Else */
NPUSHB[ ]	/* 54 values pushed */
0 1 0 1 133 2 1 0 7 0 133 0 6 5 4 5 6 4 128 0 4 11 1 9 10 4 9 103 0 5 5 7 97 0 7 7 49 77 0 8 8 39 77 0 10 10 3 97 0 3 3 50 3 78 
EIF[ ]	/* EndIf */
NPUSHB[ ]	/* 20 values pushed */
47 45 56 54 45 61 47 61 21 36 20 36 40 35 17 17 17 12 8 31 
CALL[ ]	/* CallFunction */";
};
width = 563;
}
);
note = acircumflex;
unicode = 226;
},
{
glyphname = Abreve;
layers = (
{
layerId = m01;
shapes = (
{
closed = 1;
nodes = (
(273,861,o),
(243,876,o),
(222,904,o),
(219,927,q),
(158,927,l),
(161,892,o),
(190,845,o),
(235,816,o),
(293,804,o),
(324,804,qs),
(355,804,o),
(413,816,o),
(460,845,o),
(491,892,o),
(494,927,q),
(433,927,l),
(430,904,o),
(409,876,o),
(379,861,o),
(343,855,o),
(326,855,qs),
(309,855,o)
);
},
{
closed = 1;
nodes = (
(560,0,l),
(633,0,l),
(370,707,l),
(279,707,l),
(15,0,l),
(88,0,l),
(146,157,l),
(502,157,l)
);
},
{
closed = 1;
nodes = (
(481,217,l),
(168,217,l),
(324,646,l)
);
}
);
userData = {
assembly = "NPUSHB[ ]	/* 71 values pushed */
32 1 8 5 1 76 3 1 1 0 1 133 9 1 0 0 2 5 0 2 105 0 8 10 1 7 4 8 7 104 0 5 5 38 77 6 1 4 4 39 4 78 22 22 1 0 31 30 22 29 22 29 28 27 26 25 24 23 17 16 12 10 6 5 0 21 1 21 11 8 22 
CALL[ ]	/* CallFunction */";
};
width = 648;
}
);
note = Abreve;
unicode = 258;
},
{
glyphname = Acircumflex;
kernLeft = A;
kernRight = A;
layers = (
{
layerId = m01;
shapes = (
{
closed = 1;
nodes = (
(560,0,l),
(633,0,l),
(370,707,l),
(279,707,l),
(15,0,l),
(88,0,l),
(146,157,l),
(502,157,l)
);
},
{
closed = 1;
nodes = (
(481,217,l),
(168,217,l),
(324,646,l)
);
},
{
closed = 1;
nodes = (
(469,786,l),
(346,927,l),
(305,927,l),
(182,786,l),
(247,786,l),
(325,879,l),
(405,786,l)
);
}
);
userData = {
assembly = "NPUSHB[ ]	/* 58 values pushed */
10 1 4 1 1 76 0 6 5 6 133 7 1 5 1 5 133 0 4 8 1 3 0 4 3 104 0 1 1 38 77 2 1 0 0 39 0 78 0 0 17 16 15 14 13 12 9 8 0 7 0 7 17 17 17 9 8 25 
CALL[ ]	/* CallFunction */";
};
width = 648;
}
);
note = Acircumflex;
unicode = 194;
},
{
glyphname = Icircumflex;
layers = (
{
layerId = m01;
shapes = (
{
closed = 1;
nodes = (
(223,800,l),
(100,946,l),
(59,946,l),
(-64,800,l),
(0,800,l),
(79,897,l),
(161,800,l)
);
},
{
closed = 1;
nodes = (
(46,707,l),
(46,0,l),
(111,0,l),
(111,707,l)
);
}
);
userData = {
assembly = "MPPEM[ ]	/* MeasurePixelPerEm */
PUSHB[ ]	/* 1 value pushed */
20 
LT[ ]	/* LessThan */
IF[ ]	/* If */
NPUSHB[ ]	/* 25 values pushed */
2 1 0 1 4 1 0 4 128 0 1 1 44 77 0 4 4 38 77 0 3 3 39 3 78 
ELSE[ ]	/* Else */
NPUSHB[ ]	/* 22 values pushed */
0 1 0 1 133 2 1 0 4 0 133 0 4 4 38 77 0 3 3 39 3 78 
EIF[ ]	/* EndIf */
PUSHB[ ]	/* 8 values pushed */
17 17 17 17 17 5 8 27 
CALL[ ]	/* CallFunction */";
};
width = 159;
}
);
note = Icircumflex;
unicode = 206;
},
{
glyphname = exclam;
layers = (
{
layerId = m01;
shapes = (
{
closed = 1;
nodes = (
(82,66,o),
(82,43,qs),
(82,20,o),
(109,-8,o),
(132,-8,qs),
(154,-8,o),
(181,21,o),
(181,43,qs),
(181,64,o),
(153,93,o),
(132,93,qs),
(109,93,o)
);
},
{
closed = 1;
nodes = (
(164,707,l),
(100,707,l),
(102,195,l),
(162,195,l)
);
}
);
userData = {
assembly = "NPUSHB[ ]	/* 42 values pushed */
5 1 3 3 2 95 0 2 2 38 77 4 1 0 0 1 97 0 1 1 47 1 78 12 12 1 0 12 15 12 15 14 13 7 5 0 11 1 11 6 8 22 
CALL[ ]	/* CallFunction */";
};
width = 263;
}
);
note = exclam;
unicode = 33;
},
{
glyphname = quotedbl;
layers = (
{
layerId = m01;
shapes = (
{
closed = 1;
nodes = (
(64,707,l),
(74,486,l),
(120,486,l),
(129,707,l)
);
},
{
closed = 1;
nodes = (
(206,707,l),
(216,486,l),
(262,486,l),
(271,707,l)
);
}
);
userData = {
assembly = "NPUSHB[ ]	/* 20 values pushed */
2 1 0 0 1 95 3 1 1 1 38 0 78 17 17 17 16 4 8 26 
CALL[ ]	/* CallFunction */";
};
width = 335;
}
);
note = quotedbl;
unicode = 34;
},
{
glyphname = quotesingle;
layers = (
{
layerId = m01;
shapes = (
{
closed = 1;
nodes = (
(72,707,l),
(81,486,l),
(127,486,l),
(137,707,l)
);
}
);
userData = {
assembly = "NPUSHB[ ]	/* 16 values pushed */
0 0 0 1 95 0 1 1 38 0 78 17 16 2 8 24 
CALL[ ]	/* CallFunction */";
};
width = 209;
}
);
note = quotesingle;
unicode = 39;
},
{
glyphname = numbersign;
layers = (
{
layerId = m01;
shapes = (
{
closed = 1;
nodes = (
(164,187,l),
(145,0,l),
(207,0,l),
(227,187,l),
(392,187,l),
(373,0,l),
(435,0,l),
(455,187,l),
(561,187,l),
(561,245,l),
(461,245,l),
(484,463,l),
(591,463,l),
(591,521,l),
(491,521,l),
(511,707,l),
(448,707,l),
(429,521,l),
(263,521,l),
(283,707,l),
(220,707,l),
(200,521,l),
(94,521,l),
(94,463,l),
(194,463,l),
(171,245,l),
(64,245,l),
(64,187,l)
);
},
{
closed = 1;
nodes = (
(422,463,l),
(400,245,l),
(233,245,l),
(256,463,l)
);
}
);
userData = {
assembly = "NPUSHB[ ]	/* 65 values pushed */
14 8 2 0 13 11 2 9 10 0 9 103 5 1 3 3 38 77 15 7 2 1 1 2 95 6 4 2 2 2 41 77 12 1 10 10 39 10 78 31 30 29 28 27 26 25 24 23 22 21 20 19 18 17 17 17 17 17 17 17 17 16 16 8 31 
CALL[ ]	/* CallFunction */";
};
width = 655;
}
);
note = numbersign;
unicode = 35;
},
{
glyphname = percent;
layers = (
{
layerId = m01;
shapes = (
{
closed = 1;
nodes = (
(659,707,l),
(584,707,l),
(149,0,l),
(225,0,l)
);
},
{
closed = 1;
nodes = (
(287,439,o),
(322,479,o),
(339,534,o),
(339,565,qs),
(339,596,o),
(322,650,o),
(288,691,o),
(237,715,o),
(203,715,qs),
(169,715,o),
(117,692,o),
(82,652,o),
(64,597,o),
(64,565,qs),
(64,533,o),
(82,478,o),
(118,438,o),
(170,415,o),
(203,415,qs),
(236,415,o)
);
},
{
closed = 1;
nodes = (
(255,641,o),
(273,614,o),
(280,581,o),
(280,565,qs),
(280,548,o),
(273,515,o),
(255,488,o),
(225,471,o),
(203,471,qs),
(180,471,o),
(149,487,o),
(130,514,o),
(121,547,o),
(121,565,qs),
(121,583,o),
(130,616,o),
(149,642,o),
(180,658,o),
(203,658,qs),
(225,658,o)
);
},
{
closed = 1;
nodes = (
(693,16,o),
(728,56,o),
(745,111,o),
(745,142,qs),
(745,173,o),
(728,227,o),
(694,268,o),
(643,292,o),
(609,292,qs),
(575,292,o),
(523,269,o),
(488,229,o),
(470,174,o),
(470,142,qs),
(470,110,o),
(488,55,o),
(524,15,o),
(576,-8,o),
(609,-8,qs),
(642,-8,o)
);
},
{
closed = 1;
nodes = (
(661,218,o),
(679,191,o),
(686,158,o),
(686,142,qs),
(686,125,o),
(679,92,o),
(661,65,o),
(631,48,o),
(609,48,qs),
(586,48,o),
(555,64,o),
(536,91,o),
(527,124,o),
(527,142,qs),
(527,160,o),
(536,193,o),
(555,219,o),
(586,235,o),
(609,235,qs),
(631,235,o)
);
}
);
userData = {
assembly = "MPPEM[ ]	/* MeasurePixelPerEm */
PUSHB[ ]	/* 1 value pushed */
29 
LT[ ]	/* LessThan */
IF[ ]	/* If */
NPUSHB[ ]	/* 44 values pushed */
0 5 11 1 2 7 5 2 105 0 7 14 1 8 9 7 8 106 12 1 4 4 0 97 3 1 0 0 38 77 0 9 9 1 97 13 6 10 3 1 1 39 1 78 
ELSE[ ]	/* Else */
NPUSHB[ ]	/* 52 values pushed */
0 5 11 1 2 7 5 2 105 0 7 14 1 8 9 7 8 106 0 0 0 38 77 12 1 4 4 3 97 0 3 3 46 77 10 1 1 1 39 77 0 9 9 6 97 13 1 6 6 47 6 78 
EIF[ ]	/* EndIf */
NPUSHB[ ]	/* 42 values pushed */
65 64 45 44 25 24 5 4 0 0 75 73 64 83 65 83 55 53 44 63 45 63 35 33 24 43 25 43 15 13 4 23 5 23 0 3 0 3 17 15 8 23 
CALL[ ]	/* CallFunction */";
};
width = 809;
}
);
note = percent;
unicode = 37;
},
{
glyphname = asterisk;
layers = (
{
layerId = m01;
shapes = (
{
closed = 1;
nodes = (
(186,738,l),
(186,637,l),
(89,668,l),
(74,619,l),
(170,587,l),
(110,506,l),
(151,476,l),
(211,558,l),
(271,476,l),
(312,506,l),
(252,587,l),
(349,619,l),
(331,668,l),
(236,637,l),
(236,738,l)
);
}
);
userData = {
assembly = "NPUSHB[ ]	/* 24 values pushed */
12 11 10 9 8 7 6 5 4 3 2 1 0 13 0 73 0 0 0 118 29 1 8 23 
CALL[ ]	/* CallFunction */";
};
width = 423;
}
);
note = asterisk;
unicode = 42;
},
{
glyphname = plus;
layers = (
{
layerId = m01;
shapes = (
{
closed = 1;
nodes = (
(225,385,l),
(79,385,l),
(79,325,l),
(225,325,l),
(225,165,l),
(290,165,l),
(290,325,l),
(439,325,l),
(439,385,l),
(290,385,l),
(290,542,l),
(225,542,l)
);
}
);
userData = {
assembly = "MPPEM[ ]	/* MeasurePixelPerEm */
PUSHB[ ]	/* 1 value pushed */
33 
LT[ ]	/* LessThan */
IF[ ]	/* If */
NPUSHB[ ]	/* 22 values pushed */
4 1 0 3 1 1 2 0 1 103 0 2 2 5 95 6 1 5 5 41 2 78 
ELSE[ ]	/* Else */
NPUSHB[ ]	/* 28 values pushed */
6 1 5 0 2 5 87 4 1 0 3 1 1 2 0 1 103 6 1 5 5 2 95 0 2 5 2 79 
EIF[ ]	/* EndIf */
NPUSHB[ ]	/* 14 values pushed */
0 0 0 11 0 11 17 17 17 17 17 7 8 27 
CALL[ ]	/* CallFunction */";
};
width = 518;
}
);
note = plus;
unicode = 43;
},
{
glyphname = slash;
layers = (
{
layerId = m01;
shapes = (
{
closed = 1;
nodes = (
(114,-173,l),
(426,804,l),
(356,804,l),
(44,-173,l)
);
}
);
userData = {
assembly = "MPPEM[ ]	/* MeasurePixelPerEm */
PUSHB[ ]	/* 1 value pushed */
16 
LT[ ]	/* LessThan */
IF[ ]	/* If */
NPUSHB[ ]	/* 11 values pushed */
0 0 1 0 133 0 1 1 43 1 78 
ELSE[ ]	/* Else */
NPUSHB[ ]	/* 9 values pushed */
0 0 1 0 133 0 1 1 118 
EIF[ ]	/* EndIf */
PUSHB[ ]	/* 5 values pushed */
17 16 2 8 24 
CALL[ ]	/* CallFunction */";
};
width = 470;
}
);
note = slash;
unicode = 47;
},
{
glyphname = colon;
kernLeft = colon;
layers = (
{
layerId = m01;
shapes = (
{
closed = 1;
nodes = (
(72,430,o),
(72,408,qs),
(72,386,o),
(100,356,o),
(123,356,qs),
(146,356,o),
(173,386,o),
(173,408,qs),
(173,430,o),
(146,459,o),
(123,459,qs),
(100,459,o)
);
},
{
closed = 1;
nodes = (
(72,66,o),
(72,44,qs),
(72,22,o),
(100,-8,o),
(123,-8,qs),
(146,-8,o),
(173,22,o),
(173,44,qs),
(173,66,o),
(146,94,o),
(123,94,qs),
(100,94,o)
);
}
);
userData = {
assembly = "NPUSHB[ ]	/* 40 values pushed */
4 1 0 0 1 2 0 1 105 5 1 2 2 3 97 0 3 3 47 3 78 13 12 1 0 19 17 12 23 13 23 7 5 0 11 1 11 6 8 22 
CALL[ ]	/* CallFunction */";
};
width = 245;
}
);
note = colon;
unicode = 58;
},
{
glyphname = semicolon;
kernLeft = colon;
layers = (
{
layerId = m01;
shapes = (
{
closed = 1;
nodes = (
(77,430,o),
(77,408,qs),
(77,386,o),
(104,356,o),
(127,356,qs),
(151,356,o),
(178,386,o),
(178,408,qs),
(178,430,o),
(150,459,o),
(127,459,qs),
(104,459,o)
);
},
{
closed = 1;
nodes = (
(74,66,o),
(74,44,qs),
(74,19,o),
(102,-10,o),
(128,-8,q),
(123,-37,o),
(94,-79,o),
(72,-93,q),
(88,-119,l),
(131,-101,o),
(180,-18,o),
(179,27,qs),
(180,54,o),
(155,93,o),
(126,94,qs),
(103,94,o)
);
}
);
userData = {
assembly = "NPUSHB[ ]	/* 47 values pushed */
22 19 18 3 2 73 4 1 2 1 2 134 3 1 0 1 1 0 89 3 1 0 0 1 97 0 1 0 1 81 13 12 1 0 12 27 13 27 7 5 0 11 1 11 5 8 22 
CALL[ ]	/* CallFunction */";
};
width = 252;
}
);
note = semicolon;
unicode = 59;
},
{
glyphname = less;
layers = (
{
layerId = m01;
shapes = (
{
closed = 1;
nodes = (
(367,111,l),
(367,182,l),
(114,353,l),
(367,519,l),
(367,590,l),
(44,367,l),
(44,333,l)
);
}
);
userData = {
assembly = "PUSHB[ ]	/* 4 values pushed */
5 1 1 50 
CALL[ ]	/* CallFunction */";
};
width = 441;
}
);
note = less;
unicode = 60;
},
{
glyphname = equal;
layers = (
{
layerId = m01;
shapes = (
{
closed = 1;
nodes = (
(465,191,l),
(465,251,l),
(74,251,l),
(74,191,l)
);
},
{
closed = 1;
nodes = (
(465,447,l),
(465,507,l),
(74,507,l),
(74,447,l)
);
}
);
userData = {
assembly = "MPPEM[ ]	/* MeasurePixelPerEm */
PUSHB[ ]	/* 1 value pushed */
26 
LT[ ]	/* LessThan */
IF[ ]	/* If */
NPUSHB[ ]	/* 18 values pushed */
0 0 0 1 0 1 99 0 3 3 2 95 0 2 2 41 3 78 
ELSE[ ]	/* Else */
NPUSHB[ ]	/* 24 values pushed */
0 2 0 3 0 2 3 103 0 0 1 1 0 87 0 0 0 1 95 0 1 0 1 79 
EIF[ ]	/* EndIf */
PUSHB[ ]	/* 7 values pushed */
17 17 17 16 4 8 26 
CALL[ ]	/* CallFunction */";
};
width = 539;
}
);
note = equal;
unicode = 61;
},
{
glyphname = greater;
layers = (
{
layerId = m01;
shapes = (
{
closed = 1;
nodes = (
(74,590,l),
(74,519,l),
(327,350,l),
(74,182,l),
(74,111,l),
(397,333,l),
(397,367,l)
);
}
);
userData = {
assembly = "PUSHB[ ]	/* 4 values pushed */
5 1 1 50 
CALL[ ]	/* CallFunction */";
};
width = 441;
}
);
note = greater;
unicode = 62;
},
{
glyphname = at;
layers = (
{
layerId = m01;
shapes = (
{
closed = 1;
nodes = (
(700,34,o),
(747,34,qs),
(796,34,o),
(863,80,o),
(904,155,o),
(921,249,o),
(921,296,qs),
(921,386,o),
(869,539,o),
(768,651,o),
(622,715,o),
(529,715,qs),
(421,715,o),
(251,642,o),
(135,511,o),
(75,333,o),
(76,228,qs),
(77,134,o),
(136,-17,o),
(245,-124,o),
(398,-184,o),
(492,-185,qs),
(521,-186,o),
(575,-183,o),
(603,-178,q),
(597,-117,l),
(573,-122,o),
(527,-126,o),
(502,-125,qs),
(418,-122,o),
(286,-69,o),
(193,25,o),
(144,156,o),
(144,236,qs),
(144,323,o),
(195,476,o),
(292,590,o),
(435,656,o),
(528,656,qs),
(614,656,o),
(741,595,o),
(823,491,o),
(862,352,o),
(860,274,qs),
(859,239,o),
(848,172,o),
(823,119,o),
(782,86,o),
(752,86,qs),
(728,86,o),
(699,105,o),
(682,135,o),
(676,173,o),
(676,193,qs),
(676,225,o),
(682,286,o),
(684,317,qs),
(687,351,o),
(698,428,o),
(702,462,q),
(644,462,l),
(636,407,l),
(628,426,o),
(600,453,o),
(565,471,o),
(526,479,o),
(507,479,qs),
(455,479,o),
(378,438,o),
(326,370,o),
(300,282,o),
(300,235,qs),
(300,195,o),
(320,124,o),
(361,70,o),
(425,39,o),
(468,39,qs),
(517,38,o),
(602,84,o),
(630,131,q),
(635,83,o)
);
},
{
closed = 1;
nodes = (
(377,336,o),
(412,390,o),
(466,423,o),
(504,423,qs),
(537,423,o),
(584,397,o),
(613,354,o),
(626,299,o),
(626,270,qs),
(626,240,o),
(605,177,o),
(566,122,o),
(512,91,o),
(479,91,qs),
(448,91,o),
(403,116,o),
(374,157,o),
(360,209,o),
(360,237,qs),
(360,270,o)
);
}
);
userData = {
assembly = "MPPEM[ ]	/* MeasurePixelPerEm */
PUSHB[ ]	/* 1 value pushed */
46 
LT[ ]	/* LessThan */
IF[ ]	/* If */
NPUSHB[ ]	/* 15 values pushed */
23 18 2 3 10 54 1 5 0 55 1 6 5 3 76 
ELSE[ ]	/* Else */
NPUSHB[ ]	/* 15 values pushed */
23 18 2 9 10 54 1 5 0 55 1 6 5 3 76 
EIF[ ]	/* EndIf */
MPPEM[ ]	/* MeasurePixelPerEm */
PUSHB[ ]	/* 1 value pushed */
16 
LT[ ]	/* LessThan */
IF[ ]	/* If */
NPUSHB[ ]	/* 47 values pushed */
0 2 1 10 1 2 10 128 0 1 0 10 3 1 10 105 9 1 3 8 1 0 5 3 0 105 0 4 4 7 97 0 7 7 46 77 0 5 5 6 97 0 6 6 43 6 78 
ELSE[ ]	/* Else */
MPPEM[ ]	/* MeasurePixelPerEm */
PUSHB[ ]	/* 1 value pushed */
46 
LT[ ]	/* LessThan */
IF[ ]	/* If */
NPUSHB[ ]	/* 44 values pushed */
0 2 1 10 1 2 10 128 0 1 0 10 3 1 10 105 9 1 3 8 1 0 5 3 0 105 0 5 0 6 5 6 101 0 4 4 7 97 0 7 7 46 4 78 
ELSE[ ]	/* Else */
NPUSHB[ ]	/* 49 values pushed */
0 2 1 10 1 2 10 128 0 1 0 10 9 1 10 105 0 9 3 0 9 89 0 3 8 1 0 5 3 0 105 0 5 0 6 5 6 101 0 4 4 7 97 0 7 7 46 4 78 
EIF[ ]	/* EndIf */
EIF[ ]	/* EndIf */
NPUSHB[ ]	/* 16 values pushed */
97 95 87 85 40 40 52 40 40 42 21 40 34 11 8 31 
CALL[ ]	/* CallFunction */";
};
width = 995;
}
);
note = at;
unicode = 64;
},
{
glyphname = bracketleft;
layers = (
{
layerId = m01;
shapes = (
{
closed = 1;
nodes = (
(277,-135,l),
(157,-135,l),
(157,737,l),
(277,737,l),
(277,793,l),
(92,793,l),
(92,-191,l),
(277,-191,l)
);
}
);
userData = {
assembly = "MPPEM[ ]	/* MeasurePixelPerEm */
PUSHB[ ]	/* 1 value pushed */
16 
LT[ ]	/* LessThan */
IF[ ]	/* If */
NPUSHB[ ]	/* 20 values pushed */
0 0 0 1 2 0 1 103 0 2 2 3 95 4 1 3 3 43 3 78 
ELSE[ ]	/* Else */
NPUSHB[ ]	/* 25 values pushed */
0 0 0 1 2 0 1 103 0 2 3 3 2 87 0 2 2 3 95 4 1 3 2 3 79 
EIF[ ]	/* EndIf */
NPUSHB[ ]	/* 12 values pushed */
0 0 0 7 0 7 17 17 17 5 8 25 
CALL[ ]	/* CallFunction */";
};
width = 317;
}
);
note = bracketleft;
unicode = 91;
},
{
glyphname = bracketright;
layers = (
{
layerId = m01;
shapes = (
{
closed = 1;
nodes = (
(40,737,l),
(159,737,l),
(159,-135,l),
(40,-135,l),
(40,-191,l),
(224,-191,l),
(224,793,l),
(40,793,l)
);
}
);
userData = {
assembly = "MPPEM[ ]	/* MeasurePixelPerEm */
PUSHB[ ]	/* 1 value pushed */
16 
LT[ ]	/* LessThan */
IF[ ]	/* If */
NPUSHB[ ]	/* 20 values pushed */
4 1 3 0 2 1 3 2 103 0 1 1 0 95 0 0 0 43 0 78 
ELSE[ ]	/* Else */
NPUSHB[ ]	/* 25 values pushed */
4 1 3 0 2 1 3 2 103 0 1 0 0 1 87 0 1 1 0 95 0 0 1 0 79 
EIF[ ]	/* EndIf */
NPUSHB[ ]	/* 12 values pushed */
0 0 0 7 0 7 17 17 17 5 8 25 
CALL[ ]	/* CallFunction */";
};
width = 316;
}
);
note = bracketright;
unicode = 93;
},
{
glyphname = backslash;
layers = (
{
layerId = m01;
shapes = (
{
closed = 1;
nodes = (
(356,-173,l),
(426,-173,l),
(114,804,l),
(44,804,l)
);
}
);
userData = {
assembly = "MPPEM[ ]	/* MeasurePixelPerEm */
PUSHB[ ]	/* 1 value pushed */
16 
LT[ ]	/* LessThan */
IF[ ]	/* If */
NPUSHB[ ]	/* 12 values pushed */
2 1 1 0 1 133 0 0 0 43 0 78 
ELSE[ ]	/* Else */
NPUSHB[ ]	/* 10 values pushed */
2 1 1 0 1 133 0 0 0 118 
EIF[ ]	/* EndIf */
NPUSHB[ ]	/* 10 values pushed */
0 0 0 3 0 3 17 3 8 23 
CALL[ ]	/* CallFunction */";
};
width = 470;
}
);
note = backslash;
unicode = 92;
},
{
glyphname = asciicircum;
layers = (
{
layerId = m01;
shapes = (
{
closed = 1;
nodes = (
(369,528,l),
(238,715,l),
(195,715,l),
(64,528,l),
(126,528,l),
(216,663,l),
(308,528,l)
);
}
);
userData = {
assembly = "PUSHB[ ]	/* 2 values pushed */
6 100 
WCVTP[ ]	/* WriteCVTInPixels */
NPUSHB[ ]	/* 16 values pushed */
0 1 0 1 133 2 1 0 0 118 17 17 17 3 8 25 
CALL[ ]	/* CallFunction */
PUSHB[ ]	/* 2 values pushed */
6 0 
WCVTP[ ]	/* WriteCVTInPixels */";
};
width = 433;
}
);
note = asciicircum;
unicode = 94;
},
{
glyphname = underscore;
layers = (
{
layerId = m01;
shapes = (
{
closed = 1;
nodes = (
(461,-182,l),
(461,-122,l),
(2,-122,l),
(2,-182,l)
);
}
);
userData = {
assembly = "PUSHB[ ]	/* 2 values pushed */
6 100 
WCVTP[ ]	/* WriteCVTInPixels */
NPUSHB[ ]	/* 21 values pushed */
0 0 1 1 0 87 0 0 0 1 95 0 1 0 1 79 17 16 2 8 24 
CALL[ ]	/* CallFunction */
PUSHB[ ]	/* 2 values pushed */
6 0 
WCVTP[ ]	/* WriteCVTInPixels */";
};
width = 463;
}
);
note = underscore;
unicode = 95;
},
{
glyphname = braceleft;
layers = (
{
layerId = m01;
shapes = (
{
closed = 1;
nodes = (
(204,212,o),
(168,280,o),
(121,302,q),
(166,323,o),
(204,392,o),
(204,440,qs),
(204,652,ls),
(204,668,o),
(206,714,o),
(217,727,qs),
(228,740,o),
(263,742,o),
(280,742,qs),
(320,742,l),
(320,793,l),
(252,793,ls),
(225,793,o),
(184,783,o),
(170,771,qs),
(143,747,o),
(143,694,qs),
(143,469,ls),
(143,442,o),
(135,391,o),
(113,351,o),
(74,326,o),
(42,324,q),
(42,278,l),
(75,276,o),
(114,251,o),
(136,212,o),
(143,162,o),
(143,134,qs),
(143,-91,ls),
(143,-144,o),
(171,-169,qs),
(197,-191,o),
(252,-191,qs),
(320,-191,l),
(320,-140,l),
(291,-140,ls),
(264,-140,o),
(229,-136,o),
(219,-125,qs),
(209,-115,o),
(204,-87,o),
(204,-61,qs),
(204,162,ls)
);
}
);
userData = {
assembly = "PUSHB[ ]	/* 6 values pushed */
44 1 2 3 1 76 
MPPEM[ ]	/* MeasurePixelPerEm */
PUSHB[ ]	/* 1 value pushed */
16 
LT[ ]	/* LessThan */
IF[ ]	/* If */
NPUSHB[ ]	/* 27 values pushed */
0 4 0 5 3 4 5 105 0 3 0 2 0 3 2 105 0 0 0 1 97 0 1 1 43 1 78 
ELSE[ ]	/* Else */
NPUSHB[ ]	/* 32 values pushed */
0 4 0 5 3 4 5 105 0 3 0 2 0 3 2 105 0 0 1 1 0 89 0 0 0 1 97 0 1 0 1 81 
EIF[ ]	/* EndIf */
NPUSHB[ ]	/* 9 values pushed */
49 41 17 24 33 37 6 8 28 
CALL[ ]	/* CallFunction */";
};
width = 384;
}
);
note = braceleft;
unicode = 123;
},
{
glyphname = bar;
layers = (
{
layerId = m01;
shapes = (
{
closed = 1;
nodes = (
(157,804,l),
(92,804,l),
(92,-173,l),
(157,-173,l)
);
}
);
userData = {
assembly = "MPPEM[ ]	/* MeasurePixelPerEm */
PUSHB[ ]	/* 1 value pushed */
16 
LT[ ]	/* LessThan */
IF[ ]	/* If */
NPUSHB[ ]	/* 12 values pushed */
0 0 1 0 133 2 1 1 1 43 1 78 
ELSE[ ]	/* Else */
NPUSHB[ ]	/* 10 values pushed */
0 0 1 0 133 2 1 1 1 118 
EIF[ ]	/* EndIf */
NPUSHB[ ]	/* 10 values pushed */
0 0 0 3 0 3 17 3 8 23 
CALL[ ]	/* CallFunction */";
};
width = 249;
}
);
note = bar;
unicode = 124;
},
{
glyphname = braceright;
layers = (
{
layerId = m01;
shapes = (
{
closed = 1;
nodes = (
(180,390,o),
(216,322,o),
(263,300,q),
(218,279,o),
(180,210,o),
(180,162,qs),
(180,-54,ls),
(180,-80,o),
(178,-111,o),
(167,-125,qs),
(157,-137,o),
(121,-140,o),
(104,-140,qs),
(64,-140,l),
(64,-191,l),
(132,-191,ls),
(185,-191,o),
(212,-170,qs),
(241,-147,o),
(241,-92,qs),
(241,133,ls),
(241,160,o),
(249,211,o),
(271,251,o),
(310,276,o),
(342,278,q),
(342,324,l),
(309,326,o),
(269,351,o),
(248,390,o),
(241,440,o),
(241,468,qs),
(241,693,ls),
(241,747,o),
(212,771,qs),
(187,793,o),
(132,793,qs),
(64,793,l),
(64,742,l),
(92,742,ls),
(120,742,o),
(154,738,o),
(165,727,qs),
(174,717,o),
(180,688,o),
(180,663,qs),
(180,440,ls)
);
}
);
userData = {
assembly = "PUSHB[ ]	/* 6 values pushed */
43 1 3 2 1 76 
MPPEM[ ]	/* MeasurePixelPerEm */
PUSHB[ ]	/* 1 value pushed */
16 
LT[ ]	/* LessThan */
IF[ ]	/* If */
NPUSHB[ ]	/* 27 values pushed */
0 1 0 0 2 1 0 105 0 2 0 3 5 2 3 105 0 5 5 4 97 0 4 4 43 4 78 
ELSE[ ]	/* Else */
NPUSHB[ ]	/* 32 values pushed */
0 1 0 0 2 1 0 105 0 2 0 3 5 2 3 105 0 5 4 4 5 89 0 5 5 4 97 0 4 5 4 81 
EIF[ ]	/* EndIf */
NPUSHB[ ]	/* 9 values pushed */
33 40 17 24 33 37 6 8 28 
CALL[ ]	/* CallFunction */";
};
width = 384;
}
);
note = braceright;
unicode = 125;
},
{
glyphname = Euro;
layers = (
{
layerId = m01;
shapes = (
{
closed = 1;
nodes = (
(590,21,o),
(628,56,q),
(594,103,l),
(559,74,o),
(488,51,o),
(443,51,qs),
(355,51,o),
(239,148,o),
(222,232,q),
(463,232,l),
(472,292,l),
(213,292,l),
(208,321,o),
(210,389,o),
(214,418,q),
(496,418,l),
(505,478,l),
(224,478,l),
(234,517,o),
(271,582,o),
(324,629,o),
(392,656,o),
(434,656,qs),
(478,656,o),
(549,634,o),
(584,607,q),
(616,658,l),
(577,688,o),
(489,715,o),
(437,715,qs),
(380,715,o),
(288,681,o),
(220,619,o),
(172,532,o),
(159,478,q),
(64,478,l),
(54,418,l),
(151,418,l),
(147,386,o),
(146,324,o),
(149,292,q),
(63,292,l),
(54,232,l),
(154,232,l),
(176,120,o),
(319,-8,o),
(438,-8,qs),
(489,-8,o)
);
}
);
userData = {
assembly = "NPUSHB[ ]	/* 88 values pushed */
20 1 6 5 21 1 4 6 45 44 2 11 1 3 76 7 1 4 8 1 3 2 4 3 103 9 1 2 10 1 1 11 2 1 103 0 6 6 5 97 0 5 5 46 77 0 11 11 0 97 12 1 0 0 47 0 78 1 0 42 40 38 37 36 35 32 31 30 29 25 23 18 16 12 11 10 9 6 5 4 3 0 47 1 47 13 8 22 
CALL[ ]	/* CallFunction */";
};
width = 682;
}
);
note = Euro;
unicode = 8364;
},
{
glyphname = quotedblbase;
kernLeft = period;
kernRight = period;
layers = (
{
layerId = m01;
shapes = (
{
closed = 1;
nodes = (
(74,66,o),
(74,44,qs),
(74,19,o),
(102,-10,o),
(128,-8,q),
(123,-37,o),
(94,-79,o),
(72,-93,q),
(88,-119,l),
(131,-101,o),
(180,-18,o),
(179,29,qs),
(180,53,o),
(152,94,o),
(126,94,qs),
(104,95,o)
);
},
{
closed = 1;
nodes = (
(257,66,o),
(257,44,qs),
(257,19,o),
(285,-10,o),
(311,-8,q),
(306,-37,o),
(277,-79,o),
(255,-93,q),
(271,-119,l),
(314,-101,o),
(363,-18,o),
(362,29,qs),
(363,53,o),
(335,94,o),
(309,94,qs),
(287,95,o)
);
}
);
userData = {
assembly = "NPUSHB[ ]	/* 31 values pushed */
26 23 22 10 7 6 6 0 73 3 1 2 3 0 0 118 17 16 1 0 16 31 17 31 0 15 1 15 4 8 22 
CALL[ ]	/* CallFunction */";
};
width = 436;
}
);
note = quotedblbase;
unicode = 8222;
},
{
glyphname = quotesinglbase;
layers = (
{
layerId = m01;
shapes = (
{
closed = 1;
nodes = (
(74,66,o),
(74,44,qs),
(74,19,o),
(102,-10,o),
(128,-8,q),
(123,-37,o),
(94,-79,o),
(72,-93,q),
(88,-119,l),
(131,-101,o),
(180,-18,o),
(179,29,qs),
(180,53,o),
(152,94,o),
(126,94,qs),
(104,95,o)
);
}
);
userData = {
assembly = "NPUSHB[ ]	/* 20 values pushed */
10 7 6 3 0 73 1 1 0 0 118 1 0 0 15 1 15 2 8 22 
CALL[ ]	/* CallFunction */";
};
width = 253;
}
);
note = quotesinglbase;
unicode = 8218;
},
{
glyphname = quotedblright;
layers = (
{
layerId = m01;
shapes = (
{
closed = 1;
nodes = (
(74,703,o),
(74,681,qs),
(74,657,o),
(102,628,o),
(128,630,q),
(123,601,o),
(94,559,o),
(72,544,q),
(88,518,l),
(131,537,o),
(180,620,o),
(179,665,qs),
(180,690,o),
(155,731,o),
(126,732,qs),
(103,732,o)
);
},
{
closed = 1;
nodes = (
(257,703,o),
(257,681,qs),
(257,657,o),
(286,628,o),
(312,630,q),
(307,601,o),
(277,559,o),
(256,544,q),
(272,518,l),
(314,537,o),
(364,620,o),
(363,665,qs),
(364,690,o),
(339,731,o),
(310,732,qs),
(287,732,o)
);
}
);
userData = {
assembly = "NPUSHB[ ]	/* 9 values pushed */
26 23 22 10 7 6 6 0 73 
MPPEM[ ]	/* MeasurePixelPerEm */
PUSHB[ ]	/* 1 value pushed */
35 
LT[ ]	/* LessThan */
IF[ ]	/* If */
NPUSHB[ ]	/* 9 values pushed */
3 1 2 3 0 0 48 0 78 
ELSE[ ]	/* Else */
PUSHB[ ]	/* 7 values pushed */
3 1 2 3 0 0 118 
EIF[ ]	/* EndIf */
NPUSHB[ ]	/* 15 values pushed */
17 16 1 0 16 31 17 31 0 15 1 15 4 8 22 
CALL[ ]	/* CallFunction */";
};
width = 437;
}
);
note = quotedblright;
unicode = 8221;
},
{
glyphname = quoteright;
layers = (
{
layerId = m01;
shapes = (
{
closed = 1;
nodes = (
(74,703,o),
(74,681,qs),
(74,657,o),
(102,628,o),
(128,630,q),
(123,601,o),
(94,559,o),
(72,544,q),
(88,518,l),
(131,537,o),
(180,620,o),
(179,665,q),
(181,688,o),
(155,731,o),
(126,732,qs),
(103,732,o)
);
}
);
userData = {
assembly = "PUSHB[ ]	/* 7 values pushed */
10 7 6 3 4 0 73 
MPPEM[ ]	/* MeasurePixelPerEm */
PUSHB[ ]	/* 1 value pushed */
35 
LT[ ]	/* LessThan */
IF[ ]	/* If */
PUSHB[ ]	/* 7 values pushed */
1 1 0 0 48 0 78 
ELSE[ ]	/* Else */
PUSHB[ ]	/* 5 values pushed */
1 1 0 0 118 
EIF[ ]	/* EndIf */
NPUSHB[ ]	/* 9 values pushed */
1 0 0 15 1 15 2 8 22 
CALL[ ]	/* CallFunction */";
};
width = 253;
}
);
note = quoteright;
unicode = 8217;
},
{
glyphname = quotedblleft;
layers = (
{
layerId = m01;
shapes = (
{
closed = 1;
nodes = (
(363,556,o),
(363,578,qs),
(363,602,o),
(335,631,o),
(309,629,q),
(314,658,o),
(343,700,o),
(365,714,q),
(349,740,l),
(328,731,o),
(294,700,o),
(270,661,o),
(257,616,o),
(258,594,qs),
(257,569,o),
(282,528,o),
(311,527,qs),
(334,526,o)
);
},
{
closed = 1;
nodes = (
(180,556,o),
(180,578,qs),
(180,602,o),
(151,631,o),
(126,629,q),
(131,658,o),
(160,700,o),
(181,714,q),
(165,740,l),
(144,731,o),
(110,700,o),
(86,661,o),
(73,616,o),
(74,594,qs),
(74,569,o),
(98,528,o),
(127,527,qs),
(150,526,o)
);
}
);
userData = {
assembly = "NPUSHB[ ]	/* 31 values pushed */
30 27 26 12 9 8 6 0 74 3 1 2 3 0 0 118 19 18 1 0 18 35 19 35 0 17 1 17 4 8 22 
CALL[ ]	/* CallFunction */";
};
width = 437;
}
);
note = quotedblleft;
unicode = 8220;
},
{
glyphname = quoteleft;
layers = (
{
layerId = m01;
shapes = (
{
closed = 1;
nodes = (
(180,556,o),
(180,578,qs),
(180,602,o),
(151,631,o),
(126,629,q),
(131,658,o),
(160,700,o),
(181,714,q),
(165,740,l),
(144,731,o),
(110,700,o),
(86,661,o),
(73,616,o),
(74,594,qs),
(74,568,o),
(99,528,o),
(128,527,qs),
(151,526,o)
);
}
);
userData = {
assembly = "NPUSHB[ ]	/* 20 values pushed */
12 9 8 3 0 74 1 1 0 0 118 1 0 0 17 1 17 2 8 22 
CALL[ ]	/* CallFunction */";
};
width = 253;
}
);
note = quoteleft;
unicode = 8216;
},
{
glyphname = minus;
layers = (
{
layerId = m01;
shapes = (
{
closed = 1;
nodes = (
(79,325,l),
(439,325,l),
(439,385,l),
(79,385,l)
);
}
);
userData = {
assembly = "NPUSHB[ ]	/* 28 values pushed */
2 1 1 0 0 1 87 2 1 1 1 0 95 0 0 1 0 79 0 0 0 3 0 3 17 3 6 23 
CALL[ ]	/* CallFunction */";
};
width = 518;
}
);
note = minus;
unicode = 8722;
},
{
glyphname = hyphen;
layers = (
{
layerId = m01;
shapes = (
{
closed = 1;
nodes = (
(374,251,l),
(374,311,l),
(79,311,l),
(79,251,l)
);
}
);
userData = {
assembly = "NPUSHB[ ]	/* 21 values pushed */
0 0 1 1 0 87 0 0 0 1 95 0 1 0 1 79 17 16 2 8 24 
CALL[ ]	/* CallFunction */";
};
width = 453;
}
);
note = hyphen;
unicode = 45;
},
{
glyphname = endash;
layers = (
{
layerId = m01;
shapes = (
{
closed = 1;
nodes = (
(79,311,l),
(79,251,l),
(497,251,l),
(497,311,l)
);
}
);
userData = {
assembly = "NPUSHB[ ]	/* 21 values pushed */
0 1 0 0 1 87 0 1 1 0 95 0 0 1 0 79 17 16 2 8 24 
CALL[ ]	/* CallFunction */";
};
width = 576;
}
);
note = endash;
unicode = 8211;
},
{
glyphname = emdash;
layers = (
{
layerId = m01;
shapes = (
{
closed = 1;
nodes = (
(79,311,l),
(79,251,l),
(684,251,l),
(684,311,l)
);
}
);
userData = {
assembly = "NPUSHB[ ]	/* 21 values pushed */
0 1 0 0 1 87 0 1 1 0 95 0 0 1 0 79 17 16 2 8 24 
CALL[ ]	/* CallFunction */";
};
width = 763;
}
);
note = emdash;
unicode = 8212;
},
{
glyphname = grave;
layers = (
{
layerId = m01;
shapes = (
{
closed = 1;
nodes = (
(151,628,l),
(206,628,l),
(122,769,l),
(54,769,l)
);
}
);
userData = {
assembly = "PUSHB[ ]	/* 2 values pushed */
6 100 
WCVTP[ ]	/* WriteCVTInPixels */
NPUSHB[ ]	/* 20 values pushed */
2 1 1 0 1 133 0 0 0 118 0 0 0 3 0 3 17 3 8 23 
CALL[ ]	/* CallFunction */
PUSHB[ ]	/* 2 values pushed */
6 0 
WCVTP[ ]	/* WriteCVTInPixels */";
};
width = 320;
}
);
note = grave;
unicode = 96;
},
{
glyphname = acute;
layers = (
{
layerId = m01;
shapes = (
{
closed = 1;
nodes = (
(169,628,l),
(268,769,l),
(200,769,l),
(114,628,l)
);
}
);
userData = {
assembly = "PUSHB[ ]	/* 2 values pushed */
6 100 
WCVTP[ ]	/* WriteCVTInPixels */
NPUSHB[ ]	/* 14 values pushed */
0 0 1 0 133 0 1 1 118 17 16 2 8 24 
CALL[ ]	/* CallFunction */
PUSHB[ ]	/* 2 values pushed */
6 0 
WCVTP[ ]	/* WriteCVTInPixels */";
};
width = 322;
}
);
note = acute;
unicode = 180;
},
{
glyphname = guillemotright;
layers = (
{
layerId = m01;
shapes = (
{
closed = 1;
nodes = (
(64,93,l),
(129,93,l),
(241,262,l),
(129,429,l),
(64,429,l),
(175,261,l)
);
},
{
closed = 1;
nodes = (
(245,93,l),
(310,93,l),
(422,262,l),
(310,429,l),
(245,429,l),
(356,261,l)
);
}
);
userData = {
assembly = "NPUSHB[ ]	/* 35 values pushed */
11 8 5 2 4 1 0 1 76 2 1 0 1 1 0 87 2 1 0 0 1 95 3 1 1 0 1 79 18 18 18 16 4 8 26 
CALL[ ]	/* CallFunction */";
};
width = 466;
}
);
note = guillemotright;
unicode = 187;
},
{
glyphname = guilsinglright;
layers = (
{
layerId = m01;
shapes = (
{
closed = 1;
nodes = (
(64,93,l),
(129,93,l),
(241,262,l),
(129,429,l),
(64,429,l),
(175,261,l)
);
}
);
userData = {
assembly = "NPUSHB[ ]	/* 28 values pushed */
5 2 2 1 0 1 76 0 0 1 1 0 87 0 0 0 1 95 0 1 0 1 79 18 16 2 8 24 
CALL[ ]	/* CallFunction */";
};
width = 285;
}
);
note = guilsinglright;
unicode = 8250;
},
{
glyphname = guillemotleft;
layers = (
{
layerId = m01;
shapes = (
{
closed = 1;
nodes = (
(402,429,l),
(337,429,l),
(225,260,l),
(337,93,l),
(402,93,l),
(291,261,l)
);
},
{
closed = 1;
nodes = (
(221,429,l),
(156,429,l),
(44,260,l),
(156,93,l),
(221,93,l),
(110,261,l)
);
}
);
userData = {
assembly = "NPUSHB[ ]	/* 35 values pushed */
11 8 5 2 4 0 1 1 76 3 1 1 0 0 1 87 3 1 1 1 0 95 2 1 0 1 0 79 18 18 18 16 4 8 26 
CALL[ ]	/* CallFunction */";
};
width = 466;
}
);
note = guillemotleft;
unicode = 171;
},
{
glyphname = guilsinglleft;
layers = (
{
layerId = m01;
shapes = (
{
closed = 1;
nodes = (
(221,429,l),
(156,429,l),
(44,260,l),
(156,93,l),
(221,93,l),
(110,261,l)
);
}
);
userData = {
assembly = "NPUSHB[ ]	/* 28 values pushed */
5 2 2 0 1 1 76 0 1 0 0 1 87 0 1 1 0 95 0 0 1 0 79 18 16 2 8 24 
CALL[ ]	/* CallFunction */";
};
width = 285;
}
);
note = guilsinglleft;
unicode = 8249;
},
{
glyphname = uni00AD;
layers = (
{
layerId = m01;
shapes = (
{
closed = 1;
nodes = (
(374,251,l),
(374,311,l),
(79,311,l),
(79,251,l)
);
}
);
userData = {
assembly = "NPUSHB[ ]	/* 21 values pushed */
0 0 1 1 0 87 0 0 0 1 95 0 1 0 1 79 17 16 2 8 24 
CALL[ ]	/* CallFunction */";
};
width = 453;
}
);
note = uni00AD;
unicode = 173;
},
{
glyphname = ellipsis;
layers = (
{
layerId = m01;
shapes = (
{
closed = 1;
nodes = (
(62,66,o),
(62,44,qs),
(62,22,o),
(89,-8,o),
(112,-8,qs),
(136,-8,o),
(163,22,o),
(163,44,qs),
(163,66,o),
(135,94,o),
(112,94,qs),
(89,94,o)
);
},
{
closed = 1;
nodes = (
(537,66,o),
(537,44,qs),
(537,22,o),
(564,-8,o),
(588,-8,qs),
(611,-8,o),
(638,22,o),
(638,44,qs),
(638,66,o),
(611,94,o),
(588,94,qs),
(565,94,o)
);
},
{
closed = 1;
nodes = (
(300,66,o),
(300,44,qs),
(300,22,o),
(327,-8,o),
(350,-8,qs),
(373,-8,o),
(401,22,o),
(401,44,qs),
(401,66,o),
(373,94,o),
(350,94,qs),
(327,94,o)
);
}
);
userData = {
assembly = "NPUSHB[ ]	/* 45 values pushed */
8 4 7 2 6 5 0 0 1 97 5 3 2 1 1 47 1 78 25 24 13 12 1 0 31 29 24 35 25 35 19 17 12 23 13 23 7 5 0 11 1 11 9 8 22 
CALL[ ]	/* CallFunction */";
};
width = 700;
}
);
note = ellipsis;
unicode = 8230;
},
{
glyphname = uni0445;
layers = (
{
layerId = m01;
shapes = (
{
closed = 1;
nodes = (
(489,0,l),
(297,266,l),
(476,527,l),
(396,527,l),
(255,312,l),
(111,527,l),
(28,527,l),
(209,267,l),
(19,0,l),
(97,0,l),
(251,219,l),
(407,0,l)
);
}
);
userData = {
assembly = "NPUSHB[ ]	/* 28 values pushed */
9 6 3 3 0 1 1 76 2 1 1 1 22 77 3 1 0 0 21 0 78 18 18 18 17 4 7 26 
CALL[ ]	/* CallFunction */";
};
width = 508;
}
);
note = uni0445;
unicode = 1093;
},
{
glyphname = uni0431;
layers = (
{
layerId = m01;
shapes = (
{
closed = 1;
nodes = (
(122,511,o),
(145,552,qs),
(170,595,o),
(248,629,o),
(294,636,qs),
(326,641,o),
(395,647,o),
(427,650,qs),
(447,652,o),
(489,657,o),
(509,662,q),
(509,724,l),
(479,718,o),
(443,713,o),
(431,712,qs),
(379,706,o),
(283,696,o),
(248,688,qs),
(215,680,o),
(156,653,o),
(132,631,qs),
(86,590,o),
(68,524,qs),
(49,460,o),
(49,350,qs),
(49,318,o),
(53,254,o),
(57,222,qs),
(63,171,o),
(96,87,o),
(153,27,o),
(234,-6,o),
(288,-6,qs),
(344,-6,o),
(433,32,o),
(494,100,o),
(527,193,o),
(527,247,qs),
(527,298,o),
(498,385,o),
(442,449,o),
(359,485,o),
(306,485,qs),
(244,485,o),
(140,432,o),
(110,377,q),
(109,422,o)
);
},
{
closed = 1;
nodes = (
(184,80,o),
(141,132,o),
(120,203,o),
(120,242,qs),
(120,279,o),
(146,346,o),
(192,398,o),
(256,429,o),
(294,429,qs),
(334,429,o),
(397,401,o),
(439,351,o),
(461,284,o),
(461,244,qs),
(461,205,o),
(439,134,o),
(396,80,o),
(332,49,o),
(290,49,qs),
(248,49,o)
);
}
);
userData = {
assembly = "NPUSHB[ ]	/* 44 values pushed */
0 1 2 3 1 76 35 34 2 0 74 0 0 0 3 2 0 3 105 4 1 2 2 1 97 0 1 1 30 1 78 48 47 58 56 47 66 48 66 40 34 5 7 24 
CALL[ ]	/* CallFunction */";
};
width = 575;
}
);
note = uni0431;
unicode = 1073;
},
{
glyphname = uni0432;
kernLeft = uni0432;
layers = (
{
layerId = m01;
shapes = (
{
closed = 1;
nodes = (
(311,0,ls),
(344,0,o),
(408,13,o),
(432,29,qs),
(461,47,o),
(496,108,o),
(496,152,qs),
(496,209,o),
(440,272,o),
(392,282,q),
(430,301,o),
(465,365,o),
(464,403,qs),
(463,444,o),
(426,493,o),
(371,519,o),
(304,527,o),
(274,527,qs),
(72,527,l),
(72,0,l)
);
},
{
closed = 1;
nodes = (
(294,472,o),
(340,467,o),
(378,449,o),
(401,415,o),
(401,387,qs),
(401,362,o),
(381,329,o),
(365,319,qs),
(346,306,o),
(292,297,o),
(272,297,qs),
(138,297,l),
(138,472,l),
(271,472,ls)
);
},
{
closed = 1;
nodes = (
(280,242,ls),
(306,242,o),
(359,237,o),
(403,217,o),
(430,179,o),
(430,145,qs),
(430,116,o),
(404,81,o),
(365,62,o),
(317,55,o),
(294,55,qs),
(138,55,l),
(138,242,l)
);
}
);
userData = {
assembly = "NPUSHB[ ]	/* 52 values pushed */
9 1 5 2 1 76 0 2 0 5 4 2 5 103 6 1 3 3 0 95 0 0 0 22 77 0 4 4 1 95 0 1 1 21 1 78 20 20 46 44 36 34 20 33 20 32 34 47 32 7 7 25 
CALL[ ]	/* CallFunction */";
};
width = 550;
}
);
note = uni0432;
unicode = 1074;
},
{
glyphname = uni0433;
kernLeft = uni0432;
kernRight = uni0433;
layers = (
{
layerId = m01;
shapes = (
{
closed = 1;
nodes = (
(138,472,l),
(429,472,l),
(429,527,l),
(72,527,l),
(72,0,l),
(138,0,l)
);
}
);
userData = {
assembly = "NPUSHB[ ]	/* 28 values pushed */
0 1 1 0 95 0 0 0 22 77 3 1 2 2 21 2 78 0 0 0 5 0 5 17 17 4 7 24 
CALL[ ]	/* CallFunction */";
};
width = 457;
}
);
note = uni0433;
unicode = 1075;
},
{
glyphname = uni0434;
kernRight = uni0434;
layers = (
{
layerId = m01;
shapes = (
{
closed = 1;
nodes = (
(140,481,o),
(138,387,o),
(137,340,qs),
(136,298,o),
(126,193,o),
(112,148,qs),
(107,133,o),
(93,101,o),
(72,74,o),
(45,55,o),
(27,54,q),
(27,-168,l),
(89,-168,l),
(89,0,l),
(514,0,l),
(514,-168,l),
(577,-168,l),
(577,55,l),
(505,55,l),
(505,527,l),
(139,527,l)
);
},
{
closed = 1;
nodes = (
(132,55,l),
(144,68,o),
(170,113,o),
(178,142,qs),
(191,186,o),
(198,277,o),
(199,322,qs),
(200,357,o),
(201,437,o),
(202,472,q),
(439,472,l),
(439,55,l)
);
}
);
userData = {
assembly = "NPUSHB[ ]	/* 48 values pushed */
3 1 1 0 1 83 0 6 6 5 95 8 1 5 5 22 77 7 4 2 0 0 2 95 0 2 2 21 2 78 0 0 32 31 22 21 0 20 0 20 17 17 17 17 17 9 7 27 
CALL[ ]	/* CallFunction */";
};
width = 604;
}
);
note = uni0434;
unicode = 1076;
},
{
glyphname = uni0436;
layers = (
{
layerId = m01;
shapes = (
{
closed = 1;
nodes = (
(408,237,l),
(511,237,l),
(657,0,l),
(732,0,l),
(561,277,l),
(716,527,l),
(643,527,l),
(501,292,l),
(408,292,l),
(408,527,l),
(342,527,l),
(342,292,l),
(249,292,l),
(107,527,l),
(34,527,l),
(189,277,l),
(19,0,l),
(94,0,l),
(239,237,l),
(342,237,l),
(342,0,l),
(408,0,l)
);
}
);
userData = {
assembly = "NPUSHB[ ]	/* 51 values pushed */
16 5 2 0 3 1 76 5 1 3 8 1 0 1 3 0 103 6 4 2 2 2 22 77 10 9 7 3 1 1 21 1 78 0 0 0 21 0 21 17 18 17 17 17 17 18 17 17 11 7 31 
CALL[ ]	/* CallFunction */";
};
width = 751;
}
);
note = uni0436;
unicode = 1078;
},
{
glyphname = uni043A;
kernLeft = uni0432;
layers = (
{
layerId = m01;
shapes = (
{
closed = 1;
nodes = (
(138,236,l),
(258,236,l),
(428,0,l),
(504,0,l),
(310,274,l),
(487,527,l),
(414,527,l),
(251,291,l),
(138,291,l),
(138,527,l),
(72,527,l),
(72,0,l),
(138,0,l)
);
}
);
userData = {
assembly = "NPUSHB[ ]	/* 42 values pushed */
7 1 4 1 1 76 0 1 0 4 3 1 4 103 2 1 0 0 22 77 6 5 2 3 3 21 3 78 0 0 0 12 0 12 17 18 17 17 17 7 7 27 
CALL[ ]	/* CallFunction */";
};
width = 516;
}
);
note = uni043A;
unicode = 1082;
},
{
glyphname = uni0438;
kernLeft = uni0432;
layers = (
{
layerId = m01;
shapes = (
{
closed = 1;
nodes = (
(452,0,l),
(518,0,l),
(518,527,l),
(427,527,l),
(138,73,l),
(138,527,l),
(72,527,l),
(72,0,l),
(164,0,l),
(452,450,l)
);
}
);
userData = {
assembly = "NPUSHB[ ]	/* 27 values pushed */
9 4 2 0 1 1 76 2 1 1 1 22 77 3 1 0 0 21 0 78 17 18 17 16 4 7 26 
CALL[ ]	/* CallFunction */";
};
width = 590;
}
);
note = uni0438;
unicode = 1080;
},
{
glyphname = uni0439;
layers = (
{
layerId = m01;
shapes = (
{
closed = 1;
nodes = (
(243,662,o),
(213,677,o),
(192,705,o),
(189,728,q),
(128,728,l),
(131,693,o),
(160,646,o),
(205,617,o),
(263,605,o),
(294,605,qs),
(325,605,o),
(383,617,o),
(430,646,o),
(461,693,o),
(464,728,q),
(403,728,l),
(400,705,o),
(379,677,o),
(349,662,o),
(313,656,o),
(296,656,qs),
(279,656,o)
);
},
{
closed = 1;
nodes = (
(452,450,l),
(452,0,l),
(518,0,l),
(518,527,l),
(427,527,l),
(138,73,l),
(138,527,l),
(72,527,l),
(72,0,l),
(164,0,l),
(165,0,l)
);
}
);
userData = {
assembly = "PUSHB[ ]	/* 7 values pushed */
31 26 2 4 5 1 76 
MPPEM[ ]	/* MeasurePixelPerEm */
PUSHB[ ]	/* 1 value pushed */
24 
LT[ ]	/* LessThan */
IF[ ]	/* If */
NPUSHB[ ]	/* 29 values pushed */
8 1 0 0 2 5 0 2 105 3 1 1 1 20 77 6 1 5 5 22 77 7 9 2 4 4 21 4 78 
ELSE[ ]	/* Else */
NPUSHB[ ]	/* 29 values pushed */
3 1 1 0 1 133 8 1 0 0 2 5 0 2 105 6 1 5 5 22 77 7 9 2 4 4 21 4 78 
EIF[ ]	/* EndIf */
NPUSHB[ ]	/* 27 values pushed */
23 22 1 0 30 29 28 27 25 24 22 32 23 32 17 16 12 10 6 5 0 21 1 21 10 7 22 
CALL[ ]	/* CallFunction */";
};
width = 590;
}
);
note = uni0439;
unicode = 1081;
},
{
glyphname = uni043B;
layers = (
{
layerId = m01;
shapes = (
{
closed = 1;
nodes = (
(136,458,o),
(133,322,o),
(128,253,qs),
(126,226,o),
(117,149,o),
(104,117,qs),
(93,91,o),
(54,60,o),
(24,58,q),
(24,-4,l),
(57,-4,o),
(109,11,o),
(133,35,qs),
(152,54,o),
(174,106,o),
(186,163,o),
(191,221,o),
(193,247,qs),
(195,304,o),
(200,415,o),
(202,472,q),
(430,472,l),
(430,0,l),
(496,0,l),
(496,527,l),
(138,527,l)
);
}
);
userData = {
assembly = "NPUSHB[ ]	/* 42 values pushed */
7 1 3 1 1 76 0 1 1 4 95 5 1 4 4 22 77 0 3 3 0 97 2 1 0 0 21 0 78 0 0 0 25 0 25 17 26 17 17 6 7 26 
CALL[ ]	/* CallFunction */";
};
width = 568;
}
);
note = uni043B;
unicode = 1083;
},
{
glyphname = uni043C;
kernLeft = uni0432;
layers = (
{
layerId = m01;
shapes = (
{
closed = 1;
nodes = (
(138,0,l),
(138,465,l),
(336,134,l),
(362,134,l),
(558,466,l),
(558,0,l),
(624,0,l),
(624,527,l),
(521,527,l),
(351,241,l),
(177,527,l),
(72,527,l),
(72,0,l)
);
}
);
userData = {
assembly = "NPUSHB[ ]	/* 37 values pushed */
10 7 2 3 3 0 1 76 0 3 0 2 0 3 2 128 1 1 0 0 22 77 4 1 2 2 21 2 78 18 18 17 18 16 5 7 27 
CALL[ ]	/* CallFunction */";
};
width = 696;
}
);
note = uni043C;
unicode = 1084;
},
{
glyphname = uni043D;
kernLeft = uni0432;
layers = (
{
layerId = m01;
shapes = (
{
closed = 1;
nodes = (
(138,231,l),
(436,231,l),
(436,0,l),
(502,0,l),
(502,527,l),
(436,527,l),
(436,286,l),
(138,286,l),
(138,527,l),
(72,527,l),
(72,0,l),
(138,0,l)
);
}
);
userData = {
assembly = "NPUSHB[ ]	/* 36 values pushed */
0 1 0 4 3 1 4 103 2 1 0 0 22 77 6 5 2 3 3 21 3 78 0 0 0 11 0 11 17 17 17 17 17 7 7 27 
CALL[ ]	/* CallFunction */";
};
width = 574;
}
);
note = uni043D;
unicode = 1085;
},
{
glyphname = uni043F;
kernLeft = uni0432;
layers = (
{
layerId = m01;
shapes = (
{
closed = 1;
nodes = (
(138,472,l),
(439,472,l),
(439,0,l),
(505,0,l),
(505,527,l),
(72,527,l),
(72,0,l),
(138,0,l)
);
}
);
userData = {
assembly = "NPUSHB[ ]	/* 30 values pushed */
0 2 2 0 95 0 0 0 22 77 4 3 2 1 1 21 1 78 0 0 0 7 0 7 17 17 17 5 7 25 
CALL[ ]	/* CallFunction */";
};
width = 577;
}
);
note = uni043F;
unicode = 1087;
},
{
glyphname = uni0442;
layers = (
{
layerId = m01;
shapes = (
{
closed = 1;
nodes = (
(12,472,l),
(201,472,l),
(201,0,l),
(267,0,l),
(267,472,l),
(456,472,l),
(456,527,l),
(12,527,l)
);
}
);
userData = {
assembly = "NPUSHB[ ]	/* 30 values pushed */
2 1 0 0 3 95 4 1 3 3 22 77 0 1 1 21 1 78 0 0 0 7 0 7 17 17 17 5 7 25 
CALL[ ]	/* CallFunction */";
};
width = 468;
}
);
note = uni0442;
unicode = 1090;
},
{
glyphname = uni0444;
kernLeft = uni0444;
layers = (
{
layerId = m01;
shapes = (
{
closed = 1;
nodes = (
(269,532,o),
(162,497,o),
(88,430,o),
(48,328,o),
(48,259,qs),
(48,192,o),
(89,93,o),
(164,28,o),
(270,-5,o),
(335,-7,q),
(335,-197,l),
(401,-197,l),
(401,-7,l),
(467,-5,o),
(573,28,o),
(648,92,o),
(688,191,o),
(688,259,qs),
(688,327,o),
(648,429,o),
(573,497,o),
(467,532,o),
(401,533,q),
(401,696,l),
(335,696,l),
(335,533,l)
);
},
{
closed = 1;
nodes = (
(509,476,o),
(622,371,o),
(622,262,qs),
(622,206,o),
(591,126,o),
(533,74,o),
(452,48,o),
(401,48,q),
(401,476,l)
);
},
{
closed = 1;
nodes = (
(284,48,o),
(203,74,o),
(145,126,o),
(114,207,o),
(114,262,qs),
(114,371,o),
(227,476,o),
(335,476,q),
(335,48,l)
);
}
);
userData = {
assembly = "MPPEM[ ]	/* MeasurePixelPerEm */
PUSHB[ ]	/* 1 value pushed */
20 
LT[ ]	/* LessThan */
IF[ ]	/* If */
NPUSHB[ ]	/* 35 values pushed */
0 0 0 20 77 8 1 7 7 1 97 5 1 1 1 29 77 9 1 6 6 2 97 4 1 2 2 30 77 0 3 3 24 3 78 
ELSE[ ]	/* Else */
MPPEM[ ]	/* MeasurePixelPerEm */
PUSHB[ ]	/* 1 value pushed */
44 
LT[ ]	/* LessThan */
IF[ ]	/* If */
NPUSHB[ ]	/* 35 values pushed */
0 3 2 3 134 0 0 0 20 77 8 1 7 7 1 97 5 1 1 1 29 77 9 1 6 6 2 97 4 1 2 2 30 2 78 
ELSE[ ]	/* Else */
NPUSHB[ ]	/* 35 values pushed */
0 0 1 0 133 0 3 2 3 134 8 1 7 7 1 97 5 1 1 1 29 77 9 1 6 6 2 97 4 1 2 2 30 2 78 
EIF[ ]	/* EndIf */
EIF[ ]	/* EndIf */
NPUSHB[ ]	/* 14 values pushed */
43 42 17 22 17 24 17 17 24 17 16 10 7 31 
CALL[ ]	/* CallFunction */";
};
width = 736;
}
);
note = uni0444;
unicode = 1092;
},
{
glyphname = uni0446;
kernLeft = uni0432;
kernRight = uni0434;
layers = (
{
layerId = m01;
shapes = (
{
closed = 1;
nodes = (
(138,527,l),
(72,527,l),
(72,0,l),
(502,0,l),
(502,-168,l),
(565,-168,l),
(565,55,l),
(493,55,l),
(493,527,l),
(427,527,l),
(427,55,l),
(138,55,l)
);
}
);
userData = {
assembly = "NPUSHB[ ]	/* 38 values pushed */
0 2 3 2 134 4 1 0 0 22 77 6 5 2 1 1 3 96 0 3 3 21 3 78 0 0 0 11 0 11 17 17 17 17 17 7 7 27 
CALL[ ]	/* CallFunction */";
};
width = 592;
}
);
note = uni0446;
unicode = 1094;
},
{
glyphname = uni0447;
kernLeft = uni0432;
layers = (
{
layerId = m01;
shapes = (
{
closed = 1;
nodes = (
(49,351,o),
(71,270,o),
(119,218,o),
(196,194,o),
(252,194,qs),
(287,194,o),
(352,199,o),
(394,207,q),
(394,0,l),
(460,0,l),
(460,527,l),
(394,527,l),
(394,263,l),
(356,256,o),
(292,252,o),
(259,252,qs),
(214,252,o),
(158,271,o),
(126,311,o),
(115,371,o),
(115,413,qs),
(115,527,l),
(49,527,l),
(49,407,ls)
);
}
);
userData = {
assembly = "NPUSHB[ ]	/* 38 values pushed */
10 1 1 0 15 1 4 1 2 76 0 1 0 4 3 1 4 105 2 1 0 0 22 77 0 3 3 21 3 78 35 17 18 53 16 5 7 27 
CALL[ ]	/* CallFunction */";
};
width = 532;
}
);
note = uni0447;
unicode = 1095;
},
{
glyphname = uni0448;
kernLeft = uni0432;
layers = (
{
layerId = m01;
shapes = (
{
closed = 1;
nodes = (
(730,0,l),
(730,527,l),
(664,527,l),
(664,55,l),
(433,55,l),
(433,527,l),
(367,527,l),
(367,55,l),
(138,55,l),
(138,527,l),
(72,527,l),
(72,0,l)
);
}
);
userData = {
assembly = "NPUSHB[ ]	/* 28 values pushed */
4 2 2 0 0 22 77 3 1 1 1 5 96 0 5 5 21 5 78 17 17 17 17 17 16 6 7 28 
CALL[ ]	/* CallFunction */";
};
width = 802;
}
);
note = uni0448;
unicode = 1096;
},
{
glyphname = uni0449;
kernLeft = uni0432;
kernRight = uni0434;
layers = (
{
layerId = m01;
shapes = (
{
closed = 1;
nodes = (
(739,0,l),
(739,-168,l),
(802,-168,l),
(802,55,l),
(730,55,l),
(730,527,l),
(664,527,l),
(664,55,l),
(433,55,l),
(433,527,l),
(367,527,l),
(367,55,l),
(138,55,l),
(138,527,l),
(72,527,l),
(72,0,l)
);
}
);
userData = {
assembly = "NPUSHB[ ]	/* 36 values pushed */
0 6 7 6 134 4 2 2 0 0 22 77 5 3 2 1 1 7 96 0 7 7 21 7 78 17 17 17 17 17 17 17 16 8 7 30 
CALL[ ]	/* CallFunction */";
};
width = 829;
}
);
note = uni0449;
unicode = 1097;
},
{
glyphname = uni044A;
layers = (
{
layerId = m01;
shapes = (
{
closed = 1;
nodes = (
(352,0,ls),
(394,0,o),
(468,18,o),
(523,57,o),
(555,121,o),
(555,168,qs),
(555,216,o),
(516,277,o),
(454,308,o),
(374,318,o),
(334,318,qs),
(220,318,l),
(220,527,l),
(19,527,l),
(19,472,l),
(153,472,l),
(153,0,l)
);
},
{
closed = 1;
nodes = (
(220,263,l),
(334,263,ls),
(361,263,o),
(416,257,o),
(460,237,o),
(488,198,o),
(488,165,qs),
(488,127,o),
(459,83,o),
(411,61,o),
(351,55,o),
(320,55,qs),
(220,55,l)
);
}
);
userData = {
assembly = "NPUSHB[ ]	/* 45 values pushed */
0 2 0 5 4 2 5 103 0 0 0 1 95 0 1 1 22 77 6 1 4 4 3 95 0 3 3 21 3 78 18 17 28 26 17 29 18 29 40 33 17 16 7 7 26 
CALL[ ]	/* CallFunction */";
};
width = 600;
}
);
note = uni044A;
unicode = 1098;
},
{
glyphname = uni044B;
kernLeft = uni0432;
layers = (
{
layerId = m01;
shapes = (
{
closed = 1;
nodes = (
(604,527,l),
(539,527,l),
(539,0,l),
(604,0,l)
);
},
{
closed = 1;
nodes = (
(249,0,ls),
(291,0,o),
(365,18,o),
(420,57,o),
(452,121,o),
(452,168,qs),
(452,216,o),
(413,278,o),
(351,309,o),
(271,318,o),
(231,318,qs),
(139,318,l),
(139,527,l),
(72,527,l),
(72,0,l)
);
},
{
closed = 1;
nodes = (
(139,263,l),
(232,263,ls),
(259,263,o),
(314,257,o),
(358,237,o),
(385,198,o),
(385,165,qs),
(385,127,o),
(356,83,o),
(308,61,o),
(248,55,o),
(217,55,qs),
(139,55,l)
);
}
);
userData = {
assembly = "NPUSHB[ ]	/* 52 values pushed */
0 3 0 6 5 3 6 103 2 1 0 0 22 77 8 1 5 5 1 96 4 7 2 1 1 21 1 78 20 19 0 0 30 28 19 31 20 31 18 16 8 6 5 4 0 3 0 3 17 9 7 23 
CALL[ ]	/* CallFunction */";
};
width = 676;
}
);
note = uni044B;
unicode = 1099;
},
{
glyphname = uni044C;
kernLeft = uni0432;
layers = (
{
layerId = m01;
shapes = (
{
closed = 1;
nodes = (
(271,0,ls),
(313,0,o),
(387,18,o),
(442,57,o),
(474,121,o),
(474,168,qs),
(474,216,o),
(435,277,o),
(373,309,o),
(293,318,o),
(253,318,qs),
(139,318,l),
(139,527,l),
(72,527,l),
(72,0,l)
);
},
{
closed = 1;
nodes = (
(139,263,l),
(253,263,ls),
(280,263,o),
(335,257,o),
(379,237,o),
(407,198,o),
(407,165,qs),
(407,127,o),
(378,83,o),
(330,61,o),
(270,55,o),
(239,55,qs),
(139,55,l)
);
}
);
userData = {
assembly = "NPUSHB[ ]	/* 39 values pushed */
0 1 0 4 3 1 4 103 0 0 0 22 77 5 1 3 3 2 96 0 2 2 21 2 78 16 15 26 24 15 27 16 27 40 33 16 6 7 25 
CALL[ ]	/* CallFunction */";
};
width = 523;
}
);
note = uni044C;
unicode = 1100;
},
{
glyphname = uni044E;
kernLeft = uni0432;
layers = (
{
layerId = m01;
shapes = (
{
closed = 1;
nodes = (
(358,498,o),
(298,435,o),
(264,346,o),
(260,291,q),
(138,291,l),
(138,527,l),
(72,527,l),
(72,0,l),
(138,0,l),
(138,236,l),
(260,236,l),
(264,181,o),
(297,92,o),
(357,29,o),
(444,-6,o),
(501,-6,qs),
(562,-6,o),
(655,34,o),
(718,106,o),
(749,204,o),
(749,263,qs),
(749,321,o),
(718,420,o),
(657,492,o),
(564,533,o),
(502,533,qs),
(444,533,o)
);
},
{
closed = 1;
nodes = (
(387,84,o),
(343,142,o),
(323,219,o),
(323,263,qs),
(323,307,o),
(342,385,o),
(385,443,o),
(453,477,o),
(502,477,qs),
(550,477,o),
(619,443,o),
(663,385,o),
(683,307,o),
(683,263,qs),
(683,219,o),
(663,142,o),
(619,84,o),
(550,50,o),
(502,50,qs),
(454,50,o)
);
}
);
userData = {
assembly = "MPPEM[ ]	/* MeasurePixelPerEm */
PUSHB[ ]	/* 1 value pushed */
39 
LT[ ]	/* LessThan */
IF[ ]	/* If */
NPUSHB[ ]	/* 33 values pushed */
0 5 0 2 6 5 2 103 0 7 7 0 97 4 8 2 0 0 29 77 9 1 6 6 1 97 3 1 1 1 30 1 78 
ELSE[ ]	/* Else */
NPUSHB[ ]	/* 41 values pushed */
0 5 0 2 6 5 2 103 0 4 4 22 77 0 7 7 0 97 8 1 0 0 29 77 0 3 3 21 77 9 1 6 6 1 97 0 1 1 30 1 78 
EIF[ ]	/* EndIf */
NPUSHB[ ]	/* 27 values pushed */
28 27 1 0 38 36 27 46 28 46 22 21 20 19 18 17 16 15 11 9 0 26 1 26 10 7 22 
CALL[ ]	/* CallFunction */";
};
width = 797;
}
);
note = uni044E;
unicode = 1102;
},
{
glyphname = uni044F;
kernLeft = uni0432;
layers = (
{
layerId = m01;
shapes = (
{
closed = 1;
nodes = (
(250,527,ls),
(208,527,o),
(137,516,o),
(109,498,qs),
(80,479,o),
(46,417,o),
(46,366,qs),
(46,301,o),
(122,224,o),
(184,213,q),
(39,0,l),
(117,0,l),
(252,204,l),
(394,204,l),
(394,0,l),
(459,0,l),
(459,527,l)
);
},
{
closed = 1;
nodes = (
(292,259,ls),
(274,259,o),
(236,260,o),
(197,266,o),
(162,279,o),
(147,290,qs),
(131,302,o),
(112,343,o),
(112,371,qs),
(112,403,o),
(137,444,o),
(154,455,qs),
(172,466,o),
(230,472,o),
(262,472,qs),
(394,472,l),
(394,259,l)
);
}
);
userData = {
assembly = "NPUSHB[ ]	/* 40 values pushed */
6 1 1 5 1 76 0 5 0 1 0 5 1 103 0 4 4 3 95 0 3 3 22 77 2 1 0 0 21 0 78 59 33 41 17 17 16 6 7 28 
CALL[ ]	/* CallFunction */";
};
width = 531;
}
);
note = uni044F;
unicode = 1103;
},
{
glyphname = uni0410;
kernLeft = A;
kernRight = A;
layers = (
{
layerId = m01;
shapes = (
{
closed = 1;
nodes = (
(560,0,l),
(633,0,l),
(370,707,l),
(279,707,l),
(15,0,l),
(88,0,l),
(146,157,l),
(502,157,l)
);
},
{
closed = 1;
nodes = (
(481,217,l),
(168,217,l),
(324,646,l)
);
}
);
userData = {
assembly = "NPUSHB[ ]	/* 41 values pushed */
10 1 4 1 1 76 0 4 5 1 3 0 4 3 104 0 1 1 20 77 2 1 0 0 21 0 78 0 0 9 8 0 7 0 7 17 17 17 6 7 25 
CALL[ ]	/* CallFunction */";
};
width = 648;
}
);
note = uni0410;
unicode = 1040;
},
{
glyphname = uni0415;
layers = (
{
layerId = m01;
shapes = (
{
closed = 1;
nodes = (
(557,0,l),
(557,60,l),
(157,60,l),
(157,321,l),
(517,321,l),
(517,381,l),
(157,381,l),
(157,647,l),
(557,647,l),
(557,707,l),
(92,707,l),
(92,0,l)
);
}
);
userData = {
assembly = "NPUSHB[ ]	/* 38 values pushed */
0 2 0 3 4 2 3 103 0 1 1 0 95 0 0 0 20 77 0 4 4 5 95 0 5 5 21 5 78 17 17 17 17 17 16 6 7 28 
CALL[ ]	/* CallFunction */";
};
width = 610;
}
);
note = uni0415;
unicode = 1045;
},
{
glyphname = uni041C;
layers = (
{
layerId = m01;
shapes = (
{
closed = 1;
nodes = (
(422,292,l),
(197,707,l),
(92,707,l),
(92,0,l),
(157,0,l),
(157,646,l),
(404,188,l),
(435,188,l),
(495,299,o),
(619,535,o),
(679,646,q),
(679,0,l),
(744,0,l),
(744,707,l),
(643,707,l)
);
}
);
userData = {
assembly = "NPUSHB[ ]	/* 43 values pushed */
13 8 3 3 1 3 1 76 0 1 3 0 3 1 0 128 5 4 2 3 3 20 77 2 1 0 0 21 0 78 0 0 0 14 0 14 17 18 20 17 6 7 26 
CALL[ ]	/* CallFunction */";
};
width = 836;
}
);
note = uni041C;
unicode = 1052;
},
{
glyphname = uni041D;
layers = (
{
layerId = m01;
shapes = (
{
closed = 1;
nodes = (
(92,707,l),
(92,0,l),
(157,0,l),
(157,317,l),
(573,317,l),
(573,0,l),
(638,0,l),
(638,707,l),
(573,707,l),
(573,377,l),
(157,377,l),
(157,707,l)
);
}
);
userData = {
assembly = "NPUSHB[ ]	/* 30 values pushed */
0 0 0 3 2 0 3 103 5 1 1 1 20 77 4 1 2 2 21 2 78 17 17 17 17 17 16 6 7 28 
CALL[ ]	/* CallFunction */";
};
width = 730;
}
);
note = uni041D;
unicode = 1053;
},
{
glyphname = uni0420;
layers = (
{
layerId = m01;
shapes = (
{
closed = 1;
nodes = (
(157,0,l),
(157,241,l),
(312,241,ls),
(368,241,o),
(465,269,o),
(536,328,o),
(577,416,o),
(577,476,qs),
(577,595,o),
(447,707,o),
(332,707,qs),
(92,707,l),
(92,0,l)
);
},
{
closed = 1;
nodes = (
(157,647,l),
(327,647,ls),
(412,647,o),
(510,570,o),
(510,480,qs),
(510,433,o),
(481,365,o),
(429,321,o),
(355,301,o),
(310,301,qs),
(157,301,l)
);
}
);
userData = {
assembly = "NPUSHB[ ]	/* 39 values pushed */
5 1 3 0 1 2 3 1 103 0 4 4 0 95 0 0 0 20 77 0 2 2 21 2 78 14 13 22 20 13 23 14 23 17 38 32 6 7 25 
CALL[ ]	/* CallFunction */";
};
width = 626;
}
);
note = uni0420;
unicode = 1056;
},
{
glyphname = uni0422;
kernLeft = uni0422;
kernRight = uni0422;
layers = (
{
layerId = m01;
shapes = (
{
closed = 1;
nodes = (
(19,707,l),
(19,647,l),
(253,647,l),
(253,0,l),
(318,0,l),
(318,647,l),
(552,647,l),
(552,707,l)
);
}
);
userData = {
assembly = "NPUSHB[ ]	/* 24 values pushed */
2 1 0 0 3 95 0 3 3 20 77 0 1 1 21 1 78 17 17 17 16 4 7 26 
CALL[ ]	/* CallFunction */";
};
width = 571;
}
);
note = uni0422;
unicode = 1058;
},
{
glyphname = uni0425;
layers = (
{
layerId = m01;
shapes = (
{
closed = 1;
nodes = (
(108,707,l),
(26,707,l),
(247,354,l),
(19,0,l),
(98,0,l),
(290,303,l),
(481,0,l),
(562,0,l),
(333,357,l),
(553,707,l),
(472,707,l),
(290,407,l)
);
}
);
userData = {
assembly = "NPUSHB[ ]	/* 29 values pushed */
11 8 5 2 4 1 0 1 76 3 1 0 0 20 77 2 1 1 1 21 1 78 18 18 18 16 4 7 26 
CALL[ ]	/* CallFunction */";
};
width = 581;
}
);
note = uni0425;
unicode = 1061;
},
{
glyphname = T;
kernLeft = uni0422;
kernRight = uni0422;
layers = (
{
layerId = m01;
shapes = (
{
closed = 1;
nodes = (
(19,707,l),
(19,647,l),
(253,647,l),
(253,0,l),
(318,0,l),
(318,647,l),
(552,647,l),
(552,707,l)
);
}
);
userData = {
assembly = "NPUSHB[ ]	/* 24 values pushed */
2 1 0 0 3 95 0 3 3 38 77 0 1 1 39 1 78 17 17 17 16 4 8 26 
CALL[ ]	/* CallFunction */";
};
width = 571;
}
);
note = T;
unicode = 84;
},
{
glyphname = uni0412;
layers = (
{
layerId = m01;
shapes = (
{
closed = 1;
nodes = (
(329,0,ls),
(378,0,o),
(476,16,o),
(554,59,o),
(603,133,o),
(603,192,qs),
(603,266,o),
(522,360,o),
(450,372,q),
(506,390,o),
(565,473,o),
(565,533,qs),
(565,588,o),
(527,656,o),
(464,694,o),
(381,707,o),
(335,707,qs),
(91,707,l),
(91,0,l)
);
},
{
closed = 1;
nodes = (
(368,647,o),
(428,639,o),
(475,615,o),
(503,568,o),
(503,529,qs),
(503,489,o),
(469,436,o),
(415,404,o),
(348,391,o),
(314,391,qs),
(156,391,l),
(156,647,l),
(336,647,ls)
);
},
{
closed = 1;
nodes = (
(156,331,l),
(356,331,ls),
(390,331,o),
(456,319,o),
(506,289,o),
(537,237,o),
(537,196,qs),
(537,149,o),
(498,95,o),
(437,68,o),
(362,60,o),
(326,60,qs),
(156,60,l)
);
}
);
userData = {
assembly = "NPUSHB[ ]	/* 57 values pushed */
9 1 5 2 1 76 0 2 0 5 4 2 5 103 6 1 3 3 0 95 0 0 0 20 77 7 1 4 4 1 95 0 1 1 21 1 78 33 32 19 19 43 41 32 44 33 44 19 31 19 30 34 46 32 8 7 25 
CALL[ ]	/* CallFunction */";
};
width = 657;
}
);
note = uni0412;
unicode = 1042;
},
{
glyphname = uni041F;
layers = (
{
layerId = m01;
shapes = (
{
closed = 1;
nodes = (
(92,707,l),
(92,0,l),
(157,0,l),
(157,647,l),
(576,647,l),
(576,0,l),
(641,0,l),
(641,707,l)
);
}
);
userData = {
assembly = "NPUSHB[ ]	/* 24 values pushed */
0 1 1 3 95 0 3 3 20 77 2 1 0 0 21 0 78 17 17 17 16 4 7 26 
CALL[ ]	/* CallFunction */";
};
width = 733;
}
);
note = uni041F;
unicode = 1055;
},
{
glyphname = uni0413;
kernRight = uni0413;
layers = (
{
layerId = m01;
shapes = (
{
closed = 1;
nodes = (
(157,647,l),
(537,647,l),
(537,707,l),
(92,707,l),
(92,0,l),
(157,0,l)
);
}
);
userData = {
assembly = "NPUSHB[ ]	/* 28 values pushed */
0 1 1 0 95 0 0 0 20 77 3 1 2 2 21 2 78 0 0 0 5 0 5 17 17 4 7 24 
CALL[ ]	/* CallFunction */";
};
width = 569;
}
);
note = uni0413;
unicode = 1043;
},
{
glyphname = uni041B;
layers = (
{
layerId = m01;
shapes = (
{
closed = 1;
nodes = (
(605,707,l),
(143,707,l),
(141,621,o),
(139,451,o),
(137,366,qs),
(136,342,o),
(134,273,o),
(128,201,o),
(115,135,o),
(104,114,qs),
(91,90,o),
(49,61,o),
(19,61,q),
(19,-6,l),
(85,-4,o),
(165,56,o),
(182,121,qs),
(196,173,o),
(202,290,o),
(204,344,qs),
(206,420,o),
(208,571,o),
(210,647,q),
(540,647,l),
(540,0,l),
(605,0,l)
);
}
);
userData = {
assembly = "MPPEM[ ]	/* MeasurePixelPerEm */
PUSHB[ ]	/* 1 value pushed */
46 
LT[ ]	/* LessThan */
IF[ ]	/* If */
NPUSHB[ ]	/* 23 values pushed */
0 0 0 3 95 0 3 3 20 77 0 2 2 1 97 5 4 2 1 1 30 1 78 
ELSE[ ]	/* Else */
NPUSHB[ ]	/* 27 values pushed */
0 0 0 3 95 0 3 3 20 77 5 1 4 4 21 77 0 2 2 1 97 0 1 1 30 1 78 
EIF[ ]	/* EndIf */
NPUSHB[ ]	/* 13 values pushed */
0 0 0 25 0 25 26 17 24 17 6 7 26 
CALL[ ]	/* CallFunction */";
};
width = 697;
}
);
note = uni041B;
unicode = 1051;
},
{
glyphname = uni0414;
kernRight = uni0414;
layers = (
{
layerId = m01;
shapes = (
{
closed = 1;
nodes = (
(92,0,l),
(625,0,l),
(625,-201,l),
(690,-201,l),
(690,60,l),
(602,60,l),
(602,707,l),
(161,707,l),
(159,629,o),
(156,475,o),
(152,397,qs),
(150,353,o),
(144,243,o),
(136,195,qs),
(133,174,o),
(117,122,o),
(103,100,qs),
(92,83,o),
(59,60,o),
(37,60,qs),
(27,60,l),
(27,-201,l),
(92,-201,l)
);
},
{
closed = 1;
nodes = (
(167,74,o),
(191,120,o),
(197,149,qs),
(207,196,o),
(213,305,o),
(215,353,qs),
(225,647,l),
(538,647,l),
(538,60,l),
(152,60,l)
);
}
);
userData = {
assembly = "MPPEM[ ]	/* MeasurePixelPerEm */
PUSHB[ ]	/* 1 value pushed */
20 
LT[ ]	/* LessThan */
IF[ ]	/* If */
NPUSHB[ ]	/* 39 values pushed */
0 6 6 1 95 0 1 1 20 77 9 7 2 3 0 0 4 95 0 4 4 21 77 9 7 2 3 0 0 3 95 8 5 2 3 3 24 3 78 
ELSE[ ]	/* Else */
NPUSHB[ ]	/* 31 values pushed */
8 5 2 3 0 3 83 0 6 6 1 95 0 1 1 20 77 9 7 2 3 0 0 4 95 0 4 4 21 4 78 
EIF[ ]	/* EndIf */
NPUSHB[ ]	/* 22 values pushed */
23 23 0 0 23 32 23 32 25 24 0 22 0 22 17 17 17 27 33 10 7 27 
CALL[ ]	/* CallFunction */";
};
width = 717;
}
);
note = uni0414;
unicode = 1044;
},
{
glyphname = uni0411;
layers = (
{
layerId = m01;
shapes = (
{
closed = 1;
nodes = (
(332,0,ls),
(386,0,o),
(481,21,o),
(553,70,o),
(595,151,o),
(595,212,qs),
(595,273,o),
(553,349,o),
(482,392,o),
(388,407,o),
(336,407,qs),
(157,407,l),
(157,647,l),
(563,647,l),
(563,707,l),
(92,707,l),
(92,0,l)
);
},
{
closed = 1;
nodes = (
(325,347,ls),
(363,347,o),
(436,339,o),
(494,311,o),
(529,256,o),
(529,208,qs),
(529,160,o),
(494,102,o),
(436,71,o),
(360,60,o),
(320,60,qs),
(157,60,l),
(157,347,l)
);
}
);
userData = {
assembly = "NPUSHB[ ]	/* 38 values pushed */
0 2 0 5 4 2 5 103 0 1 1 0 95 0 0 0 20 77 0 4 4 3 95 0 3 3 21 3 78 40 33 40 33 17 16 6 7 28 
CALL[ ]	/* CallFunction */";
};
width = 655;
}
);
note = uni0411;
unicode = 1041;
},
{
glyphname = uni0416;
layers = (
{
layerId = m01;
shapes = (
{
closed = 1;
nodes = (
(461,317,l),
(591,317,l),
(760,0,l),
(839,0,l),
(646,357,l),
(838,707,l),
(767,707,l),
(589,377,l),
(461,377,l),
(461,707,l),
(396,707,l),
(396,377,l),
(269,377,l),
(92,707,l),
(19,707,l),
(211,357,l),
(19,0,l),
(96,0,l),
(266,317,l),
(396,317,l),
(396,0,l),
(461,0,l)
);
}
);
userData = {
assembly = "NPUSHB[ ]	/* 51 values pushed */
16 5 2 0 3 1 76 5 1 3 8 1 0 1 3 0 103 6 4 2 2 2 20 77 10 9 7 3 1 1 21 1 78 0 0 0 21 0 21 17 18 17 17 17 17 18 17 17 11 7 31 
CALL[ ]	/* CallFunction */";
};
width = 858;
}
);
note = uni0416;
unicode = 1046;
},
{
glyphname = uni0417;
kernLeft = uni0417;
kernRight = uni0417;
layers = (
{
layerId = m01;
shapes = (
{
closed = 1;
nodes = (
(53,115,o),
(105,49,o),
(182,9,o),
(272,-8,o),
(314,-8,qs),
(364,-8,o),
(460,14,o),
(498,41,qs),
(533,65,o),
(574,141,o),
(574,192,qs),
(574,264,o),
(494,358,o),
(424,372,q),
(479,389,o),
(542,482,o),
(542,539,qs),
(542,595,o),
(494,666,o),
(456,686,qs),
(426,702,o),
(355,715,o),
(317,715,qs),
(285,715,o),
(212,706,o),
(178,691,qs),
(133,672,o),
(69,599,o),
(68,546,q),
(134,546,l),
(137,578,o),
(174,621,o),
(199,634,qs),
(226,647,o),
(286,656,o),
(313,656,qs),
(345,656,o),
(404,644,o),
(428,629,qs),
(451,614,o),
(479,563,o),
(479,526,qs),
(479,498,o),
(451,448,o),
(429,431,qs),
(400,407,o),
(325,390,o),
(287,390,qs),
(218,390,l),
(218,330,l),
(312,330,ls),
(348,330,o),
(418,320,o),
(473,291,o),
(507,237,o),
(507,193,qs),
(507,150,o),
(473,95,o),
(419,63,o),
(350,51,o),
(314,51,qs),
(286,51,o),
(220,61,o),
(161,87,o),
(119,131,o),
(115,165,q),
(49,165,l)
);
}
);
userData = {
assembly = "NPUSHB[ ]	/* 69 values pushed */
52 1 1 2 1 76 0 4 3 2 3 4 2 128 8 1 7 1 0 1 7 0 128 0 2 0 1 7 2 1 103 0 3 3 5 97 0 5 5 27 77 0 0 0 6 97 0 6 6 28 6 78 0 0 0 66 0 66 62 60 37 21 42 33 40 36 9 7 28 
CALL[ ]	/* CallFunction */";
};
width = 628;
}
);
note = uni0417;
unicode = 1047;
},
{
glyphname = uni0418;
layers = (
{
layerId = m01;
shapes = (
{
closed = 1;
nodes = (
(581,616,l),
(581,0,l),
(646,0,l),
(646,707,l),
(563,707,l),
(157,86,l),
(157,707,l),
(92,707,l),
(92,0,l),
(175,0,l)
);
}
);
userData = {
assembly = "NPUSHB[ ]	/* 33 values pushed */
8 3 2 2 0 1 76 1 1 0 0 20 77 4 3 2 2 2 21 2 78 0 0 0 9 0 9 17 18 17 5 7 25 
CALL[ ]	/* CallFunction */";
};
width = 738;
}
);
note = uni0418;
unicode = 1048;
},
{
glyphname = uni0419;
layers = (
{
layerId = m01;
shapes = (
{
closed = 1;
nodes = (
(263,880,o),
(255,924,q),
(193,924,l),
(196,886,o),
(228,835,o),
(277,804,o),
(338,791,o),
(371,791,qs),
(404,791,o),
(465,804,o),
(513,836,o),
(545,886,o),
(548,924,q),
(486,924,l),
(478,880,o),
(413,845,o),
(371,845,qs),
(329,845,o)
);
},
{
closed = 1;
nodes = (
(581,616,l),
(581,0,l),
(646,0,l),
(646,707,l),
(563,707,l),
(157,86,l),
(157,707,l),
(92,707,l),
(92,0,l),
(175,0,l)
);
}
);
userData = {
assembly = "NPUSHB[ ]	/* 63 values pushed */
26 21 2 6 4 1 76 3 1 1 0 1 133 8 1 0 0 2 4 0 2 105 5 1 4 4 20 77 9 7 2 6 6 21 6 78 18 18 1 0 18 27 18 27 25 24 23 22 20 19 15 14 10 8 4 3 0 17 1 17 10 7 22 
CALL[ ]	/* CallFunction */";
};
width = 738;
}
);
note = uni0419;
unicode = 1049;
},
{
glyphname = uni041A;
layers = (
{
layerId = m01;
shapes = (
{
closed = 1;
nodes = (
(157,312,l),
(292,312,l),
(519,0,l),
(597,0,l),
(342,355,l),
(595,707,l),
(518,707,l),
(281,372,l),
(157,372,l),
(157,707,l),
(92,707,l),
(92,0,l),
(157,0,l)
);
}
);
userData = {
assembly = "NPUSHB[ ]	/* 42 values pushed */
7 1 4 1 1 76 0 1 0 4 3 1 4 103 2 1 0 0 20 77 6 5 2 3 3 21 3 78 0 0 0 12 0 12 17 18 17 17 17 7 7 27 
CALL[ ]	/* CallFunction */";
};
width = 616;
}
);
note = uni041A;
unicode = 1050;
},
{
glyphname = uni0423;
layers = (
{
layerId = m01;
shapes = (
{
closed = 1;
nodes = (
(149,-1,o),
(225,16,o),
(258,41,qs),
(294,68,o),
(340,140,o),
(360,179,qs),
(393,244,o),
(449,376,o),
(503,509,o),
(557,641,o),
(587,707,q),
(512,707,l),
(325,245,l),
(100,707,l),
(20,707,l),
(286,177,l),
(269,147,o),
(236,104,o),
(215,90,qs),
(193,76,o),
(142,64,o),
(107,63,q),
(107,-1,l)
);
}
);
userData = {
assembly = "NPUSHB[ ]	/* 31 values pushed */
9 6 2 0 1 1 76 2 1 1 1 20 77 0 0 0 3 97 0 3 3 21 3 78 26 18 22 16 4 7 26 
CALL[ ]	/* CallFunction */";
};
width = 589;
}
);
note = uni0423;
unicode = 1059;
},
{
glyphname = uni0424;
kernLeft = uni0417;
kernRight = uni0417;
layers = (
{
layerId = m01;
shapes = (
{
closed = 1;
nodes = (
(390,634,l),
(314,634,ls),
(256,634,o),
(160,596,o),
(91,527,o),
(53,431,o),
(53,373,qs),
(53,315,o),
(85,215,o),
(147,142,o),
(240,100,o),
(300,100,qs),
(390,100,l),
(390,-20,l),
(455,-20,l),
(455,100,l),
(544,100,ls),
(602,100,o),
(695,143,o),
(758,217,o),
(792,317,o),
(792,373,qs),
(792,431,o),
(754,527,o),
(686,596,o),
(591,634,o),
(533,634,qs),
(455,634,l),
(455,736,l),
(390,736,l)
);
},
{
closed = 1;
nodes = (
(267,155,o),
(192,188,o),
(143,247,o),
(119,327,o),
(119,375,qs),
(119,420,o),
(147,495,o),
(199,548,o),
(272,578,o),
(318,578,qs),
(390,578,l),
(390,155,l),
(318,155,ls)
);
},
{
closed = 1;
nodes = (
(527,578,ls),
(572,578,o),
(646,548,o),
(698,495,o),
(726,420,o),
(726,375,qs),
(726,327,o),
(703,247,o),
(654,188,o),
(579,155,o),
(528,155,qs),
(455,155,l),
(455,578,l)
);
}
);
userData = {
assembly = "MPPEM[ ]	/* MeasurePixelPerEm */
PUSHB[ ]	/* 1 value pushed */
26 
LT[ ]	/* LessThan */
IF[ ]	/* If */
NPUSHB[ ]	/* 33 values pushed */
10 1 5 0 5 133 4 1 0 9 1 6 7 0 6 103 8 11 2 7 3 1 1 2 7 1 103 0 2 2 21 2 78 
ELSE[ ]	/* Else */
NPUSHB[ ]	/* 42 values pushed */
10 1 5 0 5 133 0 2 1 2 134 4 1 0 9 1 6 7 0 6 103 8 11 2 7 1 1 7 87 8 11 2 7 7 1 95 3 1 1 7 1 79 
EIF[ ]	/* EndIf */
NPUSHB[ ]	/* 26 values pushed */
30 30 0 0 55 53 45 43 30 42 30 41 33 31 0 29 0 29 40 33 17 40 33 12 7 27 
CALL[ ]	/* CallFunction */";
};
width = 845;
}
);
note = uni0424;
unicode = 1060;
},
{
glyphname = uni0426;
kernRight = uni0414;
layers = (
{
layerId = m01;
shapes = (
{
closed = 1;
nodes = (
(640,-201,l),
(705,-201,l),
(705,60,l),
(617,60,l),
(617,707,l),
(552,707,l),
(552,60,l),
(157,60,l),
(157,707,l),
(92,707,l),
(92,0,l),
(640,0,l)
);
}
);
userData = {
assembly = "MPPEM[ ]	/* MeasurePixelPerEm */
PUSHB[ ]	/* 1 value pushed */
20 
LT[ ]	/* LessThan */
IF[ ]	/* If */
NPUSHB[ ]	/* 24 values pushed */
2 1 0 0 20 77 3 1 1 1 5 95 6 1 5 5 21 77 0 4 4 24 4 78 
ELSE[ ]	/* Else */
NPUSHB[ ]	/* 24 values pushed */
0 4 5 4 134 2 1 0 0 20 77 3 1 1 1 5 95 6 1 5 5 21 5 78 
EIF[ ]	/* EndIf */
NPUSHB[ ]	/* 14 values pushed */
0 0 0 11 0 11 17 17 17 17 17 7 7 27 
CALL[ ]	/* CallFunction */";
};
width = 729;
}
);
note = uni0426;
unicode = 1062;
},
{
glyphname = uni0427;
layers = (
{
layerId = m01;
shapes = (
{
closed = 1;
nodes = (
(274,318,o),
(233,326,o),
(196,341,o),
(181,354,qs),
(148,384,o),
(134,462,o),
(134,504,qs),
(134,707,l),
(69,707,l),
(69,484,ls),
(69,458,o),
(75,405,o),
(91,355,o),
(121,312,o),
(144,297,qs),
(166,283,o),
(215,266,o),
(266,258,o),
(318,256,o),
(343,256,qs),
(381,256,o),
(453,261,o),
(491,266,q),
(491,0,l),
(556,0,l),
(556,707,l),
(491,707,l),
(491,325,l),
(449,320,o),
(376,315,o),
(334,315,qs),
(315,315,o)
);
}
);
userData = {
assembly = "NPUSHB[ ]	/* 48 values pushed */
3 1 0 1 8 1 3 0 2 76 5 1 0 0 3 2 0 3 105 4 1 1 1 20 77 0 2 2 21 2 78 2 0 23 22 13 9 7 6 5 4 0 31 2 31 6 7 22 
CALL[ ]	/* CallFunction */";
};
width = 648;
}
);
note = uni0427;
unicode = 1063;
},
{
glyphname = uni0428;
layers = (
{
layerId = m01;
shapes = (
{
closed = 1;
nodes = (
(883,0,l),
(883,707,l),
(818,707,l),
(818,60,l),
(520,60,l),
(520,707,l),
(455,707,l),
(455,60,l),
(157,60,l),
(157,707,l),
(92,707,l),
(92,0,l)
);
}
);
userData = {
assembly = "NPUSHB[ ]	/* 28 values pushed */
4 2 2 0 0 20 77 3 1 1 1 5 95 0 5 5 21 5 78 17 17 17 17 17 16 6 7 28 
CALL[ ]	/* CallFunction */";
};
width = 975;
}
);
note = uni0428;
unicode = 1064;
},
{
glyphname = uni0429;
kernRight = uni0414;
layers = (
{
layerId = m01;
shapes = (
{
closed = 1;
nodes = (
(906,0,l),
(906,-201,l),
(971,-201,l),
(971,60,l),
(883,60,l),
(883,707,l),
(818,707,l),
(818,60,l),
(520,60,l),
(520,707,l),
(455,707,l),
(455,60,l),
(157,60,l),
(157,707,l),
(92,707,l),
(92,0,l)
);
}
);
userData = {
assembly = "MPPEM[ ]	/* MeasurePixelPerEm */
PUSHB[ ]	/* 1 value pushed */
20 
LT[ ]	/* LessThan */
IF[ ]	/* If */
NPUSHB[ ]	/* 25 values pushed */
4 2 2 0 0 20 77 5 3 2 1 1 7 95 0 7 7 21 77 0 6 6 24 6 78 
ELSE[ ]	/* Else */
NPUSHB[ ]	/* 25 values pushed */
0 6 7 6 134 4 2 2 0 0 20 77 5 3 2 1 1 7 95 0 7 7 21 7 78 
EIF[ ]	/* EndIf */
NPUSHB[ ]	/* 11 values pushed */
17 17 17 17 17 17 17 16 8 7 30 
CALL[ ]	/* CallFunction */";
};
width = 995;
}
);
note = uni0429;
unicode = 1065;
},
{
glyphname = uni042A;
layers = (
{
layerId = m01;
shapes = (
{
closed = 1;
nodes = (
(407,0,ls),
(461,0,o),
(558,21,o),
(631,71,o),
(674,153,o),
(673,214,qs),
(672,280,o),
(620,357,o),
(538,396,o),
(436,407,o),
(385,407,qs),
(250,407,l),
(250,707,l),
(19,707,l),
(19,647,l),
(185,647,l),
(185,0,l)
);
},
{
closed = 1;
nodes = (
(401,347,ls),
(439,347,o),
(513,339,o),
(571,311,o),
(607,256,o),
(607,208,qs),
(607,160,o),
(569,102,o),
(509,70,o),
(433,60,o),
(394,60,qs),
(250,60,l),
(250,347,l)
);
}
);
userData = {
assembly = "NPUSHB[ ]	/* 38 values pushed */
0 2 0 5 4 2 5 103 0 0 0 1 95 0 1 1 20 77 0 4 4 3 95 0 3 3 21 3 78 40 33 40 33 17 16 6 7 28 
CALL[ ]	/* CallFunction */";
};
width = 729;
}
);
note = uni042A;
unicode = 1066;
},
{
glyphname = uni042B;
layers = (
{
layerId = m01;
shapes = (
{
closed = 1;
nodes = (
(292,0,ls),
(346,0,o),
(442,21,o),
(515,71,o),
(558,153,o),
(558,214,qs),
(558,280,o),
(507,356,o),
(425,396,o),
(322,407,o),
(270,407,qs),
(157,407,l),
(157,707,l),
(92,707,l),
(92,0,l)
);
},
{
closed = 1;
nodes = (
(288,347,ls),
(326,347,o),
(399,339,o),
(457,311,o),
(492,256,o),
(492,208,qs),
(492,160,o),
(454,102,o),
(394,70,o),
(318,60,o),
(279,60,qs),
(157,60,l),
(157,347,l)
);
},
{
closed = 1;
nodes = (
(730,707,l),
(665,707,l),
(665,0,l),
(730,0,l)
);
}
);
userData = {
assembly = "NPUSHB[ ]	/* 42 values pushed */
0 1 0 4 3 1 4 103 5 1 0 0 20 77 0 3 3 2 95 7 6 2 2 2 21 2 78 28 28 28 31 28 31 18 40 33 40 33 16 8 7 28 
CALL[ ]	/* CallFunction */";
};
width = 822;
}
);
note = uni042B;
unicode = 1067;
},
{
glyphname = uni042C;
layers = (
{
layerId = m01;
shapes = (
{
closed = 1;
nodes = (
(313,0,ls),
(367,0,o),
(463,21,o),
(536,71,o),
(579,153,o),
(579,214,qs),
(579,280,o),
(527,356,o),
(444,396,o),
(342,407,o),
(291,407,qs),
(156,407,l),
(156,707,l),
(91,707,l),
(91,0,l)
);
},
{
closed = 1;
nodes = (
(306,347,ls),
(344,347,o),
(418,339,o),
(477,311,o),
(513,256,o),
(513,208,qs),
(513,160,o),
(475,102,o),
(415,70,o),
(339,60,o),
(300,60,qs),
(156,60,l),
(156,347,l)
);
}
);
userData = {
assembly = "NPUSHB[ ]	/* 32 values pushed */
0 1 0 4 3 1 4 103 0 0 0 20 77 0 3 3 2 95 0 2 2 21 2 78 40 33 40 33 16 5 7 27 
CALL[ ]	/* CallFunction */";
};
width = 634;
}
);
note = uni042C;
unicode = 1068;
},
{
glyphname = uni042D;
kernLeft = uni0417;
kernRight = uni0417;
layers = (
{
layerId = m01;
shapes = (
{
closed = 1;
nodes = (
(489,612,o),
(551,538,o),
(585,439,o),
(588,384,q),
(227,384,l),
(227,324,l),
(588,324,l),
(586,265,o),
(555,165,o),
(493,92,o),
(401,51,o),
(338,51,qs),
(306,51,o),
(242,64,o),
(184,92,o),
(138,136,o),
(126,168,q),
(53,168,l),
(68,121,o),
(124,54,o),
(198,12,o),
(286,-8,o),
(333,-8,qs),
(415,-8,o),
(537,45,o),
(617,139,o),
(656,270,o),
(656,348,qs),
(656,423,o),
(619,556,o),
(542,656,o),
(424,715,o),
(343,715,qs),
(297,715,o),
(207,695,o),
(131,653,o),
(73,586,o),
(59,539,q),
(127,539,l),
(139,570,o),
(185,614,o),
(243,643,o),
(308,656,o),
(339,656,qs),
(399,656,o)
);
}
);
userData = {
assembly = "NPUSHB[ ]	/* 69 values pushed */
0 1 0 7 0 1 7 128 0 4 6 5 6 4 5 128 0 7 0 6 4 7 6 103 8 1 0 0 2 97 0 2 2 27 77 0 5 5 3 97 0 3 3 28 3 78 1 0 40 39 38 37 33 31 27 26 22 20 12 10 6 5 0 44 1 44 9 7 22 
CALL[ ]	/* CallFunction */";
};
width = 709;
}
);
note = uni042D;
unicode = 1069;
},
{
glyphname = uni042E;
kernRight = uni0417;
layers = (
{
layerId = m01;
shapes = (
{
closed = 1;
nodes = (
(157,324,l),
(299,324,l),
(303,252,o),
(346,130,o),
(426,42,o),
(542,-8,o),
(619,-8,qs),
(701,-8,o),
(825,46,o),
(908,143,o),
(950,275,o),
(950,353,qs),
(950,431,o),
(908,564,o),
(825,660,o),
(701,715,o),
(619,715,qs),
(543,715,o),
(427,665,o),
(347,577,o),
(303,456,o),
(299,384,q),
(157,384,l),
(157,707,l),
(92,707,l),
(92,0,l),
(157,0,l)
);
},
{
closed = 1;
nodes = (
(786,608,o),
(850,525,o),
(882,415,o),
(882,353,qs),
(882,290,o),
(850,180,o),
(786,98,o),
(686,51,o),
(619,51,qs),
(552,51,o),
(456,100,o),
(394,182,o),
(365,292,o),
(365,353,qs),
(365,414,o),
(394,524,o),
(455,607,o),
(551,656,o),
(619,656,qs),
(686,656,o)
);
}
);
userData = {
assembly = "MPPEM[ ]	/* MeasurePixelPerEm */
PUSHB[ ]	/* 1 value pushed */
29 
LT[ ]	/* LessThan */
IF[ ]	/* If */
NPUSHB[ ]	/* 33 values pushed */
0 1 0 4 7 1 4 103 9 1 6 6 0 97 2 1 0 0 20 77 0 7 7 3 97 8 5 2 3 3 28 3 78 
ELSE[ ]	/* Else */
NPUSHB[ ]	/* 41 values pushed */
0 1 0 4 7 1 4 103 0 0 0 20 77 9 1 6 6 2 97 0 2 2 27 77 8 1 5 5 21 77 0 7 7 3 97 0 3 3 28 3 78 
EIF[ ]	/* EndIf */
NPUSHB[ ]	/* 22 values pushed */
28 27 0 0 38 36 27 46 28 46 0 26 0 26 20 40 36 17 17 10 7 27 
CALL[ ]	/* CallFunction */";
};
width = 1003;
}
);
note = uni042E;
unicode = 1070;
},
{
glyphname = uni042F;
layers = (
{
layerId = m01;
shapes = (
{
closed = 1;
nodes = (
(506,274,l),
(506,0,l),
(571,0,l),
(571,707,l),
(313,707,ls),
(257,707,o),
(165,684,o),
(97,631,o),
(60,548,o),
(60,488,qs),
(60,318,o),
(227,283,q),
(72,0,l),
(148,0,l),
(293,274,l)
);
},
{
closed = 1;
nodes = (
(276,334,o),
(207,350,o),
(156,387,o),
(126,447,o),
(126,491,qs),
(126,535,o),
(153,595,o),
(201,631,o),
(270,647,o),
(312,647,qs),
(506,647,l),
(506,334,l),
(315,334,ls)
);
}
);
userData = {
assembly = "NPUSHB[ ]	/* 46 values pushed */
2 1 3 5 1 76 6 1 5 0 3 0 5 3 103 0 4 4 1 95 0 1 1 20 77 2 1 0 0 21 0 78 15 15 15 27 15 26 34 17 17 39 16 7 7 27 
CALL[ ]	/* CallFunction */";
};
width = 663;
}
);
note = uni042F;
unicode = 1071;
},
{
glyphname = uni0440;
kernLeft = uni0432;
layers = (
{
layerId = m01;
shapes = (
{
closed = 1;
nodes = (
(154,51,o),
(199,20,o),
(245,1,o),
(297,-6,o),
(323,-6,qs),
(368,-6,o),
(443,17,o),
(470,38,qs),
(515,72,o),
(558,182,o),
(560,250,qs),
(561,306,o),
(537,409,o),
(481,487,o),
(393,533,o),
(331,533,qs),
(293,533,o),
(228,517,o),
(198,498,qs),
(162,474,o),
(138,437,q),
(138,527,l),
(72,527,l),
(72,-197,l),
(138,-197,l),
(138,76,l)
);
},
{
closed = 1;
nodes = (
(208,84,qs),
(167,115,o),
(136,213,o),
(136,262,qs),
(136,303,o),
(156,378,o),
(179,407,qs),
(202,438,o),
(273,477,o),
(317,477,qs),
(366,477,o),
(433,442,o),
(475,384,o),
(494,305,o),
(494,262,qs),
(494,220,o),
(474,143,o),
(432,84,o),
(366,50,o),
(319,50,qs),
(254,50,o)
);
}
);
userData = {
assembly = "PUSHB[ ]	/* 7 values pushed */
25 4 2 4 5 1 76 
MPPEM[ ]	/* MeasurePixelPerEm */
PUSHB[ ]	/* 1 value pushed */
20 
LT[ ]	/* LessThan */
IF[ ]	/* If */
NPUSHB[ ]	/* 28 values pushed */
0 5 5 1 97 2 1 1 1 22 77 6 1 4 4 3 97 0 3 3 30 77 0 0 0 24 0 78 
ELSE[ ]	/* Else */
MPPEM[ ]	/* MeasurePixelPerEm */
PUSHB[ ]	/* 1 value pushed */
39 
LT[ ]	/* LessThan */
IF[ ]	/* If */
NPUSHB[ ]	/* 28 values pushed */
0 0 3 0 134 0 5 5 1 97 2 1 1 1 22 77 6 1 4 4 3 97 0 3 3 30 3 78 
ELSE[ ]	/* Else */
NPUSHB[ ]	/* 32 values pushed */
0 0 3 0 134 0 1 1 22 77 0 5 5 2 97 0 2 2 29 77 6 1 4 4 3 97 0 3 3 30 3 78 
EIF[ ]	/* EndIf */
EIF[ ]	/* EndIf */
NPUSHB[ ]	/* 15 values pushed */
27 26 37 35 26 46 27 46 41 37 17 16 7 7 26 
CALL[ ]	/* CallFunction */";
};
width = 609;
}
);
note = uni0440;
unicode = 1088;
},
{
glyphname = O;
kernLeft = O;
kernRight = D;
layers = (
{
layerId = m01;
shapes = (
{
closed = 1;
nodes = (
(589,47,o),
(672,143,o),
(714,275,o),
(714,353,qs),
(714,431,o),
(672,563,o),
(589,660,o),
(466,715,o),
(384,715,qs),
(302,715,o),
(178,660,o),
(95,564,o),
(53,431,o),
(53,353,qs),
(53,275,o),
(95,143,o),
(178,46,o),
(302,-8,o),
(384,-8,qs),
(466,-8,o)
);
},
{
closed = 1;
nodes = (
(550,608,o),
(615,525,o),
(647,415,o),
(647,353,qs),
(647,290,o),
(615,180,o),
(551,98,o),
(451,51,o),
(384,51,qs),
(317,51,o),
(218,99,o),
(152,181,o),
(119,291,o),
(119,353,qs),
(119,415,o),
(151,525,o),
(217,608,o),
(317,656,o),
(384,656,qs),
(451,656,o)
);
}
);
userData = {
assembly = "NPUSHB[ ]	/* 42 values pushed */
5 1 2 2 1 97 0 1 1 46 77 0 3 3 0 97 4 1 0 0 47 0 78 21 20 1 0 31 29 20 39 21 39 11 9 0 19 1 19 6 8 22 
CALL[ ]	/* CallFunction */";
};
width = 767;
}
);
note = O;
unicode = 79;
},
{
glyphname = a;
kernLeft = abreve;
layers = (
{
layerId = m01;
shapes = (
{
closed = 1;
nodes = (
(493,0,l),
(493,286,ls),
(493,338,o),
(472,428,o),
(423,494,o),
(343,533,o),
(285,533,qs),
(253,533,o),
(188,521,o),
(131,492,o),
(89,447,o),
(80,414,q),
(152,414,l),
(161,432,o),
(190,457,o),
(225,471,o),
(264,477,o),
(283,477,qs),
(323,477,o),
(378,449,o),
(412,401,o),
(427,337,o),
(427,301,q),
(254,301,ls),
(215,301,o),
(143,286,o),
(88,250,o),
(54,190,o),
(54,145,qs),
(54,108,o),
(85,49,o),
(137,11,o),
(202,-6,o),
(237,-6,qs),
(295,-6,o),
(392,30,o),
(430,76,q),
(439,0,l)
);
},
{
closed = 1;
nodes = (
(427,212,ls),
(427,171,o),
(400,110,o),
(351,69,o),
(284,49,o),
(245,49,qs),
(221,49,o),
(176,61,o),
(141,87,o),
(120,125,o),
(120,152,qs),
(120,186,o),
(153,225,o),
(203,244,o),
(262,248,o),
(288,248,qs),
(427,248,l)
);
}
);
userData = {
assembly = "MPPEM[ ]	/* MeasurePixelPerEm */
PUSHB[ ]	/* 1 value pushed */
39 
LT[ ]	/* LessThan */
IF[ ]	/* If */
NPUSHB[ ]	/* 39 values pushed */
0 3 2 1 2 3 1 128 0 1 8 1 6 7 1 6 103 0 2 2 4 97 0 4 4 49 77 0 7 7 0 97 5 1 0 0 50 0 78 
ELSE[ ]	/* Else */
NPUSHB[ ]	/* 43 values pushed */
0 3 2 1 2 3 1 128 0 1 8 1 6 7 1 6 103 0 2 2 4 97 0 4 4 49 77 0 5 5 39 77 0 7 7 0 97 0 0 0 50 0 78 
EIF[ ]	/* EndIf */
NPUSHB[ ]	/* 17 values pushed */
40 38 49 47 38 54 40 54 21 36 20 36 40 34 9 8 28 
CALL[ ]	/* CallFunction */";
};
width = 563;
}
);
note = a;
unicode = 97;
},
{
glyphname = c;
kernLeft = d;
layers = (
{
layerId = m01;
shapes = (
{
closed = 1;
nodes = (
(402,10,o),
(459,45,o),
(501,98,o),
(512,135,q),
(444,135,l),
(427,86,o),
(351,50,o),
(303,50,qs),
(255,50,o),
(184,84,o),
(139,142,o),
(117,219,o),
(117,262,qs),
(117,306,o),
(139,384,o),
(184,443,o),
(253,477,o),
(300,477,qs),
(346,477,o),
(423,435,o),
(437,391,q),
(504,391,l),
(485,463,o),
(376,533,o),
(304,533,qs),
(242,533,o),
(148,493,o),
(84,421,o),
(52,322,o),
(52,262,qs),
(52,204,o),
(83,106,o),
(145,34,o),
(237,-6,o),
(299,-6,qs),
(334,-6,o)
);
}
);
userData = {
assembly = "NPUSHB[ ]	/* 56 values pushed */
0 2 3 5 3 2 5 128 0 5 4 3 5 4 126 0 3 3 1 97 0 1 1 49 77 0 4 4 0 97 6 1 0 0 50 0 78 1 0 31 30 28 26 18 16 14 13 11 9 0 35 1 35 7 8 22 
CALL[ ]	/* CallFunction */";
};
width = 558;
}
);
note = c;
unicode = 99;
},
{
glyphname = e;
kernLeft = d;
layers = (
{
layerId = m01;
shapes = (
{
closed = 1;
nodes = (
(527,297,o),
(504,402,o),
(450,483,o),
(363,533,o),
(300,533,qs),
(240,533,o),
(147,494,o),
(84,423,o),
(52,323,o),
(52,263,qs),
(52,204,o),
(82,105,o),
(144,34,o),
(237,-6,o),
(299,-6,qs),
(333,-6,o),
(401,8,o),
(459,39,o),
(504,89,o),
(515,124,q),
(446,124,l),
(437,103,o),
(405,75,o),
(366,58,o),
(323,50,o),
(302,50,qs),
(257,50,o),
(190,79,o),
(144,130,o),
(119,200,o),
(117,242,q),
(525,242,l)
);
},
{
closed = 1;
nodes = (
(120,332,o),
(144,397,o),
(188,447,o),
(251,477,o),
(292,477,qs),
(333,477,o),
(395,448,o),
(436,399,o),
(457,333,o),
(458,297,q),
(118,297,l)
);
}
);
userData = {
assembly = "NPUSHB[ ]	/* 60 values pushed */
0 1 4 0 4 1 0 128 8 1 6 7 1 4 1 6 4 103 0 5 5 3 97 0 3 3 49 77 0 0 0 2 97 0 2 2 50 2 78 32 32 0 0 32 42 32 42 38 36 0 31 0 31 40 36 20 36 9 8 26 
CALL[ ]	/* CallFunction */";
};
width = 577;
}
);
note = e;
unicode = 101;
},
{
glyphname = f;
layers = (
{
layerId = m01;
shapes = (
{
closed = 1;
nodes = (
(127,0,l),
(192,0,l),
(192,472,l),
(339,472,l),
(339,527,l),
(192,527,l),
(192,575,ls),
(192,610,o),
(197,661,o),
(212,681,qs),
(227,700,o),
(272,707,o),
(295,707,qs),
(339,707,l),
(339,762,l),
(288,762,ls),
(228,762,o),
(163,729,o),
(145,697,qs),
(132,674,o),
(126,617,o),
(126,580,qs),
(126,527,l),
(37,527,l),
(37,472,l),
(126,472,l),
(126,0,l)
);
}
);
userData = {
assembly = "NPUSHB[ ]	/* 36 values pushed */
0 2 0 3 1 2 3 105 5 1 0 0 1 95 4 1 1 1 41 77 0 6 6 39 6 78 17 17 22 33 38 17 16 7 8 29 
CALL[ ]	/* CallFunction */";
};
width = 366;
}
);
note = f;
unicode = 102;
},
{
glyphname = g;
kernLeft = d;
layers = (
{
layerId = m01;
shapes = (
{
closed = 1;
nodes = (
(444,495,o),
(350,533,o),
(295,533,qs),
(237,533,o),
(147,494,o),
(87,425,o),
(54,332,o),
(53,277,qs),
(51,221,o),
(76,118,o),
(131,40,o),
(222,-6,o),
(285,-6,qs),
(345,-6,o),
(442,36,o),
(475,84,q),
(475,18,ls),
(475,-27,o),
(460,-102,o),
(423,-158,o),
(358,-189,o),
(307,-189,qs),
(284,-189,o),
(237,-180,o),
(195,-161,o),
(162,-129,o),
(154,-105,q),
(86,-105,l),
(96,-143,o),
(137,-196,o),
(194,-230,o),
(264,-245,o),
(303,-245,qs),
(367,-245,o),
(458,-209,o),
(515,-142,o),
(541,-49,o),
(541,17,qs),
(541,527,l),
(479,527,l),
(475,452,l)
);
},
{
closed = 1;
nodes = (
(405,442,qs),
(446,411,o),
(477,314,o),
(477,265,qs),
(477,224,o),
(457,149,o),
(434,119,qs),
(411,89,o),
(340,50,o),
(296,50,qs),
(247,50,o),
(180,85,o),
(138,143,o),
(119,221,o),
(119,265,qs),
(119,307,o),
(139,383,o),
(181,442,o),
(247,477,o),
(294,477,qs),
(358,477,o)
);
}
);
userData = {
assembly = "PUSHB[ ]	/* 7 values pushed */
40 24 2 7 6 1 76 
MPPEM[ ]	/* MeasurePixelPerEm */
PUSHB[ ]	/* 1 value pushed */
16 
LT[ ]	/* LessThan */
IF[ ]	/* If */
NPUSHB[ ]	/* 41 values pushed */
0 2 4 3 4 2 3 128 8 1 6 6 0 97 5 1 0 0 41 77 0 7 7 4 97 0 4 4 50 77 0 3 3 1 97 0 1 1 51 1 78 
ELSE[ ]	/* Else */
MPPEM[ ]	/* MeasurePixelPerEm */
PUSHB[ ]	/* 1 value pushed */
39 
LT[ ]	/* LessThan */
IF[ ]	/* If */
NPUSHB[ ]	/* 38 values pushed */
0 2 4 3 4 2 3 128 0 3 0 1 3 1 101 8 1 6 6 0 97 5 1 0 0 41 77 0 7 7 4 97 0 4 4 50 4 78 
ELSE[ ]	/* Else */
NPUSHB[ ]	/* 42 values pushed */
0 2 4 3 4 2 3 128 0 3 0 1 3 1 101 0 0 0 41 77 8 1 6 6 5 97 0 5 5 49 77 0 7 7 4 97 0 4 4 50 4 78 
EIF[ ]	/* EndIf */
EIF[ ]	/* EndIf */
NPUSHB[ ]	/* 17 values pushed */
42 41 52 50 41 61 42 61 40 39 36 20 37 16 9 8 28 
CALL[ ]	/* CallFunction */";
};
width = 613;
}
);
note = g;
unicode = 103;
},
{
glyphname = j;
layers = (
{
layerId = m01;
shapes = (
{
closed = 1;
nodes = (
(88,692,o),
(88,669,qs),
(88,646,o),
(115,620,o),
(137,620,qs),
(160,620,o),
(187,646,o),
(187,669,qs),
(187,691,o),
(160,717,o),
(137,717,qs),
(115,717,o)
);
},
{
closed = 1;
nodes = (
(105,527,l),
(105,2,ls),
(105,-45,o),
(95,-92,o),
(80,-107,qs),
(66,-122,o),
(19,-132,o),
(-1,-132,qs),
(-26,-132,l),
(-26,-187,l),
(10,-187,ls),
(98,-187,o),
(134,-148,qs),
(147,-133,o),
(162,-98,o),
(170,-59,o),
(171,-19,o),
(171,0,qs),
(171,527,l)
);
}
);
userData = {
assembly = "MPPEM[ ]	/* MeasurePixelPerEm */
PUSHB[ ]	/* 1 value pushed */
16 
LT[ ]	/* LessThan */
IF[ ]	/* If */
NPUSHB[ ]	/* 27 values pushed */
0 1 1 0 97 5 1 0 0 48 77 0 4 4 41 77 0 3 3 2 97 0 2 2 43 2 78 
ELSE[ ]	/* Else */
NPUSHB[ ]	/* 24 values pushed */
0 3 0 2 3 2 101 0 1 1 0 97 5 1 0 0 48 77 0 4 4 41 4 78 
EIF[ ]	/* EndIf */
NPUSHB[ ]	/* 17 values pushed */
1 0 30 29 23 21 20 18 7 5 0 11 1 11 6 8 22 
CALL[ ]	/* CallFunction */";
};
width = 251;
}
);
note = j;
unicode = 106;
},
{
glyphname = o;
kernLeft = d;
layers = (
{
layerId = m01;
shapes = (
{
closed = 1;
nodes = (
(183,83,o),
(138,141,o),
(117,219,o),
(117,263,qs),
(117,307,o),
(138,385,o),
(183,443,o),
(253,477,o),
(301,477,qs),
(349,477,o),
(419,443,o),
(464,385,o),
(485,307,o),
(485,263,qs),
(485,219,o),
(464,141,o),
(419,83,o),
(349,50,o),
(301,50,qs),
(253,50,o)
);
},
{
closed = 1;
nodes = (
(146,493,o),
(83,421,o),
(52,322,o),
(52,263,qs),
(52,204,o),
(83,105,o),
(146,34,o),
(239,-6,o),
(301,-6,qs),
(363,-6,o),
(456,34,o),
(519,105,o),
(551,204,o),
(551,263,qs),
(551,322,o),
(519,421,o),
(456,493,o),
(363,533,o),
(301,533,qs),
(239,533,o)
);
}
);
userData = {
assembly = "NPUSHB[ ]	/* 42 values pushed */
0 1 1 2 97 5 1 2 2 49 77 4 1 0 0 3 97 0 3 3 50 3 78 21 20 1 0 31 29 20 39 21 39 11 9 0 19 1 19 6 8 22 
CALL[ ]	/* CallFunction */";
};
width = 603;
}
);
note = o;
unicode = 111;
},
{
glyphname = r;
kernLeft = r;
kernRight = r;
layers = (
{
layerId = m01;
shapes = (
{
closed = 1;
nodes = (
(138,258,ls),
(138,303,o),
(157,385,o),
(189,418,qs),
(212,443,o),
(282,472,o),
(330,472,qs),
(348,472,l),
(348,532,l),
(315,533,o),
(255,526,o),
(201,504,o),
(156,466,o),
(138,436,q),
(136,527,l),
(72,527,l),
(72,0,l),
(138,0,l)
);
}
);
userData = {
assembly = "PUSHB[ ]	/* 6 values pushed */
3 1 3 2 1 76 
MPPEM[ ]	/* MeasurePixelPerEm */
PUSHB[ ]	/* 1 value pushed */
46 
LT[ ]	/* LessThan */
IF[ ]	/* If */
NPUSHB[ ]	/* 18 values pushed */
0 2 2 0 97 1 1 0 0 41 77 4 1 3 3 39 3 78 
ELSE[ ]	/* Else */
NPUSHB[ ]	/* 22 values pushed */
0 0 0 41 77 0 2 2 1 97 0 1 1 49 77 4 1 3 3 39 3 78 
EIF[ ]	/* EndIf */
NPUSHB[ ]	/* 12 values pushed */
0 0 0 17 0 17 33 21 17 5 8 25 
CALL[ ]	/* CallFunction */";
};
width = 370;
}
);
note = r;
unicode = 114;
},
{
glyphname = t;
kernLeft = t;
layers = (
{
layerId = m01;
shapes = (
{
closed = 1;
nodes = (
(123,678,l),
(123,527,l),
(34,527,l),
(34,471,l),
(123,471,l),
(123,171,ls),
(123,128,o),
(140,61,o),
(159,41,qs),
(184,16,o),
(251,0,o),
(285,0,qs),
(331,0,l),
(331,57,l),
(291,57,ls),
(274,57,o),
(238,64,o),
(225,72,qs),
(200,88,o),
(189,148,o),
(189,175,qs),
(189,471,l),
(336,471,l),
(336,527,l),
(189,527,l),
(189,678,l)
);
}
);
userData = {
assembly = "NPUSHB[ ]	/* 38 values pushed */
0 6 0 6 133 4 1 1 1 0 95 5 1 0 0 41 77 0 2 2 3 97 0 3 3 39 3 78 17 17 22 33 38 17 16 7 8 29 
CALL[ ]	/* CallFunction */";
};
width = 370;
}
);
note = t;
unicode = 116;
},
{
glyphname = y2_alt;
layers = (
{
layerId = m01;
shapes = (
{
closed = 1;
nodes = (
(101,527,l),
(22,527,l),
(260,-32,l),
(252,-52,o),
(232,-93,o),
(206,-129,o),
(173,-158,o),
(151,-165,qs),
(138,-170,o),
(106,-172,o),
(88,-172,q),
(88,-235,l),
(139,-235,o),
(212,-216,o),
(244,-185,qs),
(261,-169,o),
(294,-115,o),
(323,-55,o),
(347,5,o),
(355,28,qs),
(531,527,l),
(455,527,l),
(298,52,l)
);
}
);
userData = {
assembly = "PUSHB[ ]	/* 7 values pushed */
22 19 2 2 0 1 76 
MPPEM[ ]	/* MeasurePixelPerEm */
PUSHB[ ]	/* 1 value pushed */
20 
LT[ ]	/* LessThan */
IF[ ]	/* If */
NPUSHB[ ]	/* 17 values pushed */
3 1 0 0 22 77 0 2 2 1 97 0 1 1 31 1 78 
ELSE[ ]	/* Else */
NPUSHB[ ]	/* 14 values pushed */
0 2 0 1 2 1 101 3 1 0 0 22 0 78 
EIF[ ]	/* EndIf */
PUSHB[ ]	/* 7 values pushed */
23 33 24 16 4 7 26 
CALL[ ]	/* CallFunction */";
};
width = 548;
}
);
note = y2_alt;
},
{
glyphname = uni0443;
layers = (
{
layerId = m01;
shapes = (
{
closed = 1;
nodes = (
(101,527,l),
(22,527,l),
(255,-32,l),
(247,-52,o),
(227,-93,o),
(201,-129,o),
(168,-158,o),
(146,-165,qs),
(133,-170,o),
(101,-172,o),
(83,-172,q),
(83,-235,l),
(134,-235,o),
(207,-217,o),
(239,-185,qs),
(256,-169,o),
(289,-115,o),
(318,-55,o),
(342,5,o),
(350,28,qs),
(526,527,l),
(450,527,l),
(293,52,l)
);
}
);
userData = {
assembly = "PUSHB[ ]	/* 7 values pushed */
22 19 2 2 0 1 76 
MPPEM[ ]	/* MeasurePixelPerEm */
PUSHB[ ]	/* 1 value pushed */
20 
LT[ ]	/* LessThan */
IF[ ]	/* If */
NPUSHB[ ]	/* 17 values pushed */
3 1 0 0 22 77 0 2 2 1 97 0 1 1 31 1 78 
ELSE[ ]	/* Else */
NPUSHB[ ]	/* 14 values pushed */
0 2 0 1 2 1 101 3 1 0 0 22 0 78 
EIF[ ]	/* EndIf */
PUSHB[ ]	/* 7 values pushed */
23 33 24 16 4 7 26 
CALL[ ]	/* CallFunction */";
};
width = 543;
}
);
note = uni0443;
unicode = 1091;
},
{
glyphname = uni0451;
kernLeft = uni0444;
layers = (
{
layerId = m01;
shapes = (
{
closed = 1;
nodes = (
(129,677,o),
(129,657,qs),
(129,637,o),
(158,609,o),
(178,609,qs),
(198,609,o),
(228,636,o),
(228,657,qs),
(228,678,o),
(198,705,o),
(178,705,qs),
(158,705,o)
);
},
{
closed = 1;
nodes = (
(360,677,o),
(360,657,qs),
(360,637,o),
(388,609,o),
(408,609,qs),
(428,609,o),
(458,636,o),
(458,657,qs),
(458,678,o),
(428,705,o),
(408,705,qs),
(388,705,o)
);
},
{
closed = 1;
nodes = (
(527,297,o),
(505,402,o),
(451,483,o),
(365,533,o),
(302,533,qs),
(241,533,o),
(147,494,o),
(84,423,o),
(52,324,o),
(52,263,qs),
(52,204,o),
(82,105,o),
(144,34,o),
(237,-6,o),
(299,-6,qs),
(333,-6,o),
(401,8,o),
(459,39,o),
(504,89,o),
(515,124,q),
(446,124,l),
(437,103,o),
(405,75,o),
(366,58,o),
(323,50,o),
(302,50,qs),
(257,50,o),
(190,79,o),
(144,130,o),
(119,200,o),
(117,242,q),
(525,242,l)
);
},
{
closed = 1;
nodes = (
(120,333,o),
(144,398,o),
(188,448,o),
(252,477,o),
(293,477,qs),
(334,477,o),
(395,448,o),
(436,399,o),
(457,333,o),
(458,297,q),
(118,297,l)
);
}
);
userData = {
assembly = "NPUSHB[ ]	/* 94 values pushed */
0 5 8 4 8 5 4 128 14 1 10 13 1 8 5 10 8 103 3 1 1 1 0 97 12 2 11 3 0 0 20 77 0 9 9 7 97 0 7 7 29 77 0 4 4 6 97 0 6 6 30 6 78 56 56 24 24 13 12 1 0 56 66 56 66 62 60 24 55 24 55 51 49 41 39 35 34 30 28 19 17 12 23 13 23 7 5 0 11 1 11 15 7 22 
CALL[ ]	/* CallFunction */";
};
width = 577;
}
);
note = uni0451;
unicode = 1105;
},
{
glyphname = uni0437;
kernLeft = uni0444;
layers = (
{
layerId = m01;
shapes = (
{
closed = 1;
nodes = (
(447,354,o),
(447,397,qs),
(447,436,o),
(412,489,o),
(358,520,o),
(291,533,o),
(259,533,qs),
(228,533,o),
(161,521,o),
(104,492,o),
(64,443,o),
(61,406,q),
(126,406,l),
(131,428,o),
(160,456,o),
(198,472,o),
(241,477,o),
(260,477,qs),
(281,477,o),
(325,468,o),
(361,448,o),
(384,414,o),
(384,389,qs),
(384,360,o),
(353,320,o),
(331,309,qs),
(311,299,o),
(263,293,o),
(240,293,qs),
(172,293,l),
(172,238,l),
(266,238,ls),
(291,238,o),
(341,232,o),
(380,213,o),
(405,177,o),
(405,147,qs),
(405,117,o),
(378,79,o),
(336,58,o),
(285,50,o),
(260,50,qs),
(241,50,o),
(193,57,o),
(148,73,o),
(113,102,o),
(107,125,q),
(42,125,l),
(46,85,o),
(90,34,o),
(153,5,o),
(226,-6,o),
(259,-6,qs),
(296,-6,o),
(372,8,o),
(432,43,o),
(470,102,o),
(470,147,qs),
(470,200,o),
(421,264,o),
(368,278,q),
(409,293,o)
);
}
);
userData = {
assembly = "NPUSHB[ ]	/* 56 values pushed */
0 6 5 4 5 6 4 128 0 1 3 2 3 1 2 128 0 4 0 3 1 4 3 103 0 5 5 7 97 0 7 7 29 77 0 2 2 0 97 0 0 0 30 0 78 36 20 41 33 40 36 20 39 8 7 30 
CALL[ ]	/* CallFunction */";
};
width = 518;
}
);
note = uni0437;
unicode = 1079;
},
{
glyphname = uni044D;
kernLeft = uni0444;
layers = (
{
layerId = m01;
shapes = (
{
closed = 1;
nodes = (
(177,234,l),
(437,234,l),
(436,195,o),
(414,128,o),
(371,79,o),
(308,50,o),
(266,50,qs),
(243,50,o),
(196,59,o),
(153,79,o),
(120,111,o),
(112,135,q),
(44,135,l),
(54,97,o),
(97,44,o),
(156,10,o),
(225,-6,o),
(262,-6,qs),
(325,-6,o),
(416,34,o),
(475,105,o),
(504,204,o),
(504,263,qs),
(504,321,o),
(476,420,o),
(417,492,o),
(327,533,o),
(265,533,qs),
(229,533,o),
(160,517,o),
(103,482,o),
(60,429,o),
(50,392,q),
(114,392,l),
(122,416,o),
(155,448,o),
(196,468,o),
(243,477,o),
(266,477,qs),
(308,477,o),
(371,447,o),
(413,396,o),
(436,327,o),
(438,289,q),
(177,289,l)
);
}
);
userData = {
assembly = "NPUSHB[ ]	/* 62 values pushed */
0 1 0 7 0 1 7 128 0 4 6 5 6 4 5 128 8 1 7 0 6 4 7 6 103 0 0 0 2 97 0 2 2 29 77 0 5 5 3 97 0 3 3 30 3 78 0 0 0 44 0 44 20 36 20 40 36 20 36 9 7 29 
CALL[ ]	/* CallFunction */";
};
width = 552;
}
);
note = uni044D;
unicode = 1101;
},
{
glyphname = C;
kernLeft = O;
kernRight = D;
layers = (
{
layerId = m01;
shapes = (
{
closed = 1;
nodes = (
(470,643,o),
(524,614,o),
(567,570,o),
(579,539,q),
(645,539,l),
(631,586,o),
(580,653,o),
(509,695,o),
(424,715,o),
(378,715,qs),
(296,715,o),
(174,660,o),
(93,563,o),
(53,430,o),
(53,353,qs),
(53,275,o),
(92,143,o),
(171,47,o),
(293,-8,o),
(376,-8,qs),
(422,-8,o),
(511,12,o),
(586,54,o),
(643,121,o),
(658,168,q),
(585,168,l),
(573,137,o),
(529,93,o),
(473,64,o),
(409,51,o),
(378,51,qs),
(310,51,o),
(213,100,o),
(150,183,o),
(120,293,o),
(120,355,qs),
(120,416,o),
(150,525,o),
(212,608,o),
(309,656,o),
(377,656,qs),
(408,656,o)
);
}
);
userData = {
assembly = "NPUSHB[ ]	/* 56 values pushed */
0 5 0 2 0 5 2 128 0 2 1 0 2 1 126 6 1 0 0 4 97 0 4 4 46 77 0 1 1 3 97 0 3 3 47 3 78 1 0 37 36 32 30 22 20 16 15 11 9 0 41 1 41 7 8 22 
CALL[ ]	/* CallFunction */";
};
width = 705;
}
);
note = C;
unicode = 67;
},
{
glyphname = S;
kernLeft = O;
kernRight = D;
layers = (
{
layerId = m01;
shapes = (
{
closed = 1;
nodes = (
(417,645,o),
(464,619,o),
(497,576,o),
(503,543,q),
(569,543,l),
(563,590,o),
(519,655,o),
(454,696,o),
(374,715,o),
(331,715,qs),
(284,715,o),
(196,695,o),
(127,649,o),
(86,576,o),
(86,522,qs),
(86,448,o),
(171,362,o),
(239,344,qs),
(279,333,o),
(356,317,o),
(396,307,qs),
(422,301,o),
(468,282,o),
(502,252,o),
(522,211,o),
(522,182,qs),
(522,146,o),
(491,96,o),
(441,65,o),
(379,51,o),
(348,51,qs),
(315,51,o),
(250,63,o),
(191,90,o),
(145,135,o),
(132,168,q),
(62,168,l),
(75,119,o),
(131,52,o),
(206,10,o),
(294,-8,o),
(341,-8,qs),
(392,-8,o),
(482,14,o),
(549,63,o),
(589,142,o),
(589,198,qs),
(589,233,o),
(566,286,o),
(526,325,o),
(472,351,o),
(441,360,qs),
(400,371,o),
(324,388,o),
(284,399,qs),
(258,406,o),
(211,426,o),
(175,457,o),
(154,500,o),
(154,530,qs),
(154,567,o),
(186,616,o),
(237,645,o),
(300,656,o),
(331,656,qs),
(361,656,o)
);
}
);
userData = {
assembly = "NPUSHB[ ]	/* 56 values pushed */
0 5 0 2 0 5 2 128 0 2 3 0 2 3 126 6 1 0 0 4 97 0 4 4 46 77 0 3 3 1 97 0 1 1 47 1 78 1 0 61 60 56 54 35 33 29 28 24 22 0 65 1 65 7 8 22 
CALL[ ]	/* CallFunction */";
};
width = 652;
}
);
note = S;
unicode = 83;
},
{
glyphname = uni0421;
kernLeft = uni0417;
kernRight = uni0417;
layers = (
{
layerId = m01;
shapes = (
{
closed = 1;
nodes = (
(470,643,o),
(524,614,o),
(567,570,o),
(579,539,q),
(645,539,l),
(631,586,o),
(580,652,o),
(509,695,o),
(424,715,o),
(378,715,qs),
(297,715,o),
(174,660,o),
(93,563,o),
(53,430,o),
(53,353,qs),
(53,275,o),
(92,143,o),
(171,47,o),
(293,-8,o),
(376,-8,qs),
(422,-8,o),
(511,12,o),
(586,54,o),
(643,121,o),
(658,168,q),
(585,168,l),
(573,137,o),
(529,93,o),
(473,64,o),
(409,51,o),
(378,51,qs),
(310,51,o),
(213,100,o),
(150,183,o),
(120,293,o),
(120,355,qs),
(120,416,o),
(150,525,o),
(212,608,o),
(310,655,o),
(377,656,qs),
(408,656,o)
);
}
);
userData = {
assembly = "NPUSHB[ ]	/* 56 values pushed */
0 5 0 2 0 5 2 128 0 2 1 0 2 1 126 6 1 0 0 4 97 0 4 4 27 77 0 1 1 3 97 0 3 3 28 3 78 1 0 37 36 32 30 22 20 16 15 11 9 0 41 1 41 7 7 22 
CALL[ ]	/* CallFunction */";
};
width = 711;
}
);
note = uni0421;
unicode = 1057;
},
{
glyphname = G;
kernLeft = O;
kernRight = D;
layers = (
{
layerId = m01;
shapes = (
{
closed = 1;
nodes = (
(468,642,o),
(523,614,o),
(566,570,o),
(578,539,q),
(651,539,l),
(636,586,o),
(581,653,o),
(508,695,o),
(421,715,o),
(374,715,qs),
(290,715,o),
(169,656,o),
(90,556,o),
(53,420,o),
(54,344,qs),
(55,268,o),
(95,139,o),
(175,45,o),
(295,-8,o),
(376,-8,qs),
(444,-8,o),
(554,36,o),
(631,117,o),
(673,228,o),
(673,296,qs),
(673,346,l),
(373,346,l),
(373,286,l),
(613,286,l),
(612,233,o),
(579,146,o),
(519,85,o),
(432,51,o),
(377,51,qs),
(310,51,o),
(214,99,o),
(152,180,o),
(122,288,o),
(121,349,qs),
(120,409,o),
(148,520,o),
(209,605,o),
(306,656,o),
(375,656,qs),
(406,656,o)
);
}
);
userData = {
assembly = "NPUSHB[ ]	/* 59 values pushed */
0 6 0 3 0 6 3 128 0 3 0 2 1 3 2 103 7 1 0 0 5 97 0 5 5 46 77 0 1 1 4 97 0 4 4 47 4 78 1 0 40 39 35 33 25 23 18 17 16 15 11 9 0 44 1 44 8 8 22 
CALL[ ]	/* CallFunction */";
};
width = 726;
}
);
note = G;
unicode = 71;
},
{
glyphname = uni041E;
kernLeft = uni0417;
kernRight = uni0417;
layers = (
{
layerId = m01;
shapes = (
{
closed = 1;
nodes = (
(589,47,o),
(672,143,o),
(714,275,o),
(714,353,qs),
(714,431,o),
(672,563,o),
(589,660,o),
(466,715,o),
(384,715,qs),
(302,715,o),
(178,660,o),
(95,564,o),
(53,431,o),
(53,353,qs),
(53,275,o),
(95,143,o),
(178,46,o),
(302,-8,o),
(384,-8,qs),
(466,-8,o)
);
},
{
closed = 1;
nodes = (
(550,608,o),
(615,525,o),
(647,415,o),
(647,353,qs),
(647,290,o),
(615,180,o),
(551,98,o),
(451,51,o),
(384,51,qs),
(317,51,o),
(218,99,o),
(152,181,o),
(119,291,o),
(119,353,qs),
(119,415,o),
(151,525,o),
(217,608,o),
(317,656,o),
(384,656,qs),
(451,656,o)
);
}
);
userData = {
assembly = "NPUSHB[ ]	/* 42 values pushed */
5 1 2 2 1 97 0 1 1 27 77 0 3 3 0 97 4 1 0 0 28 0 78 21 20 1 0 31 29 20 39 21 39 11 9 0 19 1 19 6 7 22 
CALL[ ]	/* CallFunction */";
};
width = 767;
}
);
note = uni041E;
unicode = 1054;
},
{
glyphname = Q;
kernLeft = O;
kernRight = D;
layers = (
{
layerId = m01;
shapes = (
{
closed = 1;
nodes = (
(536,23,q),
(647,-131,l),
(700,-92,l),
(592,58,l),
(653,106,o),
(714,259,o),
(714,353,qs),
(714,431,o),
(672,563,o),
(589,660,o),
(466,715,o),
(384,715,qs),
(302,715,o),
(178,660,o),
(95,564,o),
(53,431,o),
(53,353,qs),
(53,275,o),
(95,143,o),
(178,46,o),
(302,-8,o),
(384,-8,qs),
(469,-8,o)
);
},
{
closed = 1;
nodes = (
(550,608,o),
(615,525,o),
(647,415,o),
(647,353,qs),
(647,290,o),
(615,180,o),
(551,98,o),
(451,51,o),
(384,51,qs),
(317,51,o),
(218,99,o),
(152,181,o),
(119,291,o),
(119,353,qs),
(119,415,o),
(151,525,o),
(217,608,o),
(317,656,o),
(384,656,qs),
(451,656,o)
);
}
);
userData = {
assembly = "NPUSHB[ ]	/* 57 values pushed */
18 1 3 2 21 1 0 3 2 76 20 19 2 0 73 5 1 2 2 1 97 0 1 1 46 77 0 3 3 0 97 4 1 0 0 47 0 78 24 23 1 0 34 32 23 42 24 42 11 9 0 22 1 22 6 8 22 
CALL[ ]	/* CallFunction */";
};
width = 767;
}
);
note = Q;
unicode = 81;
},
{
glyphname = J;
layers = (
{
layerId = m01;
shapes = (
{
closed = 1;
nodes = (
(58,80,o),
(169,-8,o),
(260,-8,qs),
(322,-8,o),
(406,34,o),
(452,103,o),
(470,192,o),
(470,239,qs),
(470,707,l),
(405,707,l),
(405,241,ls),
(405,203,o),
(395,134,o),
(365,82,o),
(310,51,o),
(265,51,qs),
(200,51,o),
(123,113,o),
(115,179,q),
(47,179,l)
);
}
);
userData = {
assembly = "NPUSHB[ ]	/* 37 values pushed */
4 1 3 1 0 1 3 0 128 0 1 1 38 77 0 0 0 2 97 0 2 2 47 2 78 0 0 0 19 0 19 37 21 34 5 8 25 
CALL[ ]	/* CallFunction */";
};
width = 557;
}
);
note = J;
unicode = 74;
},
{
glyphname = K_alt;
kernRight = K_alt;
layers = (
{
layerId = m01;
shapes = (
{
closed = 1;
nodes = (
(157,227,l),
(264,345,l),
(519,0,l),
(597,0,l),
(310,390,l),
(595,707,l),
(521,707,l),
(157,297,l),
(157,707,l),
(92,707,l),
(92,0,l),
(157,0,l)
);
}
);
userData = {
assembly = "NPUSHB[ ]	/* 35 values pushed */
10 9 6 3 4 2 0 1 76 1 1 0 0 20 77 4 3 2 2 2 21 2 78 0 0 0 11 0 11 18 18 17 5 7 25 
CALL[ ]	/* CallFunction */";
};
width = 616;
}
);
note = K_alt;
},
{
glyphname = K;
kernRight = K_alt;
layers = (
{
layerId = m01;
shapes = (
{
closed = 1;
nodes = (
(157,312,l),
(292,312,l),
(519,0,l),
(597,0,l),
(342,355,l),
(595,707,l),
(518,707,l),
(281,372,l),
(157,372,l),
(157,707,l),
(92,707,l),
(92,0,l),
(157,0,l)
);
}
);
userData = {
assembly = "NPUSHB[ ]	/* 42 values pushed */
7 1 4 1 1 76 0 1 0 4 3 1 4 103 2 1 0 0 38 77 6 5 2 3 3 39 3 78 0 0 0 12 0 12 17 18 17 17 17 7 8 27 
CALL[ ]	/* CallFunction */";
};
width = 616;
}
);
note = K;
unicode = 75;
},
{
glyphname = k_alt;
layers = (
{
layerId = m01;
shapes = (
{
closed = 1;
nodes = (
(138,164,l),
(233,264,l),
(428,0,l),
(504,0,l),
(278,308,l),
(488,527,l),
(413,527,l),
(138,236,l),
(138,707,l),
(72,707,l),
(72,0,l),
(138,0,l)
);
}
);
userData = {
assembly = "NPUSHB[ ]	/* 39 values pushed */
10 9 6 3 4 2 1 1 76 0 0 0 20 77 0 1 1 22 77 4 3 2 2 2 21 2 78 0 0 0 11 0 11 18 18 17 5 7 25 
CALL[ ]	/* CallFunction */";
};
width = 523;
}
);
note = k_alt;
},
{
glyphname = k;
layers = (
{
layerId = m01;
shapes = (
{
closed = 1;
nodes = (
(138,236,l),
(258,236,l),
(428,0,l),
(504,0,l),
(310,274,l),
(487,527,l),
(414,527,l),
(251,291,l),
(138,291,l),
(138,707,l),
(72,707,l),
(72,0,l),
(138,0,l)
);
}
);
userData = {
assembly = "NPUSHB[ ]	/* 46 values pushed */
7 1 4 1 1 76 0 1 0 4 3 1 4 103 0 0 0 38 77 0 2 2 41 77 6 5 2 3 3 39 3 78 0 0 0 12 0 12 17 18 17 17 17 7 8 27 
CALL[ ]	/* CallFunction */";
};
width = 516;
}
);
note = k;
unicode = 107;
},
{
glyphname = i_alt;
layers = (
{
layerId = m01;
shapes = (
{
closed = 1;
nodes = (
(172,527,l),
(17,527,l),
(17,472,l),
(106,472,l),
(106,0,l),
(172,0,l)
);
},
{
closed = 1;
nodes = (
(86,692,o),
(86,669,qs),
(86,646,o),
(113,620,o),
(135,620,qs),
(157,620,o),
(185,646,o),
(185,669,qs),
(185,691,o),
(157,717,o),
(135,717,qs),
(113,717,o)
);
}
);
userData = {
assembly = "NPUSHB[ ]	/* 47 values pushed */
0 4 4 3 97 6 1 3 3 27 77 0 0 0 1 95 0 1 1 22 77 5 1 2 2 21 2 78 7 6 0 0 13 11 6 17 7 17 0 5 0 5 17 17 7 7 24 
CALL[ ]	/* CallFunction */";
};
width = 249;
}
);
note = i_alt;
},
{
glyphname = j_alt;
layers = (
{
layerId = m01;
shapes = (
{
closed = 1;
nodes = (
(29,527,l),
(29,472,l),
(118,472,l),
(118,-11,ls),
(118,-52,o),
(102,-101,o),
(69,-126,o),
(20,-134,o),
(-13,-133,q),
(-13,-187,l),
(23,-187,ls),
(110,-187,o),
(184,-107,o),
(184,-21,qs),
(184,527,l)
);
},
{
closed = 1;
nodes = (
(98,692,o),
(98,669,qs),
(98,646,o),
(125,620,o),
(147,620,qs),
(169,620,o),
(197,646,o),
(197,669,qs),
(197,691,o),
(169,717,o),
(147,717,qs),
(125,717,o)
);
}
);
userData = {
assembly = "MPPEM[ ]	/* MeasurePixelPerEm */
PUSHB[ ]	/* 1 value pushed */
20 
LT[ ]	/* LessThan */
IF[ ]	/* If */
NPUSHB[ ]	/* 32 values pushed */
0 5 5 4 97 6 1 4 4 27 77 0 2 2 3 95 0 3 3 22 77 0 1 1 0 97 0 0 0 24 0 78 
ELSE[ ]	/* Else */
NPUSHB[ ]	/* 29 values pushed */
0 1 0 0 1 0 101 0 5 5 4 97 6 1 4 4 27 77 0 2 2 3 95 0 3 3 22 2 78 
EIF[ ]	/* EndIf */
NPUSHB[ ]	/* 15 values pushed */
16 15 22 20 15 26 16 26 17 21 17 34 7 7 26 
CALL[ ]	/* CallFunction */";
};
width = 261;
}
);
note = j_alt;
},
{
glyphname = s_alt;
kernLeft = d;
layers = (
{
layerId = m01;
shapes = (
{
closed = 1;
nodes = (
(337,469,o),
(378,453,o),
(409,426,o),
(416,408,q),
(477,408,l),
(471,442,o),
(430,490,o),
(373,520,o),
(307,533,o),
(276,533,qs),
(241,533,o),
(165,519,o),
(103,486,o),
(63,428,o),
(63,387,qs),
(63,327,o),
(133,258,o),
(193,247,qs),
(209,243,o),
(246,237,o),
(288,231,o),
(328,224,o),
(343,221,qs),
(360,217,o),
(392,206,o),
(416,188,o),
(430,160,o),
(430,140,qs),
(430,111,o),
(400,75,o),
(355,56,o),
(303,50,o),
(280,50,qs),
(257,50,o),
(208,58,o),
(163,75,o),
(126,104,o),
(115,127,q),
(48,127,l),
(56,89,o),
(104,39,o),
(169,8,o),
(243,-6,o),
(277,-6,qs),
(314,-6,o),
(392,7,o),
(455,42,o),
(495,102,o),
(495,144,qs),
(495,202,o),
(429,264,o),
(375,275,qs),
(343,283,o),
(257,294,o),
(225,300,qs),
(207,303,o),
(173,316,o),
(145,337,o),
(128,368,o),
(128,389,qs),
(128,416,o),
(157,450,o),
(200,469,o),
(251,477,o),
(274,477,qs),
(293,477,o)
);
}
);
userData = {
assembly = "NPUSHB[ ]	/* 56 values pushed */
0 5 0 2 0 5 2 128 0 2 3 0 2 3 126 6 1 0 0 4 97 0 4 4 29 77 0 3 3 1 97 0 1 1 30 1 78 1 0 61 60 56 54 33 31 27 26 22 20 0 65 1 65 7 7 22 
CALL[ ]	/* CallFunction */";
};
width = 544;
}
);
note = s_alt;
},
{
glyphname = s;
kernLeft = d;
layers = (
{
layerId = m01;
shapes = (
{
closed = 1;
nodes = (
(316,469,o),
(352,453,o),
(380,426,o),
(387,408,q),
(448,408,l),
(442,442,o),
(405,490,o),
(353,520,o),
(290,533,o),
(259,533,qs),
(224,533,o),
(152,519,o),
(95,486,o),
(59,430,o),
(59,387,qs),
(59,327,o),
(131,260,o),
(186,247,qs),
(218,239,o),
(278,228,o),
(309,221,qs),
(326,217,o),
(359,206,o),
(385,188,o),
(401,160,o),
(401,140,qs),
(401,111,o),
(375,75,o),
(335,56,o),
(286,50,o),
(263,50,qs),
(240,50,o),
(195,58,o),
(155,75,o),
(122,104,o),
(111,127,q),
(44,127,l),
(52,89,o),
(96,39,o),
(156,8,o),
(226,-6,o),
(260,-6,qs),
(297,-6,o),
(371,7,o),
(429,42,o),
(466,100,o),
(466,144,qs),
(466,202,o),
(399,264,o),
(346,275,qs),
(314,283,o),
(252,295,o),
(220,302,qs),
(202,306,o),
(168,318,o),
(141,338,o),
(124,368,o),
(124,389,qs),
(124,416,o),
(149,450,o),
(187,469,o),
(234,477,o),
(257,477,qs),
(276,477,o)
);
}
);
userData = {
assembly = "NPUSHB[ ]	/* 56 values pushed */
0 5 0 2 0 5 2 128 0 2 3 0 2 3 126 6 1 0 0 4 97 0 4 4 49 77 0 3 3 1 97 0 1 1 50 1 78 1 0 59 58 54 52 33 31 27 26 22 20 0 63 1 63 7 8 22 
CALL[ ]	/* CallFunction */";
};
width = 510;
}
);
note = s;
unicode = 115;
},
{
glyphname = c_alt;
kernLeft = d;
layers = (
{
layerId = m01;
shapes = (
{
closed = 1;
nodes = (
(390,7,o),
(444,36,o),
(488,79,o),
(501,109,q),
(430,109,l),
(409,75,o),
(337,50,o),
(299,50,qs),
(251,50,o),
(181,84,o),
(135,143,o),
(113,220,o),
(113,263,qs),
(113,308,o),
(137,387,o),
(185,444,o),
(256,477,o),
(305,477,qs),
(343,477,o),
(412,444,o),
(429,411,q),
(497,411,l),
(485,445,o),
(445,492,o),
(393,521,o),
(333,533,o),
(301,533,qs),
(239,533,o),
(145,494,o),
(81,422,o),
(48,323,o),
(48,263,qs),
(48,204,o),
(79,105,o),
(141,34,o),
(233,-6,o),
(295,-6,qs),
(327,-6,o)
);
}
);
userData = {
assembly = "NPUSHB[ ]	/* 56 values pushed */
0 2 3 5 3 2 5 128 0 5 4 3 5 4 126 0 3 3 1 97 0 1 1 29 77 0 4 4 0 97 6 1 0 0 30 0 78 1 0 33 32 30 28 20 18 16 15 11 9 0 37 1 37 7 7 22 
CALL[ ]	/* CallFunction */";
};
width = 549;
}
);
note = c_alt;
},
{
glyphname = copyright;
layers = (
{
layerId = m01;
shapes = (
{
closed = 1;
nodes = (
(226,653,o),
(121,541,o),
(64,386,o),
(64,294,qs),
(64,202,o),
(119,48,o),
(224,-63,o),
(374,-125,o),
(469,-125,qs),
(564,-125,o),
(714,-63,o),
(819,48,o),
(874,202,o),
(874,294,qs),
(874,386,o),
(817,541,o),
(712,653,o),
(562,715,o),
(469,715,qs),
(376,715,o)
);
},
{
closed = 1;
nodes = (
(675,599,o),
(763,503,o),
(809,371,o),
(809,294,qs),
(809,217,o),
(763,86,o),
(676,-10,o),
(549,-65,o),
(469,-65,qs),
(389,-65,o),
(263,-11,o),
(175,85,o),
(129,217,o),
(129,294,qs),
(129,372,o),
(176,504,o),
(263,600,o),
(389,654,o),
(469,654,qs),
(549,654,o)
);
},
{
closed = 1;
nodes = (
(634,141,o),
(651,202,q),
(589,202,l),
(577,166,o),
(517,139,o),
(482,139,qs),
(447,139,o),
(398,164,o),
(366,207,o),
(351,263,o),
(351,295,qs),
(351,326,o),
(365,383,o),
(396,426,o),
(449,451,o),
(485,451,qs),
(521,451,o),
(576,422,o),
(587,387,q),
(646,387,l),
(632,451,o),
(544,506,o),
(483,506,qs),
(433,506,o),
(362,473,o),
(314,416,o),
(290,339,o),
(290,295,qs),
(290,250,o),
(314,172,o),
(361,116,o),
(433,84,o),
(481,84,qs),
(542,84,o)
);
}
);
userData = {
assembly = "PUSHB[ ]	/* 2 values pushed */
6 100 
WCVTP[ ]	/* WriteCVTInPixels */
NPUSHB[ ]	/* 93 values pushed */
0 6 7 9 7 6 9 128 0 9 8 7 9 8 126 10 1 0 11 1 2 5 0 2 105 0 5 0 7 6 5 7 105 0 8 12 1 4 3 8 4 105 0 3 1 1 3 89 0 3 3 1 97 0 1 3 1 81 41 40 21 20 1 0 71 70 68 66 58 56 54 53 51 49 40 73 41 73 31 29 20 39 21 39 11 9 0 19 1 19 13 8 22 
CALL[ ]	/* CallFunction */
PUSHB[ ]	/* 2 values pushed */
6 0 
WCVTP[ ]	/* WriteCVTInPixels */";
};
width = 938;
}
);
note = copyright;
unicode = 169;
},
{
glyphname = ampersand;
layers = (
{
layerId = m01;
shapes = (
{
closed = 1;
nodes = (
(639,0,l),
(534,118,l),
(562,160,o),
(603,248,o),
(609,299,q),
(546,299,l),
(540,261,o),
(514,194,o),
(491,163,q),
(317,368,l),
(351,386,o),
(410,426,o),
(454,473,o),
(479,530,o),
(479,565,qs),
(479,600,o),
(456,655,o),
(414,694,o),
(356,715,o),
(322,715,qs),
(283,715,o),
(217,693,o),
(170,650,o),
(143,587,o),
(143,547,qs),
(143,496,o),
(194,413,o),
(229,380,q),
(199,364,o),
(142,325,o),
(99,276,o),
(72,215,o),
(72,178,qs),
(72,132,o),
(105,62,o),
(162,16,o),
(239,-8,o),
(282,-8,qs),
(342,-8,o),
(444,29,o),
(489,69,q),
(552,0,l)
);
},
{
closed = 1;
nodes = (
(239,454,o),
(218,488,o),
(206,527,o),
(206,552,qs),
(206,603,o),
(264,655,o),
(315,656,qs),
(358,657,o),
(419,606,o),
(419,561,qs),
(419,533,o),
(392,486,o),
(352,448,o),
(303,417,o),
(282,405,q),
(267,423,o)
);
},
{
closed = 1;
nodes = (
(421,84,o),
(339,51,o),
(296,51,qs),
(267,51,o),
(211,67,o),
(167,99,o),
(141,148,o),
(141,180,qs),
(141,208,o),
(161,255,o),
(194,294,o),
(238,325,o),
(261,337,q),
(451,116,l)
);
}
);
userData = {
assembly = "NPUSHB[ ]	/* 13 values pushed */
31 13 2 2 4 71 39 32 3 5 2 2 76 
MPPEM[ ]	/* MeasurePixelPerEm */
PUSHB[ ]	/* 1 value pushed */
29 
LT[ ]	/* LessThan */
IF[ ]	/* If */
NPUSHB[ ]	/* 33 values pushed */
0 4 4 1 97 0 1 1 46 77 0 2 2 0 97 3 1 0 0 47 77 0 5 5 0 97 3 1 0 0 47 0 78 
ELSE[ ]	/* Else */
NPUSHB[ ]	/* 31 values pushed */
0 4 4 1 97 0 1 1 46 77 0 2 2 3 95 0 3 3 39 77 0 5 5 0 97 0 0 0 47 0 78 
EIF[ ]	/* EndIf */
NPUSHB[ ]	/* 14 values pushed */
69 67 51 49 41 40 36 35 22 20 34 6 8 23 
CALL[ ]	/* CallFunction */";
};
width = 668;
}
);
note = ampersand;
unicode = 38;
},
{
glyphname = dollar;
layers = (
{
layerId = m01;
shapes = (
{
closed = 1;
nodes = (
(264,712,o),
(185,689,o),
(124,643,o),
(88,572,o),
(88,522,qs),
(88,448,o),
(173,359,o),
(241,344,qs),
(281,333,o),
(358,317,o),
(398,307,qs),
(423,301,o),
(469,281,o),
(504,252,o),
(524,210,o),
(524,182,qs),
(524,146,o),
(493,96,o),
(443,65,o),
(381,51,o),
(350,51,qs),
(317,51,o),
(251,63,o),
(193,90,o),
(147,135,o),
(134,168,q),
(64,168,l),
(76,124,o),
(123,61,o),
(186,19,o),
(262,-4,o),
(303,-7,q),
(303,-142,l),
(368,-142,l),
(368,-8,l),
(414,-5,o),
(496,20,o),
(556,69,o),
(591,145,o),
(591,198,qs),
(591,232,o),
(568,286,o),
(527,325,o),
(473,352,o),
(442,361,qs),
(402,372,o),
(326,388,o),
(286,399,qs),
(260,406,o),
(213,426,o),
(177,457,o),
(156,500,o),
(156,530,qs),
(156,567,o),
(188,616,o),
(239,645,o),
(302,656,o),
(333,656,qs),
(363,656,o),
(420,644,o),
(467,618,o),
(500,575,o),
(506,543,q),
(571,543,l),
(566,584,o),
(530,644,o),
(478,685,o),
(411,708,o),
(374,712,q),
(374,848,l),
(308,848,l),
(308,714,l)
);
}
);
userData = {
assembly = "NPUSHB[ ]	/* 73 values pushed */
2 1 2 7 1 76 39 1 3 1 75 0 0 7 0 133 0 1 2 5 2 1 5 128 0 5 6 2 5 6 126 0 4 3 4 134 0 2 2 7 97 0 7 7 46 77 0 6 6 3 97 0 3 3 47 3 78 71 70 51 49 45 44 38 37 36 35 36 22 16 8 8 25 
CALL[ ]	/* CallFunction */";
};
width = 656;
}
);
note = dollar;
unicode = 36;
},
{
glyphname = parenleft;
layers = (
{
layerId = m01;
shapes = (
{
closed = 1;
nodes = (
(205,-37,o),
(159,90,o),
(135,227,o),
(135,302,qs),
(135,378,o),
(159,513,o),
(206,639,o),
(273,760,o),
(316,821,q),
(248,821,l),
(204,768,o),
(138,644,o),
(93,510,o),
(70,370,o),
(70,302,qs),
(70,234,o),
(94,94,o),
(140,-41,o),
(207,-166,o),
(250,-218,q),
(318,-218,l),
(274,-158,o)
);
}
);
userData = {
assembly = "MPPEM[ ]	/* MeasurePixelPerEm */
PUSHB[ ]	/* 1 value pushed */
16 
LT[ ]	/* LessThan */
IF[ ]	/* If */
NPUSHB[ ]	/* 11 values pushed */
0 1 0 1 133 0 0 0 43 0 78 
ELSE[ ]	/* Else */
NPUSHB[ ]	/* 9 values pushed */
0 1 0 1 133 0 0 0 118 
EIF[ ]	/* EndIf */
PUSHB[ ]	/* 5 values pushed */
26 16 2 8 24 
CALL[ ]	/* CallFunction */";
};
width = 293;
}
);
note = parenleft;
unicode = 40;
},
{
glyphname = parenright;
layers = (
{
layerId = m01;
shapes = (
{
closed = 1;
nodes = (
(86,-166,o),
(153,-41,o),
(199,94,o),
(223,234,o),
(223,302,qs),
(223,370,o),
(200,510,o),
(155,644,o),
(89,768,o),
(45,821,q),
(-23,821,l),
(20,760,o),
(87,639,o),
(133,513,o),
(158,378,o),
(158,302,qs),
(158,227,o),
(134,90,o),
(87,-37,o),
(19,-158,o),
(-25,-218,q),
(43,-218,l)
);
}
);
userData = {
assembly = "MPPEM[ ]	/* MeasurePixelPerEm */
PUSHB[ ]	/* 1 value pushed */
16 
LT[ ]	/* LessThan */
IF[ ]	/* If */
NPUSHB[ ]	/* 12 values pushed */
0 0 1 0 133 2 1 1 1 43 1 78 
ELSE[ ]	/* Else */
NPUSHB[ ]	/* 10 values pushed */
0 0 1 0 133 2 1 1 1 118 
EIF[ ]	/* EndIf */
NPUSHB[ ]	/* 10 values pushed */
0 0 0 21 0 21 26 3 8 23 
CALL[ ]	/* CallFunction */";
};
width = 293;
}
);
note = parenright;
unicode = 41;
},
{
glyphname = cent;
layers = (
{
layerId = m01;
shapes = (
{
closed = 1;
nodes = (
(143,476,o),
(90,406,o),
(64,314,o),
(64,260,qs),
(64,153,o),
(168,8,o),
(271,-6,q),
(271,-165,l),
(336,-165,l),
(336,-7,l),
(368,-4,o),
(428,15,o),
(477,49,o),
(515,99,o),
(524,133,q),
(456,133,l),
(439,84,o),
(363,48,o),
(315,48,qs),
(267,48,o),
(196,82,o),
(151,140,o),
(129,217,o),
(129,260,qs),
(129,304,o),
(150,382,o),
(195,441,o),
(264,475,o),
(312,475,qs),
(358,475,o),
(435,433,o),
(449,389,q),
(517,389,l),
(499,456,o),
(402,525,o),
(336,530,q),
(336,670,l),
(271,670,l),
(271,528,l),
(220,521,o)
);
}
);
userData = {
assembly = "NPUSHB[ ]	/* 60 values pushed */
3 0 2 2 0 32 29 2 5 3 2 76 0 1 2 4 2 1 4 128 0 4 3 2 4 3 126 0 0 0 2 1 0 2 105 0 3 5 5 3 89 0 3 3 5 95 0 5 3 5 79 22 18 40 34 20 17 6 8 28 
CALL[ ]	/* CallFunction */";
};
width = 588;
}
);
note = cent;
unicode = 162;
},
{
glyphname = section;
layers = (
{
layerId = m01;
shapes = (
{
closed = 1;
nodes = (
(337,654,o),
(373,638,o),
(400,611,o),
(405,591,q),
(464,591,l),
(459,625,o),
(423,672,o),
(371,702,o),
(309,715,o),
(278,715,qs),
(243,715,o),
(174,702,o),
(118,670,o),
(84,615,o),
(84,574,qs),
(84,511,o),
(137,481,q),
(108,463,o),
(73,401,o),
(74,366,qs),
(73,308,o),
(147,244,o),
(205,233,qs),
(234,227,o),
(296,215,o),
(328,209,qs),
(344,206,o),
(377,195,o),
(404,177,o),
(420,150,o),
(420,130,qs),
(420,101,o),
(391,68,o),
(347,51,o),
(298,47,o),
(279,47,qs),
(259,47,o),
(215,55,o),
(174,73,o),
(140,102,o),
(131,123,q),
(64,123,l),
(74,84,o),
(120,33,o),
(181,4,o),
(252,-8,o),
(288,-8,qs),
(323,-8,o),
(393,5,o),
(448,39,o),
(483,94,o),
(483,136,qs),
(483,212,o),
(423,238,q),
(480,276,o),
(481,343,qs),
(482,371,o),
(463,414,o),
(430,441,o),
(384,459,o),
(359,465,qs),
(321,475,o),
(252,491,o),
(214,502,qs),
(187,508,o),
(143,545,o),
(143,576,qs),
(143,603,o),
(169,637,o),
(208,655,o),
(251,662,o),
(276,661,qs),
(295,661,o)
);
},
{
closed = 1;
nodes = (
(310,422,o),
(357,409,qs),
(383,401,o),
(421,365,o),
(421,336,qs),
(421,309,o),
(386,272,o),
(369,264,q),
(339,269,o),
(281,277,o),
(252,284,qs),
(235,288,o),
(194,299,o),
(159,317,o),
(136,347,o),
(136,370,qs),
(136,393,o),
(162,436,o),
(185,451,q),
(228,437,o)
);
}
);
userData = {
assembly = "NPUSHB[ ]	/* 64 values pushed */
84 55 18 3 2 5 1 76 0 5 0 2 0 5 2 128 0 2 3 0 2 3 126 6 1 0 0 4 97 0 4 4 46 77 0 3 3 1 97 0 1 1 47 1 78 1 0 68 67 63 61 37 35 31 30 26 24 0 72 1 72 7 8 22 
CALL[ ]	/* CallFunction */";
};
width = 548;
}
);
note = section;
unicode = 167;
},
{
glyphname = uni04C1;
layers = (
{
layerId = m01;
shapes = (
{
closed = 1;
nodes = (
(461,317,l),
(591,317,l),
(760,0,l),
(839,0,l),
(646,357,l),
(838,707,l),
(767,707,l),
(589,377,l),
(461,377,l),
(461,707,l),
(396,707,l),
(396,377,l),
(269,377,l),
(92,707,l),
(19,707,l),
(211,357,l),
(19,0,l),
(96,0,l),
(266,317,l),
(396,317,l),
(396,0,l),
(461,0,l)
);
},
{
closed = 1;
nodes = (
(320,883,o),
(312,927,q),
(251,927,l),
(254,889,o),
(287,838,o),
(336,807,o),
(397,794,o),
(429,794,qs),
(462,794,o),
(523,807,o),
(571,839,o),
(603,889,o),
(606,927,q),
(545,927,l),
(542,905,o),
(520,875,o),
(488,856,o),
(450,848,o),
(429,848,qs),
(388,848,o)
);
}
);
userData = {
assembly = "NPUSHB[ ]	/* 78 values pushed */
16 5 2 0 3 1 76 13 1 11 10 11 133 15 1 10 0 12 2 10 12 105 5 1 3 8 1 0 1 3 0 103 6 4 2 2 2 20 77 14 9 7 3 1 1 21 1 78 23 22 0 0 39 38 34 32 28 27 22 41 23 41 0 21 0 21 17 18 17 17 17 17 18 17 17 16 7 31 
CALL[ ]	/* CallFunction */";
};
width = 858;
}
);
note = uni04C1;
unicode = 1217;
},
{
glyphname = uni04C2;
layers = (
{
layerId = m01;
shapes = (
{
closed = 1;
nodes = (
(408,237,l),
(511,237,l),
(657,0,l),
(732,0,l),
(561,277,l),
(716,527,l),
(643,527,l),
(501,292,l),
(408,292,l),
(408,527,l),
(342,527,l),
(342,292,l),
(249,292,l),
(107,527,l),
(34,527,l),
(189,277,l),
(19,0,l),
(94,0,l),
(239,237,l),
(342,237,l),
(342,0,l),
(408,0,l)
);
},
{
closed = 1;
nodes = (
(322,674,o),
(292,689,o),
(271,717,o),
(268,740,q),
(208,740,l),
(211,705,o),
(240,658,o),
(285,629,o),
(342,617,o),
(373,617,qs),
(404,617,o),
(463,629,o),
(509,658,o),
(540,705,o),
(543,740,q),
(483,740,l),
(480,717,o),
(459,689,o),
(428,674,o),
(392,668,o),
(375,668,qs),
(358,668,o)
);
}
);
userData = {
assembly = "NPUSHB[ ]	/* 78 values pushed */
16 5 2 0 3 1 76 13 1 11 10 11 133 15 1 10 0 12 2 10 12 105 5 1 3 8 1 0 1 3 0 104 6 4 2 2 2 22 77 14 9 7 3 1 1 21 1 78 23 22 0 0 39 38 34 32 28 27 22 43 23 43 0 21 0 21 17 18 17 17 17 17 18 17 17 16 7 31 
CALL[ ]	/* CallFunction */";
};
width = 751;
}
);
note = uni04C2;
unicode = 1218;
},
{
glyphname = w_alt;
kernLeft = w;
layers = (
{
layerId = m01;
shapes = (
{
closed = 1;
nodes = (
(339,402,l),
(228,55,l),
(94,527,l),
(19,527,l),
(178,0,l),
(275,0,l),
(384,339,l),
(495,0,l),
(591,0,l),
(746,527,l),
(672,527,l),
(541,55,l),
(428,402,l)
);
}
);
userData = {
assembly = "NPUSHB[ ]	/* 36 values pushed */
10 5 2 1 4 1 76 0 4 0 1 0 4 1 128 3 1 0 0 22 77 2 1 1 1 21 1 78 18 17 18 17 17 5 7 27 
CALL[ ]	/* CallFunction */";
};
width = 765;
}
);
note = w_alt;
},
{
glyphname = W_alt;
kernLeft = W;
kernRight = W;
layers = (
{
layerId = m01;
shapes = (
{
closed = 1;
nodes = (
(262,60,l),
(94,707,l),
(19,707,l),
(211,0,l),
(313,0,l),
(451,455,l),
(590,0,l),
(691,0,l),
(883,707,l),
(809,707,l),
(641,60,l),
(493,549,l),
(411,549,l)
);
}
);
userData = {
assembly = "PUSHB[ ]	/* 8 values pushed */
11 6 1 3 1 4 1 76 
MPPEM[ ]	/* MeasurePixelPerEm */
PUSHB[ ]	/* 1 value pushed */
22 
LT[ ]	/* LessThan */
IF[ ]	/* If */
NPUSHB[ ]	/* 19 values pushed */
3 1 0 0 20 77 5 1 4 4 22 77 2 1 1 1 21 1 78 
ELSE[ ]	/* Else */
NPUSHB[ ]	/* 22 values pushed */
5 1 4 0 1 0 4 1 128 3 1 0 0 20 77 2 1 1 1 21 1 78 
EIF[ ]	/* EndIf */
NPUSHB[ ]	/* 13 values pushed */
0 0 0 12 0 12 17 18 17 18 6 7 26 
CALL[ ]	/* CallFunction */";
};
width = 902;
}
);
note = W_alt;
},
{
glyphname = zero;
layers = (
{
layerId = m01;
shapes = (
{
closed = 1;
nodes = (
(581,550,o),
(518,652,o),
(413,715,o),
(334,715,qs),
(255,715,o),
(151,652,o),
(88,550,o),
(62,420,o),
(62,353,qs),
(62,285,o),
(88,155,o),
(150,54,o),
(255,-8,o),
(334,-8,qs),
(413,-8,o),
(518,54,o),
(581,156,o),
(607,286,o),
(607,353,qs),
(607,420,o)
);
},
{
closed = 1;
nodes = (
(145,512,o),
(190,600,o),
(270,656,o),
(334,656,qs),
(398,656,o),
(478,600,o),
(523,512,o),
(539,405,o),
(539,353,qs),
(539,300,o),
(524,193,o),
(479,106,o),
(399,51,o),
(334,51,qs),
(269,51,o),
(189,106,o),
(145,193,o),
(129,300,o),
(129,353,qs),
(129,405,o)
);
}
);
userData = {
assembly = "NPUSHB[ ]	/* 28 values pushed */
0 3 3 1 97 0 1 1 46 77 0 2 2 0 97 0 0 0 47 0 78 40 40 40 36 4 8 26 
CALL[ ]	/* CallFunction */";
};
width = 668;
}
);
note = zero;
unicode = 48;
},
{
glyphname = one;
layers = (
{
layerId = m01;
shapes = (
{
closed = 1;
nodes = (
(193,707,l),
(181,680,o),
(148,648,o),
(106,631,o),
(57,625,o),
(30,624,q),
(30,585,l),
(172,585,l),
(172,0,l),
(237,0,l),
(237,707,l)
);
}
);
userData = {
assembly = "NPUSHB[ ]	/* 26 values pushed */
0 2 0 1 0 2 1 103 0 3 3 38 77 0 0 0 39 0 78 20 17 17 16 4 8 26 
CALL[ ]	/* CallFunction */";
};
width = 349;
}
);
note = one;
unicode = 49;
},
{
glyphname = two;
layers = (
{
layerId = m01;
shapes = (
{
closed = 1;
nodes = (
(399,389,o),
(341,323,o),
(270,263,o),
(239,236,qs),
(35,62,l),
(35,0,l),
(512,0,l),
(512,60,l),
(128,60,l),
(330,233,ls),
(364,262,o),
(427,321,o),
(475,389,o),
(504,467,o),
(504,515,qs),
(504,564,o),
(471,639,o),
(412,689,o),
(332,715,o),
(285,715,qs),
(249,715,o),
(176,699,o),
(113,663,o),
(66,608,o),
(56,571,q),
(129,571,l),
(148,616,o),
(232,656,o),
(281,656,qs),
(314,656,o),
(372,638,o),
(414,602,o),
(438,548,o),
(438,513,qs),
(438,469,o)
);
}
);
userData = {
assembly = "NPUSHB[ ]	/* 43 values pushed */
29 1 3 1 1 76 0 1 0 3 0 1 3 128 0 0 0 2 97 0 2 2 46 77 0 3 3 4 95 0 4 4 39 4 78 17 26 36 18 36 5 8 27 
CALL[ ]	/* CallFunction */";
};
width = 567;
}
);
note = two;
unicode = 50;
},
{
glyphname = three;
layers = (
{
layerId = m01;
shapes = (
{
closed = 1;
nodes = (
(46,99,o),
(96,41,o),
(164,7,o),
(245,-8,o),
(284,-8,qs),
(332,-8,o),
(423,13,o),
(494,61,o),
(536,138,o),
(536,193,qs),
(536,265,o),
(456,358,o),
(386,372,q),
(441,389,o),
(504,482,o),
(504,539,qs),
(504,588,o),
(467,655,o),
(406,697,o),
(327,715,o),
(285,715,qs),
(249,715,o),
(173,700,o),
(108,665,o),
(63,609,o),
(58,568,q),
(126,568,l),
(132,593,o),
(164,627,o),
(206,648,o),
(256,656,o),
(281,656,qs),
(313,656,o),
(371,642,o),
(416,612,o),
(442,562,o),
(441,526,qs),
(440,498,o),
(413,448,o),
(391,431,qs),
(361,407,o),
(287,390,o),
(249,390,qs),
(201,390,l),
(201,330,l),
(274,330,ls),
(310,330,o),
(380,320,o),
(435,291,o),
(469,237,o),
(469,193,qs),
(469,152,o),
(438,96,o),
(387,63,o),
(321,50,o),
(285,51,qs),
(261,51,o),
(205,60,o),
(154,80,o),
(114,115,o),
(106,141,q),
(38,141,l)
);
}
);
userData = {
assembly = "NPUSHB[ ]	/* 68 values pushed */
48 1 1 2 1 76 0 4 3 2 3 4 2 128 8 1 7 1 0 1 7 0 128 0 2 0 1 7 2 1 103 0 3 3 5 97 0 5 5 46 77 0 0 0 6 97 0 6 6 47 6 78 0 0 0 61 0 61 46 36 20 41 33 40 36 9 8 29 
CALL[ ]	/* CallFunction */";
};
width = 598;
}
);
note = three;
unicode = 51;
},
{
glyphname = four;
layers = (
{
layerId = m01;
shapes = (
{
closed = 1;
nodes = (
(493,0,l),
(493,146,l),
(581,146,l),
(581,206,l),
(493,206,l),
(493,707,l),
(397,707,l),
(47,198,l),
(47,146,l),
(428,146,l),
(428,0,l)
);
},
{
closed = 1;
nodes = (
(126,206,l),
(428,647,l),
(428,206,l)
);
}
);
userData = {
assembly = "NPUSHB[ ]	/* 40 values pushed */
11 1 2 1 2 1 0 2 2 76 5 1 2 3 1 0 4 2 0 104 0 1 1 38 77 0 4 4 39 4 78 18 17 17 17 18 16 6 8 28 
CALL[ ]	/* CallFunction */";
};
width = 623;
}
);
note = four;
unicode = 52;
},
{
glyphname = seven;
layers = (
{
layerId = m01;
shapes = (
{
closed = 1;
nodes = (
(477,646,l),
(477,707,l),
(17,707,l),
(17,647,l),
(407,647,l),
(112,0,l),
(186,0,l)
);
}
);
userData = {
assembly = "NPUSHB[ ]	/* 34 values pushed */
5 1 2 0 1 76 0 0 0 1 95 0 1 1 38 77 3 1 2 2 39 2 78 0 0 0 6 0 6 17 17 4 8 24 
CALL[ ]	/* CallFunction */";
};
width = 505;
}
);
note = seven;
unicode = 55;
},
{
glyphname = eight;
layers = (
{
layerId = m01;
shapes = (
{
closed = 1;
nodes = (
(478,349,o),
(418,366,q),
(470,383,o),
(532,472,o),
(532,532,qs),
(532,580,o),
(494,650,o),
(431,694,o),
(350,715,o),
(308,715,qs),
(265,715,o),
(185,694,o),
(122,650,o),
(84,580,o),
(84,532,qs),
(84,472,o),
(142,380,o),
(196,363,q),
(168,354,o),
(119,323,o),
(83,279,o),
(62,224,o),
(62,192,qs),
(62,137,o),
(102,61,o),
(170,13,o),
(259,-8,o),
(307,-8,qs),
(355,-8,o),
(444,14,o),
(512,62,o),
(553,138,o),
(553,192,qs),
(553,258,o)
);
},
{
closed = 1;
nodes = (
(399,640,o),
(441,607,o),
(464,554,o),
(464,517,qs),
(464,484,o),
(437,436,o),
(392,404,o),
(336,388,o),
(308,388,qs),
(277,388,o),
(220,403,o),
(177,436,o),
(152,486,o),
(152,521,qs),
(152,557,o),
(176,608,o),
(218,641,o),
(275,656,o),
(308,656,qs),
(342,656,o)
);
},
{
closed = 1;
nodes = (
(404,316,o),
(454,283,o),
(485,230,o),
(485,191,qs),
(485,152,o),
(455,98,o),
(405,65,o),
(342,51,o),
(308,51,qs),
(274,51,o),
(210,65,o),
(160,98,o),
(129,152,o),
(129,191,qs),
(129,230,o),
(160,283,o),
(211,316,o),
(275,331,o),
(308,331,qs),
(341,331,o)
);
}
);
userData = {
assembly = "NPUSHB[ ]	/* 60 values pushed */
31 15 2 4 3 1 76 0 3 7 1 4 5 3 4 105 6 1 2 2 1 97 0 1 1 46 77 0 5 5 0 97 0 0 0 47 0 78 55 54 35 34 65 63 54 73 55 73 45 43 34 53 35 53 24 22 36 8 8 23 
CALL[ ]	/* CallFunction */";
};
width = 615;
}
);
note = eight;
unicode = 56;
},
{
glyphname = nine;
layers = (
{
layerId = m01;
shapes = (
{
closed = 1;
nodes = (
(403,284,o),
(435,307,qs),
(455,322,o),
(488,363,o),
(496,387,q),
(496,380,o),
(497,362,o),
(497,355,qs),
(497,309,o),
(485,210,o),
(467,167,qs),
(419,51,o),
(293,51,qs),
(247,51,o),
(166,88,o),
(145,128,q),
(70,128,l),
(81,92,o),
(127,40,o),
(186,7,o),
(256,-8,o),
(291,-8,qs),
(362,-8,o),
(475,45,o),
(510,108,qs),
(541,162,o),
(561,292,o),
(560,353,qs),
(560,381,o),
(554,444,o),
(542,508,o),
(522,569,o),
(506,596,qs),
(436,715,o),
(298,715,qs),
(246,715,o),
(158,683,o),
(95,623,o),
(59,538,o),
(59,485,qs),
(59,435,o),
(93,354,o),
(153,296,o),
(235,264,o),
(283,264,qs),
(323,263,o)
);
},
{
closed = 1;
nodes = (
(153,588,o),
(199,632,o),
(261,656,o),
(296,656,qs),
(334,656,o),
(396,630,o),
(441,583,o),
(466,520,o),
(466,483,qs),
(466,447,o),
(438,389,o),
(391,348,o),
(329,325,o),
(295,325,qs),
(217,325,o),
(126,415,o),
(126,493,qs),
(126,529,o)
);
}
);
userData = {
assembly = "NPUSHB[ ]	/* 59 values pushed */
0 3 0 4 0 3 4 128 0 5 7 1 0 3 5 0 105 0 6 6 1 97 0 1 1 46 77 0 4 4 2 97 0 2 2 47 2 78 1 0 60 58 50 48 33 31 29 28 24 22 11 9 0 45 1 45 8 8 22 
CALL[ ]	/* CallFunction */";
};
width = 622;
}
);
note = nine;
unicode = 57;
},
{
glyphname = uni0430;
kernLeft = abreve;
layers = (
{
layerId = m01;
shapes = (
{
closed = 1;
nodes = (
(493,0,l),
(493,286,ls),
(493,338,o),
(472,428,o),
(423,494,o),
(343,533,o),
(285,533,qs),
(253,533,o),
(188,521,o),
(131,492,o),
(89,447,o),
(80,414,q),
(152,414,l),
(161,432,o),
(190,457,o),
(225,471,o),
(264,477,o),
(283,477,qs),
(323,477,o),
(378,449,o),
(412,401,o),
(427,337,o),
(427,301,q),
(254,301,ls),
(215,301,o),
(143,286,o),
(88,250,o),
(54,190,o),
(54,145,qs),
(54,108,o),
(85,49,o),
(137,11,o),
(202,-6,o),
(237,-6,qs),
(295,-6,o),
(392,30,o),
(430,76,q),
(439,0,l)
);
},
{
closed = 1;
nodes = (
(427,212,ls),
(427,171,o),
(400,110,o),
(351,69,o),
(284,49,o),
(245,49,qs),
(221,49,o),
(176,61,o),
(141,87,o),
(120,125,o),
(120,152,qs),
(120,186,o),
(153,225,o),
(203,244,o),
(262,248,o),
(288,248,qs),
(427,248,l)
);
}
);
userData = {
assembly = "MPPEM[ ]	/* MeasurePixelPerEm */
PUSHB[ ]	/* 1 value pushed */
39 
LT[ ]	/* LessThan */
IF[ ]	/* If */
NPUSHB[ ]	/* 39 values pushed */
0 3 2 1 2 3 1 128 0 1 8 1 6 7 1 6 103 0 2 2 4 97 0 4 4 29 77 0 7 7 0 97 5 1 0 0 30 0 78 
ELSE[ ]	/* Else */
NPUSHB[ ]	/* 43 values pushed */
0 3 2 1 2 3 1 128 0 1 8 1 6 7 1 6 103 0 2 2 4 97 0 4 4 29 77 0 5 5 21 77 0 7 7 0 97 0 0 0 30 0 78 
EIF[ ]	/* EndIf */
NPUSHB[ ]	/* 17 values pushed */
40 38 49 47 38 54 40 54 21 36 20 36 40 34 9 7 28 
CALL[ ]	/* CallFunction */";
};
width = 563;
}
);
note = uni0430;
unicode = 1072;
},
{
glyphname = uni0435;
kernLeft = uni0444;
layers = (
{
layerId = m01;
shapes = (
{
closed = 1;
nodes = (
(527,297,o),
(504,402,o),
(450,483,o),
(363,533,o),
(300,533,qs),
(240,533,o),
(147,494,o),
(84,423,o),
(52,323,o),
(52,263,qs),
(52,204,o),
(82,105,o),
(144,34,o),
(237,-6,o),
(299,-6,qs),
(333,-6,o),
(401,8,o),
(459,39,o),
(504,89,o),
(515,124,q),
(446,124,l),
(437,103,o),
(405,75,o),
(366,58,o),
(323,50,o),
(302,50,qs),
(257,50,o),
(190,79,o),
(144,130,o),
(119,200,o),
(117,242,q),
(525,242,l)
);
},
{
closed = 1;
nodes = (
(120,332,o),
(144,397,o),
(188,447,o),
(251,477,o),
(292,477,qs),
(333,477,o),
(395,448,o),
(436,399,o),
(457,333,o),
(458,297,q),
(118,297,l)
);
}
);
userData = {
assembly = "NPUSHB[ ]	/* 60 values pushed */
0 1 4 0 4 1 0 128 8 1 6 7 1 4 1 6 4 103 0 5 5 3 97 0 3 3 29 77 0 0 0 2 97 0 2 2 30 2 78 32 32 0 0 32 42 32 42 38 36 0 31 0 31 40 36 20 36 9 7 26 
CALL[ ]	/* CallFunction */";
};
width = 577;
}
);
note = uni0435;
unicode = 1077;
},
{
glyphname = uni043E;
kernLeft = uni0444;
layers = (
{
layerId = m01;
shapes = (
{
closed = 1;
nodes = (
(183,83,o),
(138,141,o),
(117,219,o),
(117,263,qs),
(117,307,o),
(138,385,o),
(183,443,o),
(253,477,o),
(301,477,qs),
(349,477,o),
(419,443,o),
(464,385,o),
(485,307,o),
(485,263,qs),
(485,219,o),
(464,141,o),
(419,83,o),
(349,50,o),
(301,50,qs),
(253,50,o)
);
},
{
closed = 1;
nodes = (
(146,493,o),
(83,421,o),
(52,322,o),
(52,263,qs),
(52,204,o),
(83,105,o),
(146,34,o),
(239,-6,o),
(301,-6,qs),
(363,-6,o),
(456,34,o),
(519,105,o),
(551,204,o),
(551,263,qs),
(551,322,o),
(519,421,o),
(456,493,o),
(363,533,o),
(301,533,qs),
(239,533,o)
);
}
);
userData = {
assembly = "NPUSHB[ ]	/* 42 values pushed */
0 1 1 2 97 5 1 2 2 29 77 4 1 0 0 3 97 0 3 3 30 3 78 21 20 1 0 31 29 20 39 21 39 11 9 0 19 1 19 6 7 22 
CALL[ ]	/* CallFunction */";
};
width = 603;
}
);
note = uni043E;
unicode = 1086;
},
{
glyphname = uni0441;
kernLeft = uni0444;
layers = (
{
layerId = m01;
shapes = (
{
closed = 1;
nodes = (
(402,10,o),
(459,45,o),
(501,98,o),
(512,135,q),
(444,135,l),
(427,86,o),
(351,50,o),
(303,50,qs),
(255,50,o),
(184,84,o),
(139,142,o),
(117,219,o),
(117,262,qs),
(117,306,o),
(139,384,o),
(184,443,o),
(253,477,o),
(300,477,qs),
(346,477,o),
(423,435,o),
(437,391,q),
(504,391,l),
(485,463,o),
(376,533,o),
(304,533,qs),
(242,533,o),
(148,493,o),
(84,421,o),
(52,322,o),
(52,262,qs),
(52,204,o),
(83,106,o),
(145,34,o),
(237,-6,o),
(299,-6,qs),
(334,-6,o)
);
}
);
userData = {
assembly = "NPUSHB[ ]	/* 56 values pushed */
0 2 3 5 3 2 5 128 0 5 4 3 5 4 126 0 3 3 1 97 0 1 1 29 77 0 4 4 0 97 6 1 0 0 30 0 78 1 0 31 30 28 26 18 16 14 13 11 9 0 35 1 35 7 7 22 
CALL[ ]	/* CallFunction */";
};
width = 558;
}
);
note = uni0441;
unicode = 1089;
},
{
glyphname = uni0218;
layers = (
{
layerId = m01;
shapes = (
{
closed = 1;
nodes = (
(274,-120,o),
(274,-142,qs),
(274,-166,o),
(302,-195,o),
(328,-193,q),
(323,-222,o),
(294,-264,o),
(272,-278,q),
(288,-304,l),
(331,-286,o),
(381,-203,o),
(380,-158,qs),
(381,-132,o),
(354,-92,o),
(326,-91,qs),
(303,-90,o)
);
},
{
closed = 1;
nodes = (
(408,645,o),
(455,619,o),
(488,576,o),
(494,543,q),
(560,543,l),
(554,590,o),
(510,655,o),
(445,696,o),
(365,715,o),
(322,715,qs),
(275,715,o),
(187,695,o),
(118,649,o),
(77,576,o),
(77,522,qs),
(77,448,o),
(162,362,o),
(230,344,qs),
(270,333,o),
(347,317,o),
(387,307,qs),
(413,301,o),
(459,282,o),
(493,252,o),
(513,211,o),
(513,182,qs),
(513,146,o),
(482,96,o),
(432,65,o),
(370,51,o),
(339,51,qs),
(306,51,o),
(241,63,o),
(182,90,o),
(136,135,o),
(123,168,q),
(53,168,l),
(66,119,o),
(122,52,o),
(197,10,o),
(285,-8,o),
(332,-8,qs),
(383,-8,o),
(473,14,o),
(540,63,o),
(580,142,o),
(580,198,qs),
(580,233,o),
(557,286,o),
(517,325,o),
(463,351,o),
(432,360,qs),
(391,371,o),
(315,388,o),
(275,399,qs),
(249,406,o),
(202,426,o),
(166,457,o),
(145,500,o),
(145,530,qs),
(145,567,o),
(177,616,o),
(228,645,o),
(291,656,o),
(322,656,qs),
(352,656,o)
);
}
);
userData = {
assembly = "NPUSHB[ ]	/* 74 values pushed */
10 7 6 3 0 73 0 6 1 3 1 6 3 128 0 3 4 1 3 4 126 7 1 0 2 0 134 8 1 1 1 5 97 0 5 5 46 77 0 4 4 2 97 0 2 2 47 2 78 17 16 1 0 77 76 72 70 51 49 45 44 40 38 16 81 17 81 0 15 1 15 9 8 22 
CALL[ ]	/* CallFunction */";
};
width = 634;
}
);
note = uni0218;
unicode = 536;
},
{
glyphname = uni0219;
kernLeft = d;
layers = (
{
layerId = m01;
shapes = (
{
closed = 1;
nodes = (
(209,-120,o),
(209,-142,qs),
(209,-166,o),
(237,-195,o),
(263,-193,q),
(258,-222,o),
(229,-264,o),
(207,-278,q),
(223,-304,l),
(266,-286,o),
(316,-203,o),
(315,-158,q),
(317,-133,o),
(288,-91,o),
(261,-91,qs),
(238,-90,o)
);
},
{
closed = 1;
nodes = (
(320,469,o),
(356,453,o),
(384,426,o),
(391,408,q),
(452,408,l),
(446,442,o),
(409,490,o),
(357,520,o),
(294,533,o),
(263,533,qs),
(228,533,o),
(156,519,o),
(99,486,o),
(63,429,o),
(63,387,qs),
(63,327,o),
(131,260,o),
(193,246,qs),
(222,239,o),
(282,228,o),
(313,221,qs),
(330,217,o),
(363,206,o),
(389,188,o),
(405,160,o),
(405,140,qs),
(405,111,o),
(379,75,o),
(339,56,o),
(290,50,o),
(267,50,qs),
(244,50,o),
(199,58,o),
(159,75,o),
(126,104,o),
(115,127,q),
(48,127,l),
(56,89,o),
(100,39,o),
(160,8,o),
(230,-6,o),
(264,-6,qs),
(301,-6,o),
(375,7,o),
(433,42,o),
(470,100,o),
(470,144,qs),
(470,202,o),
(403,264,o),
(350,275,qs),
(318,283,o),
(256,295,o),
(224,302,qs),
(206,306,o),
(172,318,o),
(145,338,o),
(128,368,o),
(128,389,qs),
(128,416,o),
(153,450,o),
(191,469,o),
(238,477,o),
(261,477,qs),
(280,477,o)
);
}
);
userData = {
assembly = "NPUSHB[ ]	/* 75 values pushed */
10 7 6 3 4 0 73 0 6 1 3 1 6 3 128 0 3 4 1 3 4 126 7 1 0 2 0 134 8 1 1 1 5 97 0 5 5 49 77 0 4 4 2 97 0 2 2 50 2 78 17 16 1 0 75 74 70 68 49 47 43 42 38 36 16 79 17 79 0 15 1 15 9 8 22 
CALL[ ]	/* CallFunction */";
};
width = 519;
}
);
note = uni0219;
unicode = 537;
},
{
glyphname = uni021A;
kernLeft = uni0422;
kernRight = uni0422;
layers = (
{
layerId = m01;
shapes = (
{
closed = 1;
nodes = (
(237,-120,o),
(237,-142,qs),
(237,-166,o),
(265,-195,o),
(291,-193,q),
(286,-222,o),
(257,-264,o),
(235,-278,q),
(251,-304,l),
(294,-286,o),
(344,-203,o),
(343,-158,qs),
(344,-135,o),
(317,-91,o),
(289,-91,qs),
(266,-90,o)
);
},
{
closed = 1;
nodes = (
(19,707,l),
(19,647,l),
(253,647,l),
(253,0,l),
(318,0,l),
(318,647,l),
(552,647,l),
(552,707,l)
);
}
);
userData = {
assembly = "NPUSHB[ ]	/* 46 values pushed */
10 7 6 3 0 73 5 1 0 2 0 134 3 1 1 1 4 95 0 4 4 38 77 0 2 2 39 2 78 1 0 23 22 21 20 19 18 17 16 0 15 1 15 6 8 22 
CALL[ ]	/* CallFunction */";
};
width = 571;
}
);
note = uni021A;
unicode = 538;
},
{
glyphname = uni021B;
kernLeft = t;
layers = (
{
layerId = m01;
shapes = (
{
closed = 1;
nodes = (
(165,-120,o),
(165,-142,qs),
(165,-166,o),
(193,-195,o),
(219,-193,q),
(214,-222,o),
(185,-264,o),
(163,-278,q),
(179,-304,l),
(222,-286,o),
(272,-203,o),
(271,-158,qs),
(272,-134,o),
(245,-91,o),
(217,-91,qs),
(194,-90,o)
);
},
{
closed = 1;
nodes = (
(123,678,l),
(123,527,l),
(34,527,l),
(34,471,l),
(123,471,l),
(123,171,ls),
(123,128,o),
(140,61,o),
(159,41,qs),
(184,15,o),
(251,0,o),
(285,0,qs),
(331,0,l),
(331,57,l),
(291,57,ls),
(274,57,o),
(238,64,o),
(225,72,qs),
(200,88,o),
(189,148,o),
(189,175,qs),
(189,471,l),
(336,471,l),
(336,527,l),
(189,527,l),
(189,678,l)
);
}
);
userData = {
assembly = "NPUSHB[ ]	/* 63 values pushed */
10 7 6 3 0 73 0 7 1 7 133 8 1 0 4 0 134 5 1 2 2 1 95 6 1 1 1 41 77 0 3 3 4 97 0 4 4 39 4 78 1 0 41 40 39 38 37 36 30 28 27 25 19 18 17 16 0 15 1 15 9 8 22 
CALL[ ]	/* CallFunction */";
};
width = 380;
}
);
note = uni021B;
unicode = 539;
},
{
glyphname = icircumflex;
layers = (
{
layerId = m01;
shapes = (
{
closed = 1;
nodes = (
(148,0,l),
(148,527,l),
(82,527,l),
(82,0,l)
);
},
{
closed = 1;
nodes = (
(258,640,l),
(135,786,l),
(94,786,l),
(-29,640,l),
(36,640,l),
(114,737,l),
(196,640,l)
);
}
);
userData = {
assembly = "NPUSHB[ ]	/* 30 values pushed */
0 3 2 3 133 4 1 2 0 2 133 0 0 0 41 77 0 1 1 39 1 78 17 17 18 17 16 5 8 27 
CALL[ ]	/* CallFunction */";
};
width = 239;
}
);
note = icircumflex;
unicode = 238;
},
{
glyphname = question;
layers = (
{
layerId = m01;
shapes = (
{
closed = 1;
nodes = (
(266,240,o),
(276,280,o),
(292,300,qs),
(306,317,o),
(339,350,o),
(354,365,qs),
(395,403,o),
(450,484,o),
(450,543,qs),
(450,587,o),
(419,651,o),
(365,694,o),
(293,715,o),
(253,715,qs),
(218,715,o),
(149,699,o),
(91,664,o),
(49,610,o),
(42,574,q),
(111,574,l),
(118,598,o),
(147,629,o),
(184,648,o),
(228,656,o),
(251,656,qs),
(278,656,o),
(327,641,o),
(363,612,o),
(385,568,o),
(385,539,qs),
(385,504,o),
(349,444,o),
(324,418,qs),
(298,392,o),
(241,340,o),
(221,309,qs),
(208,289,o),
(196,240,o),
(198,216,q),
(265,216,l)
);
},
{
closed = 1;
nodes = (
(181,66,o),
(181,44,qs),
(181,22,o),
(208,-8,o),
(231,-8,qs),
(254,-8,o),
(282,22,o),
(282,44,qs),
(282,66,o),
(254,94,o),
(231,94,qs),
(208,94,o)
);
}
);
userData = {
assembly = "NPUSHB[ ]	/* 58 values pushed */
0 1 0 3 0 1 3 128 6 1 3 4 0 3 4 126 0 0 0 2 97 0 2 2 46 77 7 1 4 4 5 97 0 5 5 47 5 78 41 40 0 0 47 45 40 51 41 51 0 39 0 39 36 20 45 8 8 25 
CALL[ ]	/* CallFunction */";
};
width = 510;
}
);
note = question;
unicode = 63;
},
{
glyphname = uni2116;
layers = (
{
layerId = m01;
shapes = (
{
closed = 1;
nodes = (
(932,439,o),
(967,479,o),
(986,534,o),
(986,565,qs),
(986,597,o),
(968,652,o),
(933,692,o),
(882,715,o),
(848,715,qs),
(779,715,o),
(707,631,o),
(707,565,qs),
(707,533,o),
(725,478,o),
(761,438,o),
(813,415,o),
(847,415,qs),
(880,415,o)
);
},
{
closed = 1;
nodes = (
(930,607,o),
(930,565,qs),
(930,524,o),
(892,465,o),
(847,465,qs),
(801,465,o),
(760,522,o),
(760,565,qs),
(760,607,o),
(802,664,o),
(847,664,qs),
(890,663,o)
);
},
{
closed = 1;
nodes = (
(129,641,l),
(520,0,l),
(620,0,l),
(620,707,l),
(555,707,l),
(555,64,l),
(166,707,l),
(64,707,l),
(64,0,l),
(129,0,l)
);
},
{
closed = 1;
nodes = (
(714,342,l),
(714,282,l),
(979,282,l),
(979,342,l)
);
}
);
userData = {
assembly = "NPUSHB[ ]	/* 95 values pushed */
38 1 3 2 33 1 6 8 2 76 5 1 4 1 2 1 4 2 128 12 7 2 6 8 6 134 0 1 11 1 2 3 1 2 105 0 3 10 1 0 9 3 0 105 0 9 8 8 9 87 0 9 9 8 95 0 8 9 8 79 30 30 19 18 1 0 43 42 41 40 30 39 30 39 37 36 35 34 32 31 25 23 18 29 19 29 9 7 0 17 1 17 13 6 22 
CALL[ ]	/* CallFunction */";
};
width = 1050;
}
);
note = uni2116;
unicode = 8470;
},
{
glyphname = uni0401;
layers = (
{
layerId = m01;
shapes = (
{
closed = 1;
nodes = (
(162,900,o),
(162,879,qs),
(162,856,o),
(187,830,o),
(210,830,qs),
(233,830,o),
(257,856,o),
(257,879,qs),
(257,900,o),
(230,925,o),
(210,925,qs),
(190,925,o)
);
},
{
closed = 1;
nodes = (
(402,900,o),
(402,879,qs),
(402,856,o),
(426,830,o),
(449,830,qs),
(472,830,o),
(496,856,o),
(496,879,qs),
(496,900,o),
(469,925,o),
(449,925,qs),
(429,925,o)
);
},
{
closed = 1;
nodes = (
(557,0,l),
(557,60,l),
(157,60,l),
(157,321,l),
(517,321,l),
(517,381,l),
(157,381,l),
(157,647,l),
(557,647,l),
(557,707,l),
(92,707,l),
(92,0,l)
);
}
);
userData = {
assembly = "NPUSHB[ ]	/* 72 values pushed */
11 2 10 3 0 3 1 1 4 0 1 105 0 6 0 7 8 6 7 103 0 5 5 4 95 0 4 4 20 77 0 8 8 9 95 0 9 9 21 9 78 13 12 1 0 35 34 33 32 31 30 29 28 27 26 25 24 19 17 12 23 13 23 7 5 0 11 1 11 12 7 22 
CALL[ ]	/* CallFunction */";
};
width = 610;
}
);
note = uni0401;
unicode = 1025;
},
{
glyphname = asciitilde;
layers = (
{
layerId = m01;
shapes = (
{
closed = 1;
nodes = (
(142,417,o),
(112,374,o),
(98,318,o),
(97,288,q),
(160,288,l),
(160,303,o),
(165,337,o),
(177,366,o),
(200,385,o),
(218,385,qs),
(242,385,o),
(283,350,o),
(327,308,o),
(380,273,o),
(416,273,qs),
(450,273,o),
(497,298,o),
(526,341,o),
(540,396,o),
(542,426,q),
(480,426,l),
(479,411,o),
(474,377,o),
(462,348,o),
(439,330,o),
(420,330,qs),
(396,330,o),
(355,365,o),
(310,408,o),
(258,443,o),
(223,443,qs),
(189,443,o)
);
}
);
userData = {
assembly = "PUSHB[ ]	/* 2 values pushed */
6 100 
WCVTP[ ]	/* WriteCVTInPixels */
NPUSHB[ ]	/* 60 values pushed */
0 2 0 4 0 2 4 128 0 5 1 3 1 5 3 128 6 1 0 0 4 1 0 4 105 0 1 5 3 1 89 0 1 1 3 97 0 3 1 3 81 1 0 27 26 22 20 17 15 11 10 6 4 0 31 1 31 7 8 22 
CALL[ ]	/* CallFunction */
PUSHB[ ]	/* 2 values pushed */
6 0 
WCVTP[ ]	/* WriteCVTInPixels */";
};
width = 639;
}
);
note = asciitilde;
unicode = 126;
},
{
glyphname = trademark;
layers = (
{
layerId = m01;
shapes = (
{
closed = 1;
nodes = (
(193,459,l),
(193,669,l),
(282,669,l),
(282,707,l),
(64,707,l),
(64,669,l),
(152,669,l),
(152,459,l)
);
},
{
closed = 1;
nodes = (
(529,668,l),
(529,459,l),
(570,459,l),
(570,707,l),
(507,707,l),
(446,571,l),
(385,707,l),
(320,707,l),
(320,459,l),
(361,459,l),
(361,668,l),
(431,515,l),
(459,515,l)
);
}
);
userData = {
assembly = "NPUSHB[ ]	/* 59 values pushed */
19 14 9 3 8 0 1 76 9 1 8 0 3 0 8 3 128 6 5 2 1 2 1 0 8 1 0 103 6 5 2 1 1 3 95 7 4 2 3 1 3 79 8 8 8 20 8 20 17 18 17 19 17 17 17 16 10 6 30 
CALL[ ]	/* CallFunction */";
};
width = 634;
}
);
note = trademark;
unicode = 8482;
},
{
glyphname = registered;
layers = (
{
layerId = m01;
shapes = (
{
closed = 1;
nodes = (
(131,718,o),
(83,669,o),
(57,600,o),
(57,558,qs),
(57,473,o),
(158,377,o),
(242,377,qs),
(326,377,o),
(425,474,o),
(425,558,qs),
(425,600,o),
(400,668,o),
(352,718,o),
(284,745,o),
(242,745,qs),
(200,745,o)
);
},
{
closed = 1;
nodes = (
(387,626,o),
(387,558,qs),
(387,490,o),
(310,412,o),
(242,412,qs),
(173,412,o),
(94,490,o),
(94,558,qs),
(94,626,o),
(173,711,o),
(242,711,qs),
(311,711,o)
);
},
{
closed = 1;
nodes = (
(278,543,l),
(296,549,o),
(319,576,o),
(319,599,qs),
(319,630,o),
(283,656,o),
(254,656,qs),
(175,656,l),
(175,471,l),
(206,471,l),
(206,540,l),
(243,540,l),
(288,471,l),
(326,471,l)
);
},
{
closed = 1;
nodes = (
(267,625,o),
(287,613,o),
(287,598,qs),
(287,581,o),
(265,568,o),
(251,568,qs),
(206,568,l),
(206,625,l),
(253,625,ls)
);
}
);
userData = {
assembly = "PUSHB[ ]	/* 2 values pushed */
6 100 
WCVTP[ ]	/* WriteCVTInPixels */
NPUSHB[ ]	/* 98 values pushed */
40 1 4 8 1 76 12 7 2 5 4 3 4 5 3 128 10 1 0 11 1 2 6 0 2 105 0 6 13 1 9 8 6 9 105 0 8 0 4 5 8 4 103 0 3 1 1 3 89 0 3 3 1 97 0 1 3 1 81 42 42 28 28 17 16 1 0 42 50 42 49 45 43 28 41 28 41 35 33 32 31 30 29 23 21 16 27 17 27 9 7 0 15 1 15 14 8 22 
CALL[ ]	/* CallFunction */
PUSHB[ ]	/* 2 values pushed */
6 0 
WCVTP[ ]	/* WriteCVTInPixels */";
};
width = 482;
}
);
note = registered;
unicode = 174;
},
{
glyphname = degree;
layers = (
{
layerId = m01;
shapes = (
{
closed = 1;
nodes = (
(103,663,o),
(103,701,qs),
(103,738,o),
(146,786,o),
(184,786,qs),
(222,786,o),
(264,738,o),
(264,701,qs),
(264,664,o),
(222,617,o),
(184,617,qs),
(146,617,o)
);
},
{
closed = 1;
nodes = (
(303,648,o),
(303,701,qs),
(303,753,o),
(241,821,o),
(185,821,qs),
(129,821,o),
(64,754,o),
(64,701,qs),
(64,647,o),
(127,581,o),
(184,581,qs),
(240,581,o)
);
}
);
userData = {
assembly = "PUSHB[ ]	/* 2 values pushed */
6 100 
WCVTP[ ]	/* WriteCVTInPixels */
NPUSHB[ ]	/* 46 values pushed */
0 3 0 1 0 3 1 105 4 1 0 2 2 0 89 4 1 0 0 2 97 5 1 2 0 2 81 13 12 1 0 19 17 12 23 13 23 7 5 0 11 1 11 6 8 22 
CALL[ ]	/* CallFunction */
PUSHB[ ]	/* 2 values pushed */
6 0 
WCVTP[ ]	/* WriteCVTInPixels */";
};
width = 367;
}
);
note = degree;
unicode = 176;
},
{
glyphname = bullet;
layers = (
{
layerId = m01;
shapes = (
{
closed = 1;
nodes = (
(64,408,o),
(64,366,qs),
(64,324,o),
(116,266,o),
(161,266,qs),
(207,266,o),
(259,324,o),
(259,366,qs),
(259,408,o),
(206,464,o),
(161,464,qs),
(117,464,o)
);
}
);
userData = {
assembly = "NPUSHB[ ]	/* 29 values pushed */
2 1 0 1 1 0 89 2 1 0 0 1 97 0 1 0 1 81 1 0 7 5 0 11 1 11 3 8 22 
CALL[ ]	/* CallFunction */";
};
width = 323;
}
);
note = bullet;
unicode = 8226;
},
{
glyphname = uni27F5;
layers = (
{
layerId = m01;
shapes = (
{
closed = 1;
nodes = (
(178,295,l),
(415,532,l),
(372,578,l),
(64,265,l),
(372,-47,l),
(415,-1,l),
(178,235,l),
(1307,235,l),
(1307,295,l)
);
}
);
userData = {
assembly = "NPUSHB[ ]	/* 37 values pushed */
4 1 0 1 1 76 6 5 2 1 74 3 2 2 0 73 0 1 0 0 1 87 0 1 1 0 95 0 0 1 0 79 22 16 2 6 24 
CALL[ ]	/* CallFunction */";
};
width = 1371;
}
);
note = uni27F5;
unicode = 10229;
},
{
glyphname = uni27F6;
layers = (
{
layerId = m01;
shapes = (
{
closed = 1;
nodes = (
(1193,235,l),
(956,-1,l),
(999,-47,l),
(1307,265,l),
(999,578,l),
(956,532,l),
(1193,295,l),
(64,295,l),
(64,235,l)
);
}
);
userData = {
assembly = "NPUSHB[ ]	/* 37 values pushed */
4 1 1 0 1 76 3 2 2 0 74 6 5 2 1 73 0 0 1 1 0 87 0 0 0 1 95 0 1 0 1 79 22 16 2 6 24 
CALL[ ]	/* CallFunction */";
};
width = 1371;
}
);
note = uni27F6;
unicode = 10230;
},
{
glyphname = arrowup;
layers = (
{
layerId = m01;
shapes = (
{
closed = 1;
nodes = (
(601,294,l),
(645,332,l),
(354,668,l),
(64,332,l),
(107,294,l),
(325,554,l),
(325,0,l),
(383,0,l),
(383,554,l)
);
}
);
userData = {
assembly = "NPUSHB[ ]	/* 18 values pushed */
8 7 6 5 4 3 2 7 0 74 0 0 0 118 16 1 6 23 
CALL[ ]	/* CallFunction */";
};
width = 709;
}
);
note = arrowup;
unicode = 8593;
},
{
glyphname = arrowdown;
layers = (
{
layerId = m01;
shapes = (
{
closed = 1;
nodes = (
(108,374,l),
(64,336,l),
(355,0,l),
(645,336,l),
(602,374,l),
(384,114,l),
(384,668,l),
(326,668,l),
(326,114,l)
);
}
);
userData = {
assembly = "NPUSHB[ ]	/* 18 values pushed */
8 7 6 5 4 3 2 7 0 73 0 0 0 118 16 1 6 23 
CALL[ ]	/* CallFunction */";
};
width = 709;
}
);
note = arrowdown;
unicode = 8595;
},
{
glyphname = uni21BA;
layers = (
{
layerId = m01;
shapes = (
{
closed = 1;
nodes = (
(863,761,l),
(514,771,l),
(505,424,l),
(569,424,l),
(574,664,l),
(615,634,o),
(680,558,o),
(725,471,o),
(749,378,o),
(749,331,qs),
(749,263,o),
(705,146,o),
(624,61,o),
(510,13,o),
(440,13,qs),
(371,13,o),
(257,63,o),
(176,150,o),
(132,267,o),
(132,335,qs),
(132,411,o),
(188,550,o),
(239,607,q),
(193,655,l),
(128,590,o),
(65,426,o),
(65,335,qs),
(65,250,o),
(120,108,o),
(220,6,o),
(360,-51,o),
(446,-51,qs),
(527,-51,o),
(663,7,o),
(762,109,o),
(817,248,o),
(817,328,qs),
(817,451,o),
(710,650,o),
(614,710,q),
(861,699,l)
);
}
);
userData = {
assembly = "NPUSHB[ ]	/* 54 values pushed */
35 17 16 3 2 4 1 76 0 2 4 1 4 2 1 128 0 3 5 1 4 2 3 4 103 0 1 0 0 1 89 0 1 1 0 97 0 0 1 0 81 0 0 0 40 0 40 17 26 47 39 6 6 26 
CALL[ ]	/* CallFunction */";
};
width = 927;
}
);
note = uni21BA;
unicode = 8634;
},
{
glyphname = uni21BB;
layers = (
{
layerId = m01;
shapes = (
{
closed = 1;
nodes = (
(217,650,o),
(110,451,o),
(110,328,qs),
(110,248,o),
(165,109,o),
(264,7,o),
(400,-51,o),
(481,-51,qs),
(566,-51,o),
(707,6,o),
(807,108,o),
(862,250,o),
(862,335,qs),
(862,426,o),
(799,590,o),
(734,655,q),
(688,607,l),
(739,550,o),
(795,411,o),
(795,335,qs),
(795,267,o),
(750,150,o),
(669,63,o),
(556,13,o),
(487,13,qs),
(417,13,o),
(303,61,o),
(222,146,o),
(178,263,o),
(178,331,qs),
(178,378,o),
(202,471,o),
(247,558,o),
(312,634,o),
(353,664,q),
(358,424,l),
(422,424,l),
(413,771,l),
(64,761,l),
(66,699,l),
(313,710,l)
);
}
);
userData = {
assembly = "NPUSHB[ ]	/* 54 values pushed */
24 23 5 3 1 4 1 76 0 1 4 2 4 1 2 128 0 0 5 1 4 1 0 4 103 0 2 3 3 2 89 0 2 2 3 97 0 3 2 3 81 0 0 0 40 0 40 47 42 17 17 6 6 26 
CALL[ ]	/* CallFunction */";
};
width = 927;
}
);
note = uni21BB;
unicode = 8635;
},
{
glyphname = uni21B7;
layers = (
{
layerId = m01;
shapes = (
{
closed = 1;
nodes = (
(769,156,o),
(795,233,o),
(808,313,o),
(808,351,qs),
(808,435,o),
(757,577,o),
(661,680,o),
(523,739,o),
(437,739,qs),
(359,739,o),
(229,686,o),
(133,592,o),
(73,463,o),
(64,388,q),
(132,388,l),
(140,449,o),
(190,553,o),
(268,629,o),
(373,673,o),
(437,673,qs),
(508,673,o),
(621,624,o),
(700,537,o),
(742,420,o),
(742,351,qs),
(742,322,o),
(732,256,o),
(711,185,o),
(678,114,o),
(655,81,q),
(584,325,l),
(525,306,l),
(628,-28,l),
(956,85,l),
(935,147,l),
(708,57,l),
(732,86,o)
);
}
);
userData = {
assembly = "NPUSHB[ ]	/* 36 values pushed */
6 5 4 3 2 1 6 1 73 0 1 0 1 134 0 2 0 0 2 89 0 2 2 0 97 0 0 2 0 81 36 20 47 3 6 25 
CALL[ ]	/* CallFunction */";
};
width = 1020;
}
);
note = uni21B7;
unicode = 8631;
},
{
glyphname = uni21B6;
layers = (
{
layerId = m01;
shapes = (
{
closed = 1;
nodes = (
(64,85,l),
(391,-30,l),
(493,306,l),
(434,325,l),
(364,81,l),
(341,114,o),
(308,185,o),
(287,256,o),
(277,322,o),
(277,351,qs),
(277,420,o),
(319,537,o),
(398,624,o),
(511,673,o),
(582,673,qs),
(645,673,o),
(750,629,o),
(829,553,o),
(879,449,o),
(887,388,q),
(955,388,l),
(946,463,o),
(886,592,o),
(790,686,o),
(660,739,o),
(582,739,qs),
(496,739,o),
(358,680,o),
(262,577,o),
(211,435,o),
(211,351,qs),
(211,313,o),
(224,233,o),
(248,156,o),
(285,86,o),
(309,57,q),
(84,147,l)
);
}
);
userData = {
assembly = "NPUSHB[ ]	/* 36 values pushed */
36 35 34 33 32 31 6 1 73 0 1 2 1 134 0 0 2 2 0 89 0 0 0 2 97 0 2 0 2 81 36 20 41 3 6 25 
CALL[ ]	/* CallFunction */";
};
width = 1019;
}
);
note = uni21B6;
unicode = 8630;
},
{
glyphname = five;
layers = (
{
layerId = m01;
shapes = (
{
closed = 1;
nodes = (
(192,350,o),
(272,386,o),
(314,386,qs),
(393,386,o),
(488,300,o),
(488,219,qs),
(488,176,o),
(460,113,o),
(411,71,o),
(342,51,o),
(301,51,qs),
(278,51,o),
(228,63,o),
(182,86,o),
(146,120,o),
(136,143,q),
(67,143,l),
(78,102,o),
(126,45,o),
(189,9,o),
(265,-8,o),
(304,-8,qs),
(357,-8,o),
(449,22,o),
(517,81,o),
(556,167,o),
(556,224,qs),
(556,274,o),
(524,356,o),
(466,414,o),
(384,446,o),
(334,446,qs),
(283,446,o),
(191,417,o),
(153,386,q),
(177,647,l),
(530,647,l),
(530,707,l),
(119,707,l),
(85,320,l),
(161,320,l)
);
}
);
userData = {
assembly = "NPUSHB[ ]	/* 66 values pushed */
5 1 6 1 75 8 1 7 6 4 6 7 4 128 0 4 5 6 4 5 126 0 2 0 6 7 2 6 105 0 1 1 0 95 0 0 0 38 77 0 5 5 3 97 0 3 3 47 3 78 0 0 0 40 0 40 38 36 20 40 35 17 17 9 8 29 
CALL[ ]	/* CallFunction */";
};
width = 615;
}
);
note = five;
unicode = 53;
},
{
glyphname = six;
layers = (
{
layerId = m01;
shapes = (
{
closed = 1;
nodes = (
(159,386,o),
(129,330,q),
(129,383,o),
(147,506,o),
(174,556,qs),
(198,600,o),
(280,656,o),
(343,656,qs),
(385,656,o),
(465,617,o),
(486,579,q),
(556,579,l),
(529,645,o),
(415,715,o),
(345,715,qs),
(289,715,o),
(198,679,o),
(164,645,qs),
(136,618,o),
(98,548,o),
(75,470,o),
(65,390,o),
(64,352,qs),
(62,297,o),
(82,172,o),
(108,121,qs),
(142,56,o),
(255,-8,o),
(328,-8,qs),
(380,-8,o),
(467,25,o),
(531,86,o),
(567,171,o),
(567,223,qs),
(567,272,o),
(533,354,o),
(473,412,o),
(391,445,o),
(339,445,qs),
(275,445,o)
);
},
{
closed = 1;
nodes = (
(472,118,o),
(426,75,o),
(364,51,o),
(329,51,qs),
(294,51,o),
(232,76,o),
(184,121,o),
(156,182,o),
(155,218,qs),
(154,254,o),
(184,315,o),
(233,360,o),
(299,385,o),
(334,385,qs),
(371,385,o),
(433,359,o),
(476,313,o),
(500,251,o),
(500,214,qs),
(500,178,o)
);
}
);
userData = {
assembly = "NPUSHB[ ]	/* 65 values pushed */
37 1 6 5 1 76 0 3 4 0 4 3 0 128 7 1 0 0 5 6 0 5 105 0 4 4 2 97 0 2 2 46 77 0 6 6 1 97 0 1 1 47 1 78 1 0 56 54 46 44 32 30 28 27 25 23 11 9 0 39 1 39 8 8 22 
CALL[ ]	/* CallFunction */";
};
width = 626;
}
);
note = six;
unicode = 54;
},
{
glyphname = dieresis;
layers = (
{
layerId = m01;
shapes = (
{
closed = 1;
nodes = (
(340,678,o),
(340,656,qs),
(340,635,o),
(367,605,o),
(390,605,qs),
(414,605,o),
(441,635,o),
(441,656,qs),
(441,678,o),
(413,707,o),
(390,707,qs),
(367,707,o)
);
},
{
closed = 1;
nodes = (
(122,678,o),
(122,656,qs),
(122,635,o),
(149,605,o),
(172,605,qs),
(196,605,o),
(223,635,o),
(223,656,qs),
(223,678,o),
(195,707,o),
(172,707,qs),
(149,707,o)
);
}
);
userData = {
assembly = "PUSHB[ ]	/* 2 values pushed */
6 100 
WCVTP[ ]	/* WriteCVTInPixels */
NPUSHB[ ]	/* 42 values pushed */
5 2 4 3 0 1 1 0 89 5 2 4 3 0 0 1 97 3 1 1 0 1 81 13 12 1 0 19 17 12 23 13 23 7 5 0 11 1 11 6 8 22 
CALL[ ]	/* CallFunction */
PUSHB[ ]	/* 2 values pushed */
6 0 
WCVTP[ ]	/* WriteCVTInPixels */";
};
width = 563;
}
);
note = dieresis;
unicode = 168;
},
{
glyphname = adieresis;
kernLeft = abreve;
layers = (
{
layerId = m01;
shapes = (
{
closed = 1;
nodes = (
(122,691,o),
(122,671,qs),
(122,651,o),
(151,623,o),
(171,623,qs),
(191,623,o),
(221,650,o),
(221,671,qs),
(221,692,o),
(191,719,o),
(171,719,qs),
(151,719,o)
);
},
{
closed = 1;
nodes = (
(353,691,o),
(353,671,qs),
(353,651,o),
(381,623,o),
(401,623,qs),
(421,623,o),
(451,650,o),
(451,671,qs),
(451,692,o),
(421,719,o),
(401,719,qs),
(381,719,o)
);
},
{
closed = 1;
nodes = (
(493,0,l),
(493,286,ls),
(493,338,o),
(472,428,o),
(423,495,o),
(343,533,o),
(285,533,qs),
(253,533,o),
(187,520,o),
(131,492,o),
(89,447,o),
(80,414,q),
(152,414,l),
(161,432,o),
(190,457,o),
(225,471,o),
(264,477,o),
(283,477,qs),
(323,477,o),
(378,449,o),
(412,401,o),
(427,337,o),
(427,301,q),
(254,301,ls),
(215,301,o),
(143,286,o),
(88,250,o),
(54,190,o),
(54,145,qs),
(54,106,o),
(85,50,o),
(136,12,o),
(202,-6,o),
(237,-6,qs),
(295,-6,o),
(392,29,o),
(430,76,q),
(439,0,l)
);
},
{
closed = 1;
nodes = (
(427,212,ls),
(427,171,o),
(400,110,o),
(351,69,o),
(284,49,o),
(245,49,qs),
(221,49,o),
(176,61,o),
(141,87,o),
(120,125,o),
(120,152,qs),
(120,186,o),
(153,225,o),
(203,244,o),
(262,248,o),
(288,248,qs),
(427,248,l)
);
}
);
userData = {
assembly = "MPPEM[ ]	/* MeasurePixelPerEm */
PUSHB[ ]	/* 1 value pushed */
39 
LT[ ]	/* LessThan */
IF[ ]	/* If */
NPUSHB[ ]	/* 53 values pushed */
0 7 6 5 6 7 5 128 0 5 14 1 10 11 5 10 103 3 1 1 1 0 97 13 2 12 3 0 0 48 77 0 6 6 8 97 0 8 8 49 77 0 11 11 4 97 9 1 4 4 50 4 78 
ELSE[ ]	/* Else */
NPUSHB[ ]	/* 57 values pushed */
0 7 6 5 6 7 5 128 0 5 14 1 10 11 5 10 103 3 1 1 1 0 97 13 2 12 3 0 0 48 77 0 6 6 8 97 0 8 8 49 77 0 9 9 39 77 0 11 11 4 97 0 4 4 50 4 78 
EIF[ ]	/* EndIf */
NPUSHB[ ]	/* 39 values pushed */
64 62 13 12 1 0 73 71 62 78 64 78 61 60 55 53 49 48 44 42 38 36 28 26 19 17 12 23 13 23 7 5 0 11 1 11 15 8 22 
CALL[ ]	/* CallFunction */";
};
width = 563;
}
);
note = adieresis;
unicode = 228;
},
{
glyphname = Adieresis;
kernLeft = A;
kernRight = A;
layers = (
{
layerId = m01;
shapes = (
{
closed = 1;
nodes = (
(161,875,o),
(161,854,qs),
(161,831,o),
(186,805,o),
(209,805,qs),
(232,805,o),
(256,831,o),
(256,854,qs),
(256,875,o),
(229,900,o),
(209,900,qs),
(189,900,o)
);
},
{
closed = 1;
nodes = (
(401,875,o),
(401,854,qs),
(401,831,o),
(425,805,o),
(448,805,qs),
(471,805,o),
(495,831,o),
(495,854,qs),
(495,875,o),
(468,900,o),
(448,900,qs),
(428,900,o)
);
},
{
closed = 1;
nodes = (
(560,0,l),
(633,0,l),
(370,707,l),
(279,707,l),
(15,0,l),
(88,0,l),
(146,157,l),
(502,157,l)
);
},
{
closed = 1;
nodes = (
(481,217,l),
(168,217,l),
(324,646,l)
);
}
);
userData = {
assembly = "NPUSHB[ ]	/* 72 values pushed */
34 1 8 5 1 76 10 2 9 3 0 3 1 1 5 0 1 105 0 8 11 1 7 4 8 7 104 0 5 5 38 77 6 1 4 4 39 4 78 24 24 13 12 1 0 33 32 24 31 24 31 30 29 28 27 26 25 19 17 12 23 13 23 7 5 0 11 1 11 12 8 22 
CALL[ ]	/* CallFunction */";
};
width = 648;
}
);
note = Adieresis;
unicode = 196;
},
{
glyphname = cedilla;
layers = (
{
layerId = m01;
shapes = (
{
closed = 1;
nodes = (
(254,7,l),
(225,-124,l),
(237,-121,o),
(272,-117,o),
(285,-117,qs),
(308,-117,o),
(335,-137,o),
(336,-159,qs),
(336,-184,o),
(313,-209,o),
(279,-221,o),
(239,-224,o),
(222,-222,q),
(222,-262,l),
(250,-266,o),
(308,-260,o),
(356,-235,o),
(387,-191,o),
(387,-157,qs),
(387,-109,o),
(355,-89,qs),
(323,-72,o),
(278,-80,q),
(298,7,l)
);
}
);
userData = {
assembly = "PUSHB[ ]	/* 2 values pushed */
6 100 
WCVTP[ ]	/* WriteCVTInPixels */
NPUSHB[ ]	/* 29 values pushed */
21 10 9 3 0 73 0 1 0 0 1 87 0 1 1 0 97 0 0 1 0 81 23 22 19 17 2 8 22 
CALL[ ]	/* CallFunction */
PUSHB[ ]	/* 2 values pushed */
6 0 
WCVTP[ ]	/* WriteCVTInPixels */";
};
width = 593;
}
);
note = cedilla;
unicode = 184;
},
{
glyphname = Ecircumflex;
layers = (
{
layerId = m01;
shapes = (
{
closed = 1;
nodes = (
(473,798,l),
(350,944,l),
(309,944,l),
(186,798,l),
(250,798,l),
(329,895,l),
(411,798,l)
);
},
{
closed = 1;
nodes = (
(557,0,l),
(557,60,l),
(157,60,l),
(157,321,l),
(517,321,l),
(517,381,l),
(157,381,l),
(157,647,l),
(557,647,l),
(557,707,l),
(92,707,l),
(92,0,l)
);
}
);
userData = {
assembly = "NPUSHB[ ]	/* 52 values pushed */
0 1 0 1 133 2 1 0 3 0 133 0 5 0 6 7 5 6 103 0 4 4 3 95 0 3 3 38 77 0 7 7 8 95 0 8 8 39 8 78 17 17 17 17 17 17 17 17 17 9 8 31 
CALL[ ]	/* CallFunction */";
};
width = 610;
}
);
note = Ecircumflex;
unicode = 202;
},
{
glyphname = ecircumflex;
kernLeft = d;
layers = (
{
layerId = m01;
shapes = (
{
closed = 1;
nodes = (
(523,297,o),
(500,402,o),
(446,483,o),
(359,533,o),
(296,533,qs),
(236,533,o),
(143,494,o),
(80,423,o),
(48,323,o),
(48,263,qs),
(48,204,o),
(78,105,o),
(140,34,o),
(233,-6,o),
(295,-6,qs),
(329,-6,o),
(397,8,o),
(455,39,o),
(500,89,o),
(511,124,q),
(442,124,l),
(433,103,o),
(401,75,o),
(362,58,o),
(319,50,o),
(298,50,qs),
(253,50,o),
(186,79,o),
(140,130,o),
(115,200,o),
(113,242,q),
(521,242,l)
);
},
{
closed = 1;
nodes = (
(116,332,o),
(140,397,o),
(184,447,o),
(247,477,o),
(288,477,qs),
(329,477,o),
(391,448,o),
(432,399,o),
(453,333,o),
(454,297,q),
(114,297,l)
);
},
{
closed = 1;
nodes = (
(435,623,l),
(312,769,l),
(271,769,l),
(148,623,l),
(213,623,l),
(291,720,l),
(373,623,l)
);
}
);
userData = {
assembly = "NPUSHB[ ]	/* 77 values pushed */
0 8 7 8 133 9 1 7 3 7 133 0 1 4 0 4 1 0 128 11 1 6 10 1 4 1 6 4 103 0 5 5 3 97 0 3 3 49 77 0 0 0 2 97 0 2 2 50 2 78 32 32 0 0 49 48 47 46 45 44 32 42 32 42 38 36 0 31 0 31 40 36 20 36 12 8 26 
CALL[ ]	/* CallFunction */";
};
width = 571;
}
);
note = ecircumflex;
unicode = 234;
},
{
glyphname = Odieresis;
kernLeft = O;
kernRight = D;
layers = (
{
layerId = m01;
shapes = (
{
closed = 1;
nodes = (
(219,875,o),
(219,854,qs),
(219,831,o),
(244,805,o),
(267,805,qs),
(290,805,o),
(314,831,o),
(314,854,qs),
(314,875,o),
(287,900,o),
(267,900,qs),
(247,900,o)
);
},
{
closed = 1;
nodes = (
(459,875,o),
(459,854,qs),
(459,831,o),
(483,805,o),
(506,805,qs),
(529,805,o),
(553,831,o),
(553,854,qs),
(553,875,o),
(526,900,o),
(506,900,qs),
(486,900,o)
);
},
{
closed = 1;
nodes = (
(589,47,o),
(672,143,o),
(714,275,o),
(714,353,qs),
(714,431,o),
(672,563,o),
(589,660,o),
(466,715,o),
(384,715,qs),
(302,715,o),
(178,660,o),
(95,564,o),
(53,431,o),
(53,353,qs),
(53,275,o),
(95,143,o),
(178,46,o),
(302,-8,o),
(384,-8,qs),
(466,-8,o)
);
},
{
closed = 1;
nodes = (
(550,608,o),
(615,525,o),
(647,415,o),
(647,353,qs),
(647,290,o),
(615,180,o),
(551,98,o),
(451,51,o),
(384,51,qs),
(317,51,o),
(218,99,o),
(152,181,o),
(119,291,o),
(119,353,qs),
(119,415,o),
(151,525,o),
(217,608,o),
(317,656,o),
(384,656,qs),
(451,656,o)
);
}
);
userData = {
assembly = "NPUSHB[ ]	/* 70 values pushed */
9 2 8 3 0 3 1 1 5 0 1 105 11 1 6 6 5 97 0 5 5 46 77 0 7 7 4 97 10 1 4 4 47 4 78 45 44 25 24 13 12 1 0 55 53 44 63 45 63 35 33 24 43 25 43 19 17 12 23 13 23 7 5 0 11 1 11 12 8 22 
CALL[ ]	/* CallFunction */";
};
width = 767;
}
);
note = Odieresis;
unicode = 214;
},
{
glyphname = odieresis;
kernLeft = d;
layers = (
{
layerId = m01;
shapes = (
{
closed = 1;
nodes = (
(133,691,o),
(133,671,qs),
(133,651,o),
(162,623,o),
(182,623,qs),
(202,623,o),
(232,650,o),
(232,671,qs),
(232,692,o),
(202,719,o),
(182,719,qs),
(162,719,o)
);
},
{
closed = 1;
nodes = (
(364,691,o),
(364,671,qs),
(364,651,o),
(392,623,o),
(412,623,qs),
(432,623,o),
(462,650,o),
(462,671,qs),
(462,692,o),
(432,719,o),
(412,719,qs),
(392,719,o)
);
},
{
closed = 1;
nodes = (
(179,83,o),
(134,141,o),
(113,219,o),
(113,263,qs),
(113,307,o),
(134,385,o),
(179,443,o),
(249,477,o),
(297,477,qs),
(345,477,o),
(415,443,o),
(460,385,o),
(481,307,o),
(481,263,qs),
(481,219,o),
(460,141,o),
(415,83,o),
(345,50,o),
(297,50,qs),
(249,50,o)
);
},
{
closed = 1;
nodes = (
(142,493,o),
(79,421,o),
(48,322,o),
(48,263,qs),
(48,204,o),
(79,105,o),
(142,34,o),
(235,-6,o),
(297,-6,qs),
(359,-6,o),
(452,34,o),
(515,105,o),
(547,204,o),
(547,263,qs),
(547,322,o),
(515,421,o),
(452,493,o),
(359,533,o),
(297,533,qs),
(235,533,o)
);
}
);
userData = {
assembly = "NPUSHB[ ]	/* 72 values pushed */
3 1 1 1 0 97 9 2 8 3 0 0 48 77 0 5 5 6 97 11 1 6 6 49 77 10 1 4 4 7 97 0 7 7 50 7 78 45 44 25 24 13 12 1 0 55 53 44 63 45 63 35 33 24 43 25 43 19 17 12 23 13 23 7 5 0 11 1 11 12 8 22 
CALL[ ]	/* CallFunction */";
};
width = 595;
}
);
note = odieresis;
unicode = 246;
},
{
glyphname = dotlessi;
layers = (
{
layerId = m01;
shapes = (
{
closed = 1;
nodes = (
(72,527,l),
(72,0,l),
(138,0,l),
(138,527,l)
);
}
);
userData = {
assembly = "NPUSHB[ ]	/* 16 values pushed */
0 1 1 41 77 0 0 0 39 0 78 17 16 2 8 24 
CALL[ ]	/* CallFunction */";
};
width = 210;
}
);
note = dotlessi;
unicode = 305;
},
{
glyphname = Idotaccent;
layers = (
{
layerId = m01;
shapes = (
{
closed = 1;
nodes = (
(95,707,l),
(95,0,l),
(160,0,l),
(160,707,l)
);
},
{
closed = 1;
nodes = (
(78,879,o),
(78,856,qs),
(78,833,o),
(105,807,o),
(127,807,qs),
(149,807,o),
(177,833,o),
(177,856,qs),
(177,878,o),
(149,904,o),
(127,904,qs),
(105,904,o)
);
}
);
userData = {
assembly = "NPUSHB[ ]	/* 33 values pushed */
4 1 2 0 3 1 2 3 105 0 1 1 38 77 0 0 0 39 0 78 5 4 11 9 4 15 5 15 17 16 5 8 24 
CALL[ ]	/* CallFunction */";
};
width = 255;
}
);
note = Idotaccent;
unicode = 304;
},
{
glyphname = udieresis;
layers = (
{
layerId = m01;
shapes = (
{
closed = 1;
nodes = (
(127,691,o),
(127,671,qs),
(127,651,o),
(156,623,o),
(176,623,qs),
(196,623,o),
(226,650,o),
(226,671,qs),
(226,692,o),
(196,719,o),
(176,719,qs),
(156,719,o)
);
},
{
closed = 1;
nodes = (
(358,691,o),
(358,671,qs),
(358,651,o),
(386,623,o),
(406,623,qs),
(426,623,o),
(456,650,o),
(456,671,qs),
(456,692,o),
(426,719,o),
(406,719,qs),
(386,719,o)
);
},
{
closed = 1;
nodes = (
(188,78,o),
(152,127,o),
(136,193,o),
(136,231,qs),
(136,527,l),
(70,527,l),
(70,229,ls),
(70,117,o),
(173,-6,o),
(288,-6,qs),
(404,-6,o),
(508,117,o),
(508,229,qs),
(508,527,l),
(442,527,l),
(442,231,ls),
(442,191,o),
(426,125,o),
(390,77,o),
(331,50,o),
(288,50,qs),
(246,50,o)
);
}
);
userData = {
assembly = "NPUSHB[ ]	/* 63 values pushed */
3 1 1 1 0 97 9 2 8 3 0 0 48 77 7 1 5 5 41 77 10 1 4 4 6 97 0 6 6 50 6 78 25 24 13 12 1 0 40 39 36 34 31 30 24 45 25 45 19 17 12 23 13 23 7 5 0 11 1 11 11 8 22 
CALL[ ]	/* CallFunction */";
};
width = 578;
}
);
note = udieresis;
unicode = 252;
},
{
glyphname = Udieresis;
layers = (
{
layerId = m01;
shapes = (
{
closed = 1;
nodes = (
(198,875,o),
(198,854,qs),
(198,831,o),
(223,805,o),
(246,805,qs),
(269,805,o),
(293,831,o),
(293,854,qs),
(293,875,o),
(266,900,o),
(246,900,qs),
(226,900,o)
);
},
{
closed = 1;
nodes = (
(438,875,o),
(438,854,qs),
(438,831,o),
(462,805,o),
(485,805,qs),
(508,805,o),
(532,831,o),
(532,854,qs),
(532,875,o),
(505,900,o),
(485,900,qs),
(465,900,o)
);
},
{
closed = 1;
nodes = (
(570,305,ls),
(570,252,o),
(549,160,o),
(500,91,o),
(420,51,o),
(362,51,qs),
(304,51,o),
(224,90,o),
(174,159,o),
(152,252,o),
(152,305,qs),
(152,707,l),
(87,707,l),
(87,301,ls),
(87,233,o),
(118,120,o),
(185,38,o),
(289,-8,o),
(361,-8,qs),
(433,-8,o),
(537,38,o),
(604,120,o),
(635,233,o),
(635,301,qs),
(635,707,l),
(570,707,l)
);
}
);
userData = {
assembly = "NPUSHB[ ]	/* 61 values pushed */
9 2 8 3 0 3 1 1 5 0 1 105 10 7 2 5 5 38 77 0 6 6 4 97 0 4 4 47 4 78 24 24 13 12 1 0 24 49 24 49 44 42 37 36 31 29 19 17 12 23 13 23 7 5 0 11 1 11 11 8 22 
CALL[ ]	/* CallFunction */";
};
width = 722;
}
);
note = Udieresis;
unicode = 220;
},
{
glyphname = ccedilla;
kernLeft = d;
layers = (
{
layerId = m01;
shapes = (
{
closed = 1;
nodes = (
(342,-5,o),
(405,13,o),
(459,48,o),
(499,99,o),
(509,135,q),
(441,135,l),
(424,86,o),
(348,50,o),
(300,50,qs),
(252,50,o),
(181,84,o),
(136,142,o),
(114,219,o),
(114,262,qs),
(114,306,o),
(136,384,o),
(181,443,o),
(250,477,o),
(297,477,qs),
(343,477,o),
(420,435,o),
(434,391,q),
(501,391,l),
(482,463,o),
(373,533,o),
(301,533,qs),
(239,533,o),
(145,493,o),
(81,421,o),
(49,322,o),
(49,262,qs),
(49,208,o),
(76,115,o),
(130,44,o),
(211,1,o),
(265,-4,q),
(241,-120,l),
(253,-117,o),
(285,-113,o),
(301,-113,qs),
(322,-113,o),
(352,-133,o),
(352,-157,qs),
(352,-180,o),
(329,-205,o),
(295,-217,o),
(255,-220,o),
(238,-218,q),
(238,-258,l),
(266,-262,o),
(324,-256,o),
(372,-231,o),
(403,-187,o),
(403,-153,qs),
(403,-104,o),
(339,-67,o),
(294,-76,q),
(308,-6,l)
);
}
);
userData = {
assembly = "NPUSHB[ ]	/* 12 values pushed */
21 1 6 4 1 76 20 9 8 3 0 73 
MPPEM[ ]	/* MeasurePixelPerEm */
PUSHB[ ]	/* 1 value pushed */
12 
LT[ ]	/* LessThan */
IF[ ]	/* If */
NPUSHB[ ]	/* 42 values pushed */
0 2 3 5 3 2 5 128 0 5 4 3 5 4 126 0 0 6 6 0 113 0 3 3 1 97 0 1 1 49 77 0 4 4 6 97 0 6 6 50 6 78 
ELSE[ ]	/* Else */
NPUSHB[ ]	/* 41 values pushed */
0 2 3 5 3 2 5 128 0 5 4 3 5 4 126 0 0 6 0 134 0 3 3 1 97 0 1 1 49 77 0 4 4 6 97 0 6 6 50 6 78 
EIF[ ]	/* EndIf */
NPUSHB[ ]	/* 17 values pushed */
57 56 52 51 49 47 39 37 35 34 32 30 18 16 7 8 22 
CALL[ ]	/* CallFunction */";
};
width = 555;
}
);
note = ccedilla;
unicode = 231;
},
{
glyphname = uni0162;
kernLeft = uni0422;
kernRight = uni0422;
layers = (
{
layerId = m01;
shapes = (
{
closed = 1;
nodes = (
(19,707,l),
(19,647,l),
(253,647,l),
(253,0,l),
(263,0,l),
(237,-124,l),
(249,-121,o),
(281,-117,o),
(298,-117,qs),
(321,-117,o),
(348,-137,o),
(348,-161,qs),
(348,-184,o),
(325,-209,o),
(291,-221,o),
(251,-224,o),
(234,-222,q),
(234,-262,l),
(262,-266,o),
(320,-260,o),
(368,-235,o),
(399,-191,o),
(399,-157,qs),
(399,-108,o),
(335,-71,o),
(290,-80,q),
(306,0,l),
(318,0,l),
(318,647,l),
(552,647,l),
(552,707,l)
);
}
);
userData = {
assembly = "NPUSHB[ ]	/* 48 values pushed */
4 1 2 1 1 76 24 13 12 3 2 73 0 2 1 2 134 4 1 0 0 5 95 0 5 5 38 77 3 1 1 1 39 1 78 30 29 28 27 26 25 22 20 17 16 6 8 24 
CALL[ ]	/* CallFunction */";
};
width = 571;
}
);
note = uni0162;
unicode = 354;
},
{
glyphname = uni0163;
kernLeft = t;
layers = (
{
layerId = m01;
shapes = (
{
closed = 1;
nodes = (
(123,678,l),
(123,527,l),
(34,527,l),
(34,471,l),
(123,471,l),
(123,171,ls),
(123,128,o),
(140,61,o),
(159,41,qs),
(174,25,o),
(195,15,q),
(165,-117,l),
(177,-114,o),
(209,-110,o),
(225,-110,qs),
(246,-110,o),
(276,-131,o),
(276,-154,qs),
(276,-177,o),
(253,-202,o),
(219,-214,o),
(179,-217,o),
(162,-215,q),
(162,-255,l),
(190,-259,o),
(248,-253,o),
(296,-228,o),
(327,-184,o),
(327,-150,qs),
(327,-101,o),
(263,-64,o),
(218,-73,q),
(236,3,l),
(260,0,o),
(285,0,qs),
(331,0,l),
(331,57,l),
(291,57,ls),
(274,57,o),
(237,64,o),
(225,72,qs),
(212,81,o),
(198,105,o),
(191,132,o),
(189,161,o),
(189,175,qs),
(189,471,l),
(336,471,l),
(336,527,l),
(189,527,l),
(189,678,l)
);
}
);
userData = {
assembly = "NPUSHB[ ]	/* 64 values pushed */
39 1 3 2 18 1 4 3 2 76 38 27 26 3 4 73 0 7 0 7 133 0 4 3 4 134 5 1 1 1 0 95 6 1 0 0 41 77 0 2 2 3 97 0 3 3 39 3 78 50 49 48 47 46 45 36 34 33 40 17 16 8 8 26 
CALL[ ]	/* CallFunction */";
};
width = 380;
}
);
note = uni0163;
unicode = 355;
},
{
glyphname = Ccedilla;
kernLeft = O;
kernRight = D;
layers = (
{
layerId = m01;
shapes = (
{
closed = 1;
nodes = (
(470,643,o),
(524,614,o),
(567,570,o),
(579,539,q),
(645,539,l),
(631,586,o),
(580,653,o),
(509,695,o),
(424,715,o),
(378,715,qs),
(296,715,o),
(174,660,o),
(93,563,o),
(53,430,o),
(53,353,qs),
(53,279,o),
(88,151,o),
(161,56,o),
(272,-2,o),
(347,-7,q),
(323,-124,l),
(335,-121,o),
(367,-117,o),
(383,-117,qs),
(404,-117,o),
(434,-137,o),
(434,-161,qs),
(434,-183,o),
(411,-209,o),
(377,-221,o),
(337,-224,o),
(320,-222,q),
(320,-262,l),
(348,-266,o),
(406,-260,o),
(454,-235,o),
(485,-191,o),
(485,-157,qs),
(485,-108,o),
(421,-71,o),
(376,-80,q),
(391,-7,l),
(435,-6,o),
(519,16,o),
(589,58,o),
(643,123,o),
(658,168,q),
(585,168,l),
(573,137,o),
(529,93,o),
(474,64,o),
(411,51,o),
(380,51,qs),
(312,51,o),
(214,100,o),
(150,183,o),
(120,293,o),
(120,355,qs),
(120,416,o),
(150,525,o),
(212,608,o),
(309,656,o),
(377,656,qs),
(408,656,o)
);
}
);
userData = {
assembly = "NPUSHB[ ]	/* 12 values pushed */
22 1 4 3 1 76 42 31 30 3 4 73 
MPPEM[ ]	/* MeasurePixelPerEm */
PUSHB[ ]	/* 1 value pushed */
12 
LT[ ]	/* LessThan */
IF[ ]	/* If */
NPUSHB[ ]	/* 44 values pushed */
0 7 0 2 0 7 2 128 0 2 1 0 2 1 126 0 4 3 3 4 113 8 1 0 0 6 97 0 6 6 46 77 0 1 1 3 97 5 1 3 3 47 3 78 
ELSE[ ]	/* Else */
NPUSHB[ ]	/* 43 values pushed */
0 7 0 2 0 7 2 128 0 2 1 0 2 1 126 0 4 3 4 134 8 1 0 0 6 97 0 6 6 46 77 0 1 1 3 97 5 1 3 3 47 3 78 
EIF[ ]	/* EndIf */
NPUSHB[ ]	/* 23 values pushed */
1 0 59 58 54 52 44 43 40 38 21 20 16 15 11 9 0 63 1 63 9 8 22 
CALL[ ]	/* CallFunction */";
};
width = 711;
}
);
note = Ccedilla;
unicode = 199;
},
{
glyphname = scedilla;
kernLeft = d;
layers = (
{
layerId = m01;
shapes = (
{
closed = 1;
nodes = (
(320,469,o),
(356,453,o),
(384,426,o),
(391,408,q),
(452,408,l),
(446,442,o),
(409,490,o),
(357,520,o),
(294,533,o),
(263,533,qs),
(228,533,o),
(156,519,o),
(99,486,o),
(63,430,o),
(63,387,qs),
(63,327,o),
(135,260,o),
(190,247,qs),
(222,239,o),
(282,228,o),
(313,221,qs),
(330,217,o),
(363,206,o),
(389,188,o),
(405,160,o),
(405,140,qs),
(405,111,o),
(379,75,o),
(339,56,o),
(290,50,o),
(267,50,qs),
(244,50,o),
(199,58,o),
(159,75,o),
(126,104,o),
(115,127,q),
(48,127,l),
(55,94,o),
(91,48,o),
(140,16,o),
(198,-1,o),
(228,-4,q),
(206,-114,l),
(218,-110,o),
(252,-106,o),
(266,-107,qs),
(286,-108,o),
(317,-130,o),
(317,-151,qs),
(317,-174,o),
(294,-199,o),
(260,-211,o),
(220,-214,o),
(203,-212,q),
(203,-252,l),
(231,-256,o),
(289,-250,o),
(337,-225,o),
(368,-181,o),
(368,-147,qs),
(368,-98,o),
(304,-61,o),
(259,-70,q),
(272,-6,l),
(308,-6,o),
(379,9,o),
(435,43,o),
(470,101,o),
(470,144,qs),
(470,202,o),
(403,264,o),
(350,275,qs),
(318,283,o),
(256,295,o),
(224,302,qs),
(206,306,o),
(172,318,o),
(145,338,o),
(128,368,o),
(128,389,qs),
(128,416,o),
(153,450,o),
(191,469,o),
(238,477,o),
(261,477,qs),
(280,477,o)
);
}
);
userData = {
assembly = "NPUSHB[ ]	/* 16 values pushed */
43 1 1 4 22 1 2 1 2 76 42 31 30 3 2 73 
MPPEM[ ]	/* MeasurePixelPerEm */
PUSHB[ ]	/* 1 value pushed */
12 
LT[ ]	/* LessThan */
IF[ ]	/* If */
NPUSHB[ ]	/* 43 values pushed */
0 6 0 3 0 6 3 128 0 3 4 0 3 4 126 0 2 1 1 2 113 7 1 0 0 5 97 0 5 5 49 77 0 4 4 1 97 0 1 1 50 1 78 
ELSE[ ]	/* Else */
NPUSHB[ ]	/* 42 values pushed */
0 6 0 3 0 6 3 128 0 3 4 0 3 4 126 0 2 1 2 134 7 1 0 0 5 97 0 5 5 49 77 0 4 4 1 97 0 1 1 50 1 78 
EIF[ ]	/* EndIf */
NPUSHB[ ]	/* 21 values pushed */
1 0 81 80 76 74 55 53 49 48 39 38 21 20 0 85 1 85 8 8 22 
CALL[ ]	/* CallFunction */";
};
width = 519;
}
);
note = scedilla;
unicode = 351;
},
{
glyphname = uni21A9;
layers = (
{
layerId = m01;
shapes = (
{
closed = 1;
nodes = (
(415,296,l),
(372,342,l),
(64,30,l),
(372,-283,l),
(415,-237,l),
(178,0,l),
(769,0,ls),
(845,0,o),
(964,51,o),
(1045,141,o),
(1087,266,o),
(1087,340,qs),
(1087,413,o),
(1045,537,o),
(964,627,o),
(845,678,o),
(769,678,qs),
(201,678,l),
(201,618,l),
(761,618,ls),
(823,618,o),
(920,576,o),
(988,501,o),
(1023,399,o),
(1023,340,qs),
(1023,280,o),
(988,178,o),
(921,103,o),
(823,60,o),
(761,60,qs),
(178,60,l)
);
}
);
userData = {
assembly = "NPUSHB[ ]	/* 57 values pushed */
29 28 2 0 1 27 1 3 0 2 76 26 25 2 3 73 0 2 0 1 0 2 1 103 4 1 0 3 3 0 87 4 1 0 0 3 95 0 3 0 3 79 1 0 24 22 14 12 11 9 0 30 1 30 5 6 22 
CALL[ ]	/* CallFunction */";
};
width = 1151;
}
);
note = uni21A9;
unicode = 8617;
},
{
glyphname = uni2713;
layers = (
{
layerId = m01;
shapes = (
{
closed = 1;
nodes = (
(122,417,l),
(64,370,l),
(378,7,l),
(996,774,l),
(937,820,l),
(378,118,l)
);
}
);
userData = {
assembly = "PUSHB[ ]	/* 4 values pushed */
2 0 1 50 
CALL[ ]	/* CallFunction */";
};
width = 1060;
}
);
note = uni2713;
unicode = 10003;
},
{
glyphname = divide;
layers = (
{
layerId = m01;
shapes = (
{
closed = 1;
nodes = (
(185,203,o),
(185,181,qs),
(185,159,o),
(212,129,o),
(235,129,qs),
(259,129,o),
(286,159,o),
(286,181,qs),
(286,203,o),
(258,232,o),
(235,232,qs),
(212,232,o)
);
},
{
closed = 1;
nodes = (
(185,559,o),
(185,537,qs),
(185,515,o),
(212,485,o),
(235,485,qs),
(259,485,o),
(286,515,o),
(286,537,qs),
(286,559,o),
(258,587,o),
(235,587,qs),
(212,587,o)
);
},
{
closed = 1;
nodes = (
(64,388,l),
(64,328,l),
(407,328,l),
(407,388,l)
);
}
);
userData = {
assembly = "NPUSHB[ ]	/* 58 values pushed */
7 1 2 0 3 5 2 3 105 0 5 0 4 0 5 4 103 6 1 0 1 1 0 89 6 1 0 0 1 97 0 1 0 1 81 13 12 1 0 27 26 25 24 19 17 12 23 13 23 7 5 0 11 1 11 8 8 22 
CALL[ ]	/* CallFunction */";
};
width = 471;
}
);
note = divide;
unicode = 247;
},
{
glyphname = multiply;
layers = (
{
layerId = m01;
shapes = (
{
closed = 1;
nodes = (
(409,212,l),
(267,353,l),
(409,495,l),
(371,533,l),
(230,390,l),
(88,533,l),
(50,495,l),
(193,353,l),
(50,212,l),
(88,174,l),
(230,316,l),
(371,174,l)
);
}
);
userData = {
assembly = "PUSHB[ ]	/* 4 values pushed */
5 1 1 50 
CALL[ ]	/* CallFunction */";
};
width = 459;
}
);
note = multiply;
unicode = 215;
},
{
glyphname = yen;
layers = (
{
layerId = m01;
shapes = (
{
closed = 1;
nodes = (
(120,707,l),
(44,707,l),
(268,312,l),
(145,312,l),
(145,253,l),
(294,253,l),
(294,157,l),
(145,157,l),
(145,98,l),
(294,98,l),
(294,0,l),
(359,0,l),
(359,98,l),
(507,98,l),
(507,157,l),
(359,157,l),
(359,253,l),
(507,253,l),
(507,312,l),
(386,312,l),
(610,707,l),
(534,707,l),
(329,330,l)
);
}
);
userData = {
assembly = "NPUSHB[ ]	/* 54 values pushed */
22 1 1 0 1 76 9 1 1 8 1 2 3 1 2 103 7 1 3 6 1 4 5 3 4 103 10 1 0 0 38 77 0 5 5 39 5 78 21 20 19 18 17 17 17 17 17 17 17 17 16 11 8 31 
CALL[ ]	/* CallFunction */";
};
width = 654;
}
);
note = yen;
unicode = 165;
},
{
glyphname = uni20BD;
layers = (
{
layerId = m01;
shapes = (
{
closed = 1;
nodes = (
(64,317,l),
(64,257,l),
(165,257,l),
(165,154,l),
(64,154,l),
(64,94,l),
(165,94,l),
(165,0,l),
(230,0,l),
(230,94,l),
(517,94,l),
(517,154,l),
(230,154,l),
(230,257,l),
(385,257,ls),
(441,257,o),
(538,283,o),
(609,338,o),
(650,424,o),
(650,484,qs),
(650,544,o),
(616,628,o),
(552,682,o),
(461,707,o),
(403,707,qs),
(165,707,l),
(165,317,l)
);
},
{
closed = 1;
nodes = (
(230,647,l),
(399,647,ls),
(442,647,o),
(510,630,o),
(558,592,o),
(583,531,o),
(583,487,qs),
(583,440,o),
(555,375,o),
(502,335,o),
(428,317,o),
(383,317,qs),
(230,317,l)
);
}
);
userData = {
assembly = "NPUSHB[ ]	/* 57 values pushed */
11 9 2 8 7 1 1 2 8 1 103 6 1 2 5 1 3 4 2 3 103 0 10 10 0 95 0 0 0 38 77 0 4 4 39 4 78 28 27 38 36 27 39 28 39 17 17 17 17 17 17 17 40 32 12 8 31 
CALL[ ]	/* CallFunction */";
};
width = 704;
}
);
note = uni20BD;
unicode = 8381;
},
{
glyphname = uni20B4;
layers = (
{
layerId = m01;
shapes = (
{
closed = 1;
nodes = (
(217,700,o),
(159,668,o),
(116,617,o),
(108,580,q),
(179,580,l),
(186,604,o),
(214,633,o),
(251,650,o),
(293,656,o),
(316,656,qs),
(342,656,o),
(389,644,o),
(425,619,o),
(447,578,o),
(447,549,qs),
(447,534,o),
(436,503,o),
(419,475,o),
(398,452,o),
(388,446,q),
(52,446,l),
(52,387,l),
(319,387,l),
(171,279,l),
(52,279,l),
(52,220,l),
(123,220,l),
(112,204,o),
(101,161,o),
(101,143,qs),
(101,101,o),
(134,44,o),
(189,8,o),
(259,-8,o),
(295,-8,qs),
(328,-8,o),
(397,4,o),
(455,34,o),
(499,83,o),
(508,119,q),
(439,119,l),
(430,96,o),
(399,69,o),
(361,54,o),
(317,49,o),
(296,49,qs),
(272,49,o),
(225,61,o),
(188,86,o),
(165,126,o),
(165,154,qs),
(165,192,o),
(191,220,q),
(538,220,l),
(538,279,l),
(255,279,l),
(406,387,l),
(538,387,l),
(538,446,l),
(457,446,l),
(480,468,o),
(508,526,o),
(507,562,qs),
(506,602,o),
(474,660,o),
(421,697,o),
(354,715,o),
(319,715,qs),
(285,715,o)
);
}
);
userData = {
assembly = "NPUSHB[ ]	/* 93 values pushed */
0 13 12 1 12 13 1 128 0 6 4 5 4 6 5 128 11 1 1 10 1 2 3 1 2 103 9 1 3 8 1 4 6 3 4 103 0 12 12 0 97 14 1 0 0 46 77 0 5 5 7 97 0 7 7 47 7 78 1 0 64 63 59 57 48 47 46 45 44 43 42 41 34 32 28 27 23 21 15 14 13 12 11 10 9 8 0 68 1 68 15 8 22 
CALL[ ]	/* CallFunction */";
};
width = 590;
}
);
note = uni20B4;
unicode = 8372;
},
{
glyphname = sterling;
layers = (
{
layerId = m01;
shapes = (
{
closed = 1;
nodes = (
(212,367,l),
(212,518,ls),
(212,587,o),
(276,656,o),
(345,656,qs),
(362,656,o),
(397,648,o),
(426,631,o),
(447,604,o),
(452,585,q),
(516,585,l),
(511,618,o),
(480,667,o),
(434,700,o),
(376,715,o),
(344,715,qs),
(252,715,o),
(149,619,o),
(149,525,qs),
(149,367,l),
(64,367,l),
(64,307,l),
(149,307,l),
(149,60,l),
(64,60,l),
(64,0,l),
(520,0,l),
(520,60,l),
(212,60,l),
(212,307,l),
(426,307,l),
(426,365,l),
(426,367,l)
);
}
);
userData = {
assembly = "NPUSHB[ ]	/* 54 values pushed */
0 7 8 5 8 7 5 128 9 1 5 4 1 0 1 5 0 103 0 8 8 6 97 0 6 6 46 77 3 1 1 1 2 95 0 2 2 39 2 78 32 31 36 20 35 17 17 17 17 17 17 10 8 31 
CALL[ ]	/* CallFunction */";
};
width = 584;
}
);
note = sterling;
unicode = 163;
},
